G04 #@! TF.GenerationSoftware,KiCad,Pcbnew,8.0.3*
G04 #@! TF.CreationDate,2024-07-02T01:34:26-03:00*
G04 #@! TF.ProjectId,tp4potencia-rounded,74703470-6f74-4656-9e63-69612d726f75,1.0*
G04 #@! TF.SameCoordinates,Original*
G04 #@! TF.FileFunction,Legend,Top*
G04 #@! TF.FilePolarity,Positive*
%FSLAX46Y46*%
G04 Gerber Fmt 4.6, Leading zero omitted, Abs format (unit mm)*
G04 Created by KiCad (PCBNEW 8.0.3) date 2024-07-02 01:34:26*
%MOMM*%
%LPD*%
G01*
G04 APERTURE LIST*
G04 Aperture macros list*
%AMRoundRect*
0 Rectangle with rounded corners*
0 $1 Rounding radius*
0 $2 $3 $4 $5 $6 $7 $8 $9 X,Y pos of 4 corners*
0 Add a 4 corners polygon primitive as box body*
4,1,4,$2,$3,$4,$5,$6,$7,$8,$9,$2,$3,0*
0 Add four circle primitives for the rounded corners*
1,1,$1+$1,$2,$3*
1,1,$1+$1,$4,$5*
1,1,$1+$1,$6,$7*
1,1,$1+$1,$8,$9*
0 Add four rect primitives between the rounded corners*
20,1,$1+$1,$2,$3,$4,$5,0*
20,1,$1+$1,$4,$5,$6,$7,0*
20,1,$1+$1,$6,$7,$8,$9,0*
20,1,$1+$1,$8,$9,$2,$3,0*%
%AMHorizOval*
0 Thick line with rounded ends*
0 $1 width*
0 $2 $3 position (X,Y) of the first rounded end (center of the circle)*
0 $4 $5 position (X,Y) of the second rounded end (center of the circle)*
0 Add line between two ends*
20,1,$1,$2,$3,$4,$5,0*
0 Add two circle primitives to create the rounded ends*
1,1,$1,$2,$3*
1,1,$1,$4,$5*%
G04 Aperture macros list end*
%ADD10C,0.250000*%
%ADD11C,0.000000*%
%ADD12C,0.300000*%
%ADD13C,0.450000*%
%ADD14C,0.500000*%
%ADD15C,0.120000*%
%ADD16C,0.100000*%
%ADD17C,0.150000*%
%ADD18R,1.600000X2.400000*%
%ADD19O,1.600000X2.400000*%
%ADD20R,1.600000X1.600000*%
%ADD21C,1.600000*%
%ADD22O,1.600000X1.600000*%
%ADD23RoundRect,0.575000X-0.575000X-0.575000X0.575000X-0.575000X0.575000X0.575000X-0.575000X0.575000X0*%
%ADD24C,2.300000*%
%ADD25C,6.400000*%
%ADD26R,2.000000X1.905000*%
%ADD27O,2.000000X1.905000*%
%ADD28R,4.000000X4.000000*%
%ADD29C,4.000000*%
%ADD30O,2.200000X3.500000*%
%ADD31R,1.500000X2.500000*%
%ADD32O,1.500000X2.500000*%
%ADD33C,5.000000*%
%ADD34RoundRect,0.250000X0.620000X0.845000X-0.620000X0.845000X-0.620000X-0.845000X0.620000X-0.845000X0*%
%ADD35O,1.740000X2.190000*%
%ADD36C,2.000000*%
%ADD37R,3.000000X3.000000*%
%ADD38C,3.000000*%
%ADD39O,3.500000X2.200000*%
%ADD40R,2.500000X1.500000*%
%ADD41O,2.500000X1.500000*%
%ADD42R,2.200000X2.200000*%
%ADD43O,2.200000X2.200000*%
%ADD44C,2.200000*%
%ADD45R,1.800000X1.800000*%
%ADD46C,1.800000*%
%ADD47C,2.400000*%
%ADD48HorizOval,2.400000X0.000000X0.000000X0.000000X0.000000X0*%
%ADD49R,1.700000X2.000000*%
%ADD50O,1.700000X2.000000*%
%ADD51C,1.440000*%
%ADD52O,3.500000X3.500000*%
%ADD53R,1.905000X2.000000*%
%ADD54O,1.905000X2.000000*%
%ADD55O,2.400000X2.400000*%
%ADD56R,3.200000X3.200000*%
%ADD57C,3.200000*%
%ADD58C,1.500000*%
G04 APERTURE END LIST*
D10*
X185300000Y-140800000D02*
X187700000Y-138400000D01*
X173535000Y-104177000D02*
X173535000Y-109003000D01*
X209500000Y-36600000D02*
X208100000Y-36600000D01*
X189918000Y-124370000D02*
X194617000Y-124370000D01*
X173700000Y-140800000D02*
X185300000Y-140800000D01*
X197869233Y-138371678D02*
G75*
G02*
X198700002Y-135600001I2130767J871678D01*
G01*
X137848000Y-136054000D02*
X137848000Y-127291000D01*
X84900000Y-103600000D02*
X84900000Y-102200000D01*
X203100000Y-140800000D02*
X202300000Y-140800000D01*
X92300000Y-139400000D02*
X90900000Y-139400000D01*
X140642000Y-133006000D02*
X140642000Y-134530000D01*
X92300000Y-140000000D02*
X91300000Y-140000000D01*
X202700000Y-139600000D02*
X201300000Y-139600000D01*
X135943000Y-119925000D02*
X133276000Y-119925000D01*
X83700000Y-104000000D02*
X83700000Y-103200000D01*
X84300000Y-102600000D02*
X84300000Y-104600000D01*
X201300000Y-139600000D02*
X204100000Y-139600000D01*
X198700000Y-131400000D02*
X198700000Y-135600000D01*
X162740000Y-117131000D02*
X162740000Y-122465000D01*
X187700000Y-138400000D02*
X195700000Y-138400000D01*
X91300000Y-140000000D02*
X93300000Y-140000000D01*
X157660000Y-123354000D02*
X157660000Y-117258000D01*
X92300000Y-139000000D02*
X92300000Y-139400000D01*
X84900000Y-102200000D02*
X84900000Y-105000000D01*
X148135000Y-58457000D02*
X148135000Y-67093000D01*
X187886000Y-113321000D02*
X193474000Y-115226000D01*
X85300000Y-103600000D02*
X84900000Y-103600000D01*
X194744000Y-66712000D02*
X200713000Y-66712000D01*
X133530000Y-58330000D02*
X133530000Y-63156000D01*
X183695000Y-121957000D02*
X186108000Y-125259000D01*
X173700000Y-131400000D02*
X173700000Y-140800000D01*
X209900000Y-37800000D02*
X209100000Y-37800000D01*
X155120000Y-117385000D02*
X155120000Y-121703000D01*
X84300000Y-103600000D02*
X84300000Y-102600000D01*
X194490000Y-100113000D02*
X194490000Y-105447000D01*
X139626000Y-120687000D02*
X143563000Y-124624000D01*
X202700000Y-140200000D02*
X201700000Y-140200000D01*
X128958000Y-100621000D02*
X128958000Y-113956000D01*
X205500000Y-94750000D02*
X210500000Y-94750000D01*
X210500000Y-129500000D01*
X205500000Y-129500000D01*
X205500000Y-94750000D01*
X197869232Y-138371678D02*
X195700000Y-138400000D01*
X132260000Y-113956000D02*
X132260000Y-100621000D01*
X208500000Y-37200000D02*
X210500000Y-37200000D01*
X202700000Y-139200000D02*
X202700000Y-139600000D01*
X170300000Y-62200000D02*
X179300000Y-62200000D01*
X179300000Y-89200000D01*
X170300000Y-89200000D01*
X170300000Y-62200000D01*
X209500000Y-36200000D02*
X209500000Y-36600000D01*
X151437000Y-82460000D02*
X161089000Y-82460000D01*
X173700000Y-123200000D02*
X198700000Y-123200000D01*
X198700000Y-131400000D01*
X173700000Y-131400000D01*
X173700000Y-123200000D01*
D11*
G36*
X105619125Y-132388251D02*
G01*
X105619773Y-132645909D01*
X105621661Y-132875249D01*
X105624706Y-133074410D01*
X105628827Y-133241532D01*
X105633939Y-133374754D01*
X105639961Y-133472215D01*
X105643287Y-133506955D01*
X105646810Y-133532057D01*
X105650519Y-133547288D01*
X105652440Y-133551130D01*
X105654403Y-133552417D01*
X105658602Y-133552051D01*
X105664511Y-133550977D01*
X105681027Y-133546850D01*
X105703082Y-133540325D01*
X105729809Y-133531691D01*
X105760340Y-133521239D01*
X105793805Y-133509257D01*
X105829338Y-133496035D01*
X105866070Y-133481862D01*
X105961056Y-133441235D01*
X106055288Y-133394970D01*
X106148425Y-133343382D01*
X106240124Y-133286787D01*
X106330047Y-133225499D01*
X106417850Y-133159835D01*
X106503194Y-133090109D01*
X106585736Y-133016636D01*
X106665137Y-132939732D01*
X106741055Y-132859712D01*
X106813149Y-132776891D01*
X106881078Y-132691584D01*
X106944500Y-132604107D01*
X107003075Y-132514775D01*
X107056462Y-132423903D01*
X107104320Y-132331806D01*
X107130308Y-132276007D01*
X107155294Y-132218621D01*
X107179183Y-132159964D01*
X107201885Y-132100351D01*
X107223305Y-132040097D01*
X107243350Y-131979517D01*
X107261928Y-131918928D01*
X107278945Y-131858643D01*
X107294308Y-131798978D01*
X107307925Y-131740249D01*
X107319702Y-131682770D01*
X107329546Y-131626857D01*
X107337365Y-131572825D01*
X107343065Y-131520989D01*
X107346553Y-131471665D01*
X107347736Y-131425167D01*
X107347736Y-131294640D01*
X108660070Y-131294640D01*
X108635375Y-131583917D01*
X108620125Y-131727012D01*
X108599570Y-131868486D01*
X108573801Y-132008231D01*
X108542909Y-132146136D01*
X108506983Y-132282090D01*
X108466114Y-132415983D01*
X108420393Y-132547704D01*
X108369910Y-132677142D01*
X108314755Y-132804189D01*
X108255019Y-132928732D01*
X108190793Y-133050661D01*
X108122166Y-133169867D01*
X108049230Y-133286238D01*
X107972074Y-133399664D01*
X107890789Y-133510035D01*
X107805466Y-133617240D01*
X107716194Y-133721169D01*
X107623065Y-133821711D01*
X107526169Y-133918756D01*
X107425596Y-134012193D01*
X107321436Y-134101912D01*
X107213781Y-134187802D01*
X107102720Y-134269754D01*
X106988344Y-134347655D01*
X106870744Y-134421397D01*
X106750009Y-134490869D01*
X106626230Y-134555960D01*
X106499499Y-134616559D01*
X106369904Y-134672556D01*
X106237537Y-134723842D01*
X106102488Y-134770304D01*
X105964847Y-134811834D01*
X105895298Y-134831753D01*
X105830461Y-134851466D01*
X105771743Y-134870435D01*
X105720549Y-134888122D01*
X105698213Y-134896317D01*
X105678284Y-134903990D01*
X105660940Y-134911074D01*
X105646355Y-134917502D01*
X105634706Y-134923206D01*
X105626167Y-134928120D01*
X105623119Y-134930259D01*
X105620915Y-134932175D01*
X105619576Y-134933861D01*
X105619125Y-134935306D01*
X105648415Y-134940570D01*
X105732400Y-134945669D01*
X106041136Y-134954709D01*
X106498699Y-134961103D01*
X107058458Y-134963528D01*
X108494264Y-134963528D01*
X108483681Y-135598529D01*
X108473098Y-136233528D01*
X107196042Y-136237057D01*
X105918986Y-136237057D01*
X106204736Y-136335834D01*
X106342292Y-136386690D01*
X106407608Y-136412845D01*
X106471084Y-136439738D01*
X106533071Y-136467561D01*
X106593922Y-136496506D01*
X106653987Y-136526764D01*
X106713618Y-136558525D01*
X106773167Y-136591981D01*
X106832984Y-136627324D01*
X106893421Y-136664743D01*
X106954830Y-136704432D01*
X107081968Y-136791379D01*
X107217209Y-136889695D01*
X107365142Y-137007303D01*
X107505887Y-137132388D01*
X107639283Y-137264657D01*
X107765172Y-137403813D01*
X107883391Y-137549564D01*
X107993781Y-137701614D01*
X108096182Y-137859669D01*
X108190434Y-138023434D01*
X108276377Y-138192615D01*
X108353849Y-138366917D01*
X108422692Y-138546046D01*
X108482744Y-138729707D01*
X108533846Y-138917605D01*
X108575838Y-139109446D01*
X108608558Y-139304935D01*
X108631848Y-139503778D01*
X108656542Y-139761306D01*
X107347736Y-139761306D01*
X107347736Y-139644889D01*
X107344271Y-139569444D01*
X107335396Y-139489130D01*
X107321405Y-139404702D01*
X107302592Y-139316916D01*
X107279252Y-139226526D01*
X107251680Y-139134285D01*
X107220171Y-139040949D01*
X107185018Y-138947271D01*
X107146516Y-138854007D01*
X107104961Y-138761911D01*
X107060645Y-138671738D01*
X107013865Y-138584241D01*
X106964915Y-138500175D01*
X106914088Y-138420296D01*
X106861681Y-138345356D01*
X106807986Y-138276112D01*
X106757680Y-138217714D01*
X106702366Y-138159172D01*
X106642578Y-138100836D01*
X106578846Y-138043058D01*
X106511704Y-137986190D01*
X106441683Y-137930583D01*
X106369316Y-137876588D01*
X106295136Y-137824556D01*
X106219673Y-137774840D01*
X106143462Y-137727790D01*
X106067033Y-137683759D01*
X105990920Y-137643096D01*
X105915654Y-137606154D01*
X105841768Y-137573285D01*
X105769794Y-137544839D01*
X105700264Y-137521167D01*
X105619125Y-137500000D01*
X105619125Y-139796584D01*
X104384403Y-139796584D01*
X104384403Y-137500000D01*
X104306792Y-137521167D01*
X104269988Y-137533200D01*
X104229980Y-137547977D01*
X104187202Y-137565265D01*
X104142089Y-137584833D01*
X104046591Y-137629874D01*
X103946959Y-137681240D01*
X103846665Y-137737071D01*
X103749183Y-137795507D01*
X103657984Y-137854687D01*
X103615826Y-137883975D01*
X103576542Y-137912751D01*
X103485551Y-137985191D01*
X103397955Y-138063322D01*
X103314008Y-138146713D01*
X103233962Y-138234936D01*
X103158070Y-138327562D01*
X103086587Y-138424161D01*
X103019765Y-138524306D01*
X102957858Y-138627567D01*
X102901118Y-138733515D01*
X102849799Y-138841721D01*
X102804154Y-138951756D01*
X102764436Y-139063192D01*
X102730899Y-139175600D01*
X102703796Y-139288550D01*
X102683379Y-139401613D01*
X102669903Y-139514362D01*
X102645209Y-139761306D01*
X101339931Y-139761306D01*
X101368153Y-139472029D01*
X101382174Y-139338649D01*
X101401031Y-139206473D01*
X101424640Y-139075608D01*
X101452916Y-138946162D01*
X101485776Y-138818244D01*
X101523136Y-138691960D01*
X101564911Y-138567419D01*
X101611018Y-138444729D01*
X101661373Y-138323997D01*
X101715892Y-138205332D01*
X101837086Y-137974632D01*
X101973926Y-137753492D01*
X102125743Y-137542775D01*
X102291864Y-137343345D01*
X102471617Y-137156063D01*
X102664330Y-136981794D01*
X102765337Y-136899808D01*
X102869333Y-136821400D01*
X102976232Y-136746675D01*
X103085952Y-136675743D01*
X103198408Y-136608712D01*
X103313516Y-136545688D01*
X103431192Y-136486781D01*
X103551353Y-136432097D01*
X103673914Y-136381746D01*
X103798792Y-136335834D01*
X104084542Y-136233528D01*
X101526903Y-136233528D01*
X101526903Y-134963528D01*
X102955653Y-134963528D01*
X103510782Y-134961103D01*
X103965038Y-134954709D01*
X104139767Y-134950437D01*
X104271790Y-134945669D01*
X104355278Y-134940570D01*
X104377000Y-134937948D01*
X104384403Y-134935306D01*
X104384023Y-134933561D01*
X104382897Y-134931636D01*
X104378477Y-134927279D01*
X104371287Y-134922291D01*
X104361472Y-134916730D01*
X104334545Y-134904114D01*
X104298854Y-134889886D01*
X104255556Y-134874500D01*
X104205809Y-134858412D01*
X104150770Y-134842075D01*
X104091598Y-134825945D01*
X103814244Y-134740934D01*
X103547582Y-134635996D01*
X103292383Y-134512042D01*
X103049415Y-134369980D01*
X102819449Y-134210720D01*
X102603254Y-134035172D01*
X102401601Y-133844244D01*
X102215261Y-133638848D01*
X102045001Y-133419891D01*
X101891594Y-133188285D01*
X101755808Y-132944937D01*
X101638414Y-132690758D01*
X101540181Y-132426657D01*
X101461880Y-132153543D01*
X101404281Y-131872327D01*
X101368153Y-131583917D01*
X101343458Y-131294640D01*
X102655792Y-131294640D01*
X102655792Y-131425167D01*
X102657017Y-131473569D01*
X102660629Y-131524648D01*
X102666535Y-131578104D01*
X102674643Y-131633637D01*
X102684860Y-131690948D01*
X102697092Y-131749737D01*
X102711246Y-131809704D01*
X102727229Y-131870549D01*
X102744949Y-131931974D01*
X102764312Y-131993677D01*
X102785226Y-132055360D01*
X102807596Y-132116722D01*
X102831331Y-132177464D01*
X102856338Y-132237287D01*
X102882522Y-132295889D01*
X102909792Y-132352973D01*
X102949495Y-132428724D01*
X102994252Y-132504888D01*
X103043660Y-132581052D01*
X103097315Y-132656803D01*
X103154816Y-132731727D01*
X103215758Y-132805410D01*
X103279738Y-132877440D01*
X103346354Y-132947403D01*
X103415203Y-133014886D01*
X103485881Y-133079475D01*
X103557985Y-133140756D01*
X103631112Y-133198317D01*
X103704860Y-133251743D01*
X103778824Y-133300622D01*
X103852602Y-133344540D01*
X103925792Y-133383084D01*
X103980617Y-133410445D01*
X104035649Y-133436607D01*
X104089441Y-133461033D01*
X104140545Y-133483185D01*
X104187516Y-133502525D01*
X104228905Y-133518517D01*
X104263267Y-133530623D01*
X104277360Y-133535051D01*
X104289153Y-133538306D01*
X104384403Y-133559473D01*
X104384403Y-131224084D01*
X105619125Y-131224084D01*
X105619125Y-132388251D01*
G37*
D10*
X209500000Y-37200000D02*
X208500000Y-37200000D01*
X208100000Y-36600000D02*
X210900000Y-36600000D01*
X201700000Y-140200000D02*
X203700000Y-140200000D01*
X90900000Y-139400000D02*
X93700000Y-139400000D01*
X92700000Y-140600000D02*
X91900000Y-140600000D01*
D12*
X83621671Y-108371428D02*
X85121671Y-108371428D01*
X85121671Y-108371428D02*
X83621671Y-109228571D01*
X83621671Y-109228571D02*
X85121671Y-109228571D01*
X171078328Y-87528571D02*
X171078328Y-87242857D01*
X171078328Y-87242857D02*
X171149757Y-87100000D01*
X171149757Y-87100000D02*
X171292614Y-86957143D01*
X171292614Y-86957143D02*
X171578328Y-86885714D01*
X171578328Y-86885714D02*
X172078328Y-86885714D01*
X172078328Y-86885714D02*
X172364042Y-86957143D01*
X172364042Y-86957143D02*
X172506900Y-87100000D01*
X172506900Y-87100000D02*
X172578328Y-87242857D01*
X172578328Y-87242857D02*
X172578328Y-87528571D01*
X172578328Y-87528571D02*
X172506900Y-87671429D01*
X172506900Y-87671429D02*
X172364042Y-87814286D01*
X172364042Y-87814286D02*
X172078328Y-87885714D01*
X172078328Y-87885714D02*
X171578328Y-87885714D01*
X171578328Y-87885714D02*
X171292614Y-87814286D01*
X171292614Y-87814286D02*
X171149757Y-87671429D01*
X171149757Y-87671429D02*
X171078328Y-87528571D01*
X171792614Y-85742857D02*
X171792614Y-86242857D01*
X172578328Y-86242857D02*
X171078328Y-86242857D01*
X171078328Y-86242857D02*
X171078328Y-85528571D01*
X171792614Y-84457143D02*
X171792614Y-84957143D01*
X172578328Y-84957143D02*
X171078328Y-84957143D01*
X171078328Y-84957143D02*
X171078328Y-84242857D01*
X172006900Y-83671429D02*
X172006900Y-82528572D01*
X171078328Y-81528571D02*
X171078328Y-81242857D01*
X171078328Y-81242857D02*
X171149757Y-81100000D01*
X171149757Y-81100000D02*
X171292614Y-80957143D01*
X171292614Y-80957143D02*
X171578328Y-80885714D01*
X171578328Y-80885714D02*
X172078328Y-80885714D01*
X172078328Y-80885714D02*
X172364042Y-80957143D01*
X172364042Y-80957143D02*
X172506900Y-81100000D01*
X172506900Y-81100000D02*
X172578328Y-81242857D01*
X172578328Y-81242857D02*
X172578328Y-81528571D01*
X172578328Y-81528571D02*
X172506900Y-81671429D01*
X172506900Y-81671429D02*
X172364042Y-81814286D01*
X172364042Y-81814286D02*
X172078328Y-81885714D01*
X172078328Y-81885714D02*
X171578328Y-81885714D01*
X171578328Y-81885714D02*
X171292614Y-81814286D01*
X171292614Y-81814286D02*
X171149757Y-81671429D01*
X171149757Y-81671429D02*
X171078328Y-81528571D01*
X172578328Y-80242857D02*
X171078328Y-80242857D01*
X171078328Y-80242857D02*
X172578328Y-79385714D01*
X172578328Y-79385714D02*
X171078328Y-79385714D01*
X133611653Y-136178328D02*
X134297368Y-136178328D01*
X133954510Y-137678328D02*
X133954510Y-136178328D01*
X134640225Y-137606900D02*
X134754511Y-137678328D01*
X134754511Y-137678328D02*
X134983082Y-137678328D01*
X134983082Y-137678328D02*
X135097368Y-137606900D01*
X135097368Y-137606900D02*
X135154511Y-137464042D01*
X135154511Y-137464042D02*
X135154511Y-137392614D01*
X135154511Y-137392614D02*
X135097368Y-137249757D01*
X135097368Y-137249757D02*
X134983082Y-137178328D01*
X134983082Y-137178328D02*
X134811654Y-137178328D01*
X134811654Y-137178328D02*
X134697368Y-137106900D01*
X134697368Y-137106900D02*
X134640225Y-136964042D01*
X134640225Y-136964042D02*
X134640225Y-136892614D01*
X134640225Y-136892614D02*
X134697368Y-136749757D01*
X134697368Y-136749757D02*
X134811654Y-136678328D01*
X134811654Y-136678328D02*
X134983082Y-136678328D01*
X134983082Y-136678328D02*
X135097368Y-136749757D01*
X97085715Y-122478328D02*
X96228572Y-122478328D01*
X96657143Y-122478328D02*
X96657143Y-120978328D01*
X96657143Y-120978328D02*
X96514286Y-121192614D01*
X96514286Y-121192614D02*
X96371429Y-121335471D01*
X96371429Y-121335471D02*
X96228572Y-121406900D01*
X97657143Y-122049757D02*
X98371429Y-122049757D01*
X97514286Y-122478328D02*
X98014286Y-120978328D01*
X98014286Y-120978328D02*
X98514286Y-122478328D01*
X206685156Y-125499999D02*
X206685156Y-124999999D01*
X207470870Y-124785713D02*
X207470870Y-125499999D01*
X207470870Y-125499999D02*
X205970870Y-125499999D01*
X205970870Y-125499999D02*
X205970870Y-124785713D01*
X207470870Y-123928570D02*
X207399442Y-124071427D01*
X207399442Y-124071427D02*
X207256584Y-124142856D01*
X207256584Y-124142856D02*
X205970870Y-124142856D01*
X207399442Y-122785713D02*
X207470870Y-122928570D01*
X207470870Y-122928570D02*
X207470870Y-123214285D01*
X207470870Y-123214285D02*
X207399442Y-123357142D01*
X207399442Y-123357142D02*
X207256584Y-123428570D01*
X207256584Y-123428570D02*
X206685156Y-123428570D01*
X206685156Y-123428570D02*
X206542299Y-123357142D01*
X206542299Y-123357142D02*
X206470870Y-123214285D01*
X206470870Y-123214285D02*
X206470870Y-122928570D01*
X206470870Y-122928570D02*
X206542299Y-122785713D01*
X206542299Y-122785713D02*
X206685156Y-122714285D01*
X206685156Y-122714285D02*
X206828013Y-122714285D01*
X206828013Y-122714285D02*
X206970870Y-123428570D01*
X207399442Y-121428571D02*
X207470870Y-121571428D01*
X207470870Y-121571428D02*
X207470870Y-121857142D01*
X207470870Y-121857142D02*
X207399442Y-121999999D01*
X207399442Y-121999999D02*
X207328013Y-122071428D01*
X207328013Y-122071428D02*
X207185156Y-122142856D01*
X207185156Y-122142856D02*
X206756584Y-122142856D01*
X206756584Y-122142856D02*
X206613727Y-122071428D01*
X206613727Y-122071428D02*
X206542299Y-121999999D01*
X206542299Y-121999999D02*
X206470870Y-121857142D01*
X206470870Y-121857142D02*
X206470870Y-121571428D01*
X206470870Y-121571428D02*
X206542299Y-121428571D01*
X206470870Y-120999999D02*
X206470870Y-120428571D01*
X205970870Y-120785714D02*
X207256584Y-120785714D01*
X207256584Y-120785714D02*
X207399442Y-120714285D01*
X207399442Y-120714285D02*
X207470870Y-120571428D01*
X207470870Y-120571428D02*
X207470870Y-120428571D01*
X207470870Y-119928571D02*
X206470870Y-119928571D01*
X206756584Y-119928571D02*
X206613727Y-119857142D01*
X206613727Y-119857142D02*
X206542299Y-119785714D01*
X206542299Y-119785714D02*
X206470870Y-119642856D01*
X206470870Y-119642856D02*
X206470870Y-119499999D01*
X207470870Y-118785714D02*
X207399442Y-118928571D01*
X207399442Y-118928571D02*
X207328013Y-119000000D01*
X207328013Y-119000000D02*
X207185156Y-119071428D01*
X207185156Y-119071428D02*
X206756584Y-119071428D01*
X206756584Y-119071428D02*
X206613727Y-119000000D01*
X206613727Y-119000000D02*
X206542299Y-118928571D01*
X206542299Y-118928571D02*
X206470870Y-118785714D01*
X206470870Y-118785714D02*
X206470870Y-118571428D01*
X206470870Y-118571428D02*
X206542299Y-118428571D01*
X206542299Y-118428571D02*
X206613727Y-118357143D01*
X206613727Y-118357143D02*
X206756584Y-118285714D01*
X206756584Y-118285714D02*
X207185156Y-118285714D01*
X207185156Y-118285714D02*
X207328013Y-118357143D01*
X207328013Y-118357143D02*
X207399442Y-118428571D01*
X207399442Y-118428571D02*
X207470870Y-118571428D01*
X207470870Y-118571428D02*
X207470870Y-118785714D01*
X205899442Y-118500000D02*
X206113727Y-118714285D01*
X206470870Y-117642857D02*
X207470870Y-117642857D01*
X206613727Y-117642857D02*
X206542299Y-117571428D01*
X206542299Y-117571428D02*
X206470870Y-117428571D01*
X206470870Y-117428571D02*
X206470870Y-117214285D01*
X206470870Y-117214285D02*
X206542299Y-117071428D01*
X206542299Y-117071428D02*
X206685156Y-117000000D01*
X206685156Y-117000000D02*
X207470870Y-117000000D01*
X207470870Y-116285714D02*
X206470870Y-116285714D01*
X205970870Y-116285714D02*
X206042299Y-116357142D01*
X206042299Y-116357142D02*
X206113727Y-116285714D01*
X206113727Y-116285714D02*
X206042299Y-116214285D01*
X206042299Y-116214285D02*
X205970870Y-116285714D01*
X205970870Y-116285714D02*
X206113727Y-116285714D01*
X207399442Y-114928571D02*
X207470870Y-115071428D01*
X207470870Y-115071428D02*
X207470870Y-115357142D01*
X207470870Y-115357142D02*
X207399442Y-115499999D01*
X207399442Y-115499999D02*
X207328013Y-115571428D01*
X207328013Y-115571428D02*
X207185156Y-115642856D01*
X207185156Y-115642856D02*
X206756584Y-115642856D01*
X206756584Y-115642856D02*
X206613727Y-115571428D01*
X206613727Y-115571428D02*
X206542299Y-115499999D01*
X206542299Y-115499999D02*
X206470870Y-115357142D01*
X206470870Y-115357142D02*
X206470870Y-115071428D01*
X206470870Y-115071428D02*
X206542299Y-114928571D01*
X207470870Y-113642857D02*
X206685156Y-113642857D01*
X206685156Y-113642857D02*
X206542299Y-113714285D01*
X206542299Y-113714285D02*
X206470870Y-113857142D01*
X206470870Y-113857142D02*
X206470870Y-114142857D01*
X206470870Y-114142857D02*
X206542299Y-114285714D01*
X207399442Y-113642857D02*
X207470870Y-113785714D01*
X207470870Y-113785714D02*
X207470870Y-114142857D01*
X207470870Y-114142857D02*
X207399442Y-114285714D01*
X207399442Y-114285714D02*
X207256584Y-114357142D01*
X207256584Y-114357142D02*
X207113727Y-114357142D01*
X207113727Y-114357142D02*
X206970870Y-114285714D01*
X206970870Y-114285714D02*
X206899442Y-114142857D01*
X206899442Y-114142857D02*
X206899442Y-113785714D01*
X206899442Y-113785714D02*
X206828013Y-113642857D01*
X207470870Y-111142857D02*
X205970870Y-111142857D01*
X207399442Y-111142857D02*
X207470870Y-111285714D01*
X207470870Y-111285714D02*
X207470870Y-111571428D01*
X207470870Y-111571428D02*
X207399442Y-111714285D01*
X207399442Y-111714285D02*
X207328013Y-111785714D01*
X207328013Y-111785714D02*
X207185156Y-111857142D01*
X207185156Y-111857142D02*
X206756584Y-111857142D01*
X206756584Y-111857142D02*
X206613727Y-111785714D01*
X206613727Y-111785714D02*
X206542299Y-111714285D01*
X206542299Y-111714285D02*
X206470870Y-111571428D01*
X206470870Y-111571428D02*
X206470870Y-111285714D01*
X206470870Y-111285714D02*
X206542299Y-111142857D01*
X207399442Y-109857142D02*
X207470870Y-109999999D01*
X207470870Y-109999999D02*
X207470870Y-110285714D01*
X207470870Y-110285714D02*
X207399442Y-110428571D01*
X207399442Y-110428571D02*
X207256584Y-110499999D01*
X207256584Y-110499999D02*
X206685156Y-110499999D01*
X206685156Y-110499999D02*
X206542299Y-110428571D01*
X206542299Y-110428571D02*
X206470870Y-110285714D01*
X206470870Y-110285714D02*
X206470870Y-109999999D01*
X206470870Y-109999999D02*
X206542299Y-109857142D01*
X206542299Y-109857142D02*
X206685156Y-109785714D01*
X206685156Y-109785714D02*
X206828013Y-109785714D01*
X206828013Y-109785714D02*
X206970870Y-110499999D01*
X207470870Y-108000000D02*
X205970870Y-108000000D01*
X205970870Y-108000000D02*
X205970870Y-107428571D01*
X205970870Y-107428571D02*
X206042299Y-107285714D01*
X206042299Y-107285714D02*
X206113727Y-107214285D01*
X206113727Y-107214285D02*
X206256584Y-107142857D01*
X206256584Y-107142857D02*
X206470870Y-107142857D01*
X206470870Y-107142857D02*
X206613727Y-107214285D01*
X206613727Y-107214285D02*
X206685156Y-107285714D01*
X206685156Y-107285714D02*
X206756584Y-107428571D01*
X206756584Y-107428571D02*
X206756584Y-108000000D01*
X207470870Y-106285714D02*
X207399442Y-106428571D01*
X207399442Y-106428571D02*
X207328013Y-106500000D01*
X207328013Y-106500000D02*
X207185156Y-106571428D01*
X207185156Y-106571428D02*
X206756584Y-106571428D01*
X206756584Y-106571428D02*
X206613727Y-106500000D01*
X206613727Y-106500000D02*
X206542299Y-106428571D01*
X206542299Y-106428571D02*
X206470870Y-106285714D01*
X206470870Y-106285714D02*
X206470870Y-106071428D01*
X206470870Y-106071428D02*
X206542299Y-105928571D01*
X206542299Y-105928571D02*
X206613727Y-105857143D01*
X206613727Y-105857143D02*
X206756584Y-105785714D01*
X206756584Y-105785714D02*
X207185156Y-105785714D01*
X207185156Y-105785714D02*
X207328013Y-105857143D01*
X207328013Y-105857143D02*
X207399442Y-105928571D01*
X207399442Y-105928571D02*
X207470870Y-106071428D01*
X207470870Y-106071428D02*
X207470870Y-106285714D01*
X206470870Y-105357142D02*
X206470870Y-104785714D01*
X205970870Y-105142857D02*
X207256584Y-105142857D01*
X207256584Y-105142857D02*
X207399442Y-105071428D01*
X207399442Y-105071428D02*
X207470870Y-104928571D01*
X207470870Y-104928571D02*
X207470870Y-104785714D01*
X207399442Y-103714285D02*
X207470870Y-103857142D01*
X207470870Y-103857142D02*
X207470870Y-104142857D01*
X207470870Y-104142857D02*
X207399442Y-104285714D01*
X207399442Y-104285714D02*
X207256584Y-104357142D01*
X207256584Y-104357142D02*
X206685156Y-104357142D01*
X206685156Y-104357142D02*
X206542299Y-104285714D01*
X206542299Y-104285714D02*
X206470870Y-104142857D01*
X206470870Y-104142857D02*
X206470870Y-103857142D01*
X206470870Y-103857142D02*
X206542299Y-103714285D01*
X206542299Y-103714285D02*
X206685156Y-103642857D01*
X206685156Y-103642857D02*
X206828013Y-103642857D01*
X206828013Y-103642857D02*
X206970870Y-104357142D01*
X206470870Y-103000000D02*
X207470870Y-103000000D01*
X206613727Y-103000000D02*
X206542299Y-102928571D01*
X206542299Y-102928571D02*
X206470870Y-102785714D01*
X206470870Y-102785714D02*
X206470870Y-102571428D01*
X206470870Y-102571428D02*
X206542299Y-102428571D01*
X206542299Y-102428571D02*
X206685156Y-102357143D01*
X206685156Y-102357143D02*
X207470870Y-102357143D01*
X207399442Y-101000000D02*
X207470870Y-101142857D01*
X207470870Y-101142857D02*
X207470870Y-101428571D01*
X207470870Y-101428571D02*
X207399442Y-101571428D01*
X207399442Y-101571428D02*
X207328013Y-101642857D01*
X207328013Y-101642857D02*
X207185156Y-101714285D01*
X207185156Y-101714285D02*
X206756584Y-101714285D01*
X206756584Y-101714285D02*
X206613727Y-101642857D01*
X206613727Y-101642857D02*
X206542299Y-101571428D01*
X206542299Y-101571428D02*
X206470870Y-101428571D01*
X206470870Y-101428571D02*
X206470870Y-101142857D01*
X206470870Y-101142857D02*
X206542299Y-101000000D01*
X207470870Y-100357143D02*
X206470870Y-100357143D01*
X205970870Y-100357143D02*
X206042299Y-100428571D01*
X206042299Y-100428571D02*
X206113727Y-100357143D01*
X206113727Y-100357143D02*
X206042299Y-100285714D01*
X206042299Y-100285714D02*
X205970870Y-100357143D01*
X205970870Y-100357143D02*
X206113727Y-100357143D01*
X207470870Y-99000000D02*
X206685156Y-99000000D01*
X206685156Y-99000000D02*
X206542299Y-99071428D01*
X206542299Y-99071428D02*
X206470870Y-99214285D01*
X206470870Y-99214285D02*
X206470870Y-99500000D01*
X206470870Y-99500000D02*
X206542299Y-99642857D01*
X207399442Y-99000000D02*
X207470870Y-99142857D01*
X207470870Y-99142857D02*
X207470870Y-99500000D01*
X207470870Y-99500000D02*
X207399442Y-99642857D01*
X207399442Y-99642857D02*
X207256584Y-99714285D01*
X207256584Y-99714285D02*
X207113727Y-99714285D01*
X207113727Y-99714285D02*
X206970870Y-99642857D01*
X206970870Y-99642857D02*
X206899442Y-99500000D01*
X206899442Y-99500000D02*
X206899442Y-99142857D01*
X206899442Y-99142857D02*
X206828013Y-99000000D01*
X208385786Y-127214283D02*
X208385786Y-126357141D01*
X209885786Y-126785712D02*
X208385786Y-126785712D01*
X209885786Y-125857141D02*
X208385786Y-125857141D01*
X208385786Y-125857141D02*
X208385786Y-125285712D01*
X208385786Y-125285712D02*
X208457215Y-125142855D01*
X208457215Y-125142855D02*
X208528643Y-125071426D01*
X208528643Y-125071426D02*
X208671500Y-124999998D01*
X208671500Y-124999998D02*
X208885786Y-124999998D01*
X208885786Y-124999998D02*
X209028643Y-125071426D01*
X209028643Y-125071426D02*
X209100072Y-125142855D01*
X209100072Y-125142855D02*
X209171500Y-125285712D01*
X209171500Y-125285712D02*
X209171500Y-125857141D01*
X208885786Y-123714284D02*
X209885786Y-123714284D01*
X208314358Y-124071426D02*
X209385786Y-124428569D01*
X209385786Y-124428569D02*
X209385786Y-123499998D01*
X209314358Y-121785713D02*
X209314358Y-120642856D01*
X208457215Y-117999998D02*
X208385786Y-118142856D01*
X208385786Y-118142856D02*
X208385786Y-118357141D01*
X208385786Y-118357141D02*
X208457215Y-118571427D01*
X208457215Y-118571427D02*
X208600072Y-118714284D01*
X208600072Y-118714284D02*
X208742929Y-118785713D01*
X208742929Y-118785713D02*
X209028643Y-118857141D01*
X209028643Y-118857141D02*
X209242929Y-118857141D01*
X209242929Y-118857141D02*
X209528643Y-118785713D01*
X209528643Y-118785713D02*
X209671500Y-118714284D01*
X209671500Y-118714284D02*
X209814358Y-118571427D01*
X209814358Y-118571427D02*
X209885786Y-118357141D01*
X209885786Y-118357141D02*
X209885786Y-118214284D01*
X209885786Y-118214284D02*
X209814358Y-117999998D01*
X209814358Y-117999998D02*
X209742929Y-117928570D01*
X209742929Y-117928570D02*
X209242929Y-117928570D01*
X209242929Y-117928570D02*
X209242929Y-118214284D01*
X209742929Y-117285713D02*
X209814358Y-117214284D01*
X209814358Y-117214284D02*
X209885786Y-117285713D01*
X209885786Y-117285713D02*
X209814358Y-117357141D01*
X209814358Y-117357141D02*
X209742929Y-117285713D01*
X209742929Y-117285713D02*
X209885786Y-117285713D01*
X208385786Y-116714284D02*
X208385786Y-115785712D01*
X208385786Y-115785712D02*
X208957215Y-116285712D01*
X208957215Y-116285712D02*
X208957215Y-116071427D01*
X208957215Y-116071427D02*
X209028643Y-115928570D01*
X209028643Y-115928570D02*
X209100072Y-115857141D01*
X209100072Y-115857141D02*
X209242929Y-115785712D01*
X209242929Y-115785712D02*
X209600072Y-115785712D01*
X209600072Y-115785712D02*
X209742929Y-115857141D01*
X209742929Y-115857141D02*
X209814358Y-115928570D01*
X209814358Y-115928570D02*
X209885786Y-116071427D01*
X209885786Y-116071427D02*
X209885786Y-116499998D01*
X209885786Y-116499998D02*
X209814358Y-116642855D01*
X209814358Y-116642855D02*
X209742929Y-116714284D01*
X209314358Y-113999999D02*
X209314358Y-112857142D01*
X208385786Y-110285713D02*
X208385786Y-110999999D01*
X208385786Y-110999999D02*
X209100072Y-111071427D01*
X209100072Y-111071427D02*
X209028643Y-110999999D01*
X209028643Y-110999999D02*
X208957215Y-110857142D01*
X208957215Y-110857142D02*
X208957215Y-110499999D01*
X208957215Y-110499999D02*
X209028643Y-110357142D01*
X209028643Y-110357142D02*
X209100072Y-110285713D01*
X209100072Y-110285713D02*
X209242929Y-110214284D01*
X209242929Y-110214284D02*
X209600072Y-110214284D01*
X209600072Y-110214284D02*
X209742929Y-110285713D01*
X209742929Y-110285713D02*
X209814358Y-110357142D01*
X209814358Y-110357142D02*
X209885786Y-110499999D01*
X209885786Y-110499999D02*
X209885786Y-110857142D01*
X209885786Y-110857142D02*
X209814358Y-110999999D01*
X209814358Y-110999999D02*
X209742929Y-111071427D01*
X209885786Y-108714285D02*
X209171500Y-109214285D01*
X209885786Y-109571428D02*
X208385786Y-109571428D01*
X208385786Y-109571428D02*
X208385786Y-108999999D01*
X208385786Y-108999999D02*
X208457215Y-108857142D01*
X208457215Y-108857142D02*
X208528643Y-108785713D01*
X208528643Y-108785713D02*
X208671500Y-108714285D01*
X208671500Y-108714285D02*
X208885786Y-108714285D01*
X208885786Y-108714285D02*
X209028643Y-108785713D01*
X209028643Y-108785713D02*
X209100072Y-108857142D01*
X209100072Y-108857142D02*
X209171500Y-108999999D01*
X209171500Y-108999999D02*
X209171500Y-109571428D01*
X208528643Y-108142856D02*
X208457215Y-108071428D01*
X208457215Y-108071428D02*
X208385786Y-107928571D01*
X208385786Y-107928571D02*
X208385786Y-107571428D01*
X208385786Y-107571428D02*
X208457215Y-107428571D01*
X208457215Y-107428571D02*
X208528643Y-107357142D01*
X208528643Y-107357142D02*
X208671500Y-107285713D01*
X208671500Y-107285713D02*
X208814358Y-107285713D01*
X208814358Y-107285713D02*
X209028643Y-107357142D01*
X209028643Y-107357142D02*
X209885786Y-108214285D01*
X209885786Y-108214285D02*
X209885786Y-107285713D01*
X209314358Y-105500000D02*
X209314358Y-104357143D01*
X208528643Y-102571428D02*
X208457215Y-102500000D01*
X208457215Y-102500000D02*
X208385786Y-102357143D01*
X208385786Y-102357143D02*
X208385786Y-102000000D01*
X208385786Y-102000000D02*
X208457215Y-101857143D01*
X208457215Y-101857143D02*
X208528643Y-101785714D01*
X208528643Y-101785714D02*
X208671500Y-101714285D01*
X208671500Y-101714285D02*
X208814358Y-101714285D01*
X208814358Y-101714285D02*
X209028643Y-101785714D01*
X209028643Y-101785714D02*
X209885786Y-102642857D01*
X209885786Y-102642857D02*
X209885786Y-101714285D01*
X208385786Y-100785714D02*
X208385786Y-100642857D01*
X208385786Y-100642857D02*
X208457215Y-100500000D01*
X208457215Y-100500000D02*
X208528643Y-100428572D01*
X208528643Y-100428572D02*
X208671500Y-100357143D01*
X208671500Y-100357143D02*
X208957215Y-100285714D01*
X208957215Y-100285714D02*
X209314358Y-100285714D01*
X209314358Y-100285714D02*
X209600072Y-100357143D01*
X209600072Y-100357143D02*
X209742929Y-100428572D01*
X209742929Y-100428572D02*
X209814358Y-100500000D01*
X209814358Y-100500000D02*
X209885786Y-100642857D01*
X209885786Y-100642857D02*
X209885786Y-100785714D01*
X209885786Y-100785714D02*
X209814358Y-100928572D01*
X209814358Y-100928572D02*
X209742929Y-101000000D01*
X209742929Y-101000000D02*
X209600072Y-101071429D01*
X209600072Y-101071429D02*
X209314358Y-101142857D01*
X209314358Y-101142857D02*
X208957215Y-101142857D01*
X208957215Y-101142857D02*
X208671500Y-101071429D01*
X208671500Y-101071429D02*
X208528643Y-101000000D01*
X208528643Y-101000000D02*
X208457215Y-100928572D01*
X208457215Y-100928572D02*
X208385786Y-100785714D01*
X208528643Y-99714286D02*
X208457215Y-99642858D01*
X208457215Y-99642858D02*
X208385786Y-99500001D01*
X208385786Y-99500001D02*
X208385786Y-99142858D01*
X208385786Y-99142858D02*
X208457215Y-99000001D01*
X208457215Y-99000001D02*
X208528643Y-98928572D01*
X208528643Y-98928572D02*
X208671500Y-98857143D01*
X208671500Y-98857143D02*
X208814358Y-98857143D01*
X208814358Y-98857143D02*
X209028643Y-98928572D01*
X209028643Y-98928572D02*
X209885786Y-99785715D01*
X209885786Y-99785715D02*
X209885786Y-98857143D01*
X208885786Y-97571430D02*
X209885786Y-97571430D01*
X208314358Y-97928572D02*
X209385786Y-98285715D01*
X209385786Y-98285715D02*
X209385786Y-97357144D01*
D13*
X110619047Y-133254952D02*
X110619047Y-135197809D01*
X110619047Y-135197809D02*
X110714285Y-135426381D01*
X110714285Y-135426381D02*
X110809523Y-135540667D01*
X110809523Y-135540667D02*
X110999999Y-135654952D01*
X110999999Y-135654952D02*
X111380952Y-135654952D01*
X111380952Y-135654952D02*
X111571428Y-135540667D01*
X111571428Y-135540667D02*
X111666666Y-135426381D01*
X111666666Y-135426381D02*
X111761904Y-135197809D01*
X111761904Y-135197809D02*
X111761904Y-133254952D01*
X112428571Y-133254952D02*
X113571428Y-133254952D01*
X112999999Y-135654952D02*
X112999999Y-133254952D01*
X114238095Y-135654952D02*
X114238095Y-133254952D01*
X114238095Y-133254952D02*
X115380952Y-135654952D01*
X115380952Y-135654952D02*
X115380952Y-133254952D01*
X111285714Y-138261675D02*
X110619047Y-138261675D01*
X110619047Y-139518818D02*
X110619047Y-137118818D01*
X110619047Y-137118818D02*
X111571428Y-137118818D01*
X113476190Y-139518818D02*
X112809523Y-138375961D01*
X112333333Y-139518818D02*
X112333333Y-137118818D01*
X112333333Y-137118818D02*
X113095238Y-137118818D01*
X113095238Y-137118818D02*
X113285714Y-137233104D01*
X113285714Y-137233104D02*
X113380952Y-137347390D01*
X113380952Y-137347390D02*
X113476190Y-137575961D01*
X113476190Y-137575961D02*
X113476190Y-137918818D01*
X113476190Y-137918818D02*
X113380952Y-138147390D01*
X113380952Y-138147390D02*
X113285714Y-138261675D01*
X113285714Y-138261675D02*
X113095238Y-138375961D01*
X113095238Y-138375961D02*
X112333333Y-138375961D01*
X115476190Y-139290247D02*
X115380952Y-139404533D01*
X115380952Y-139404533D02*
X115095238Y-139518818D01*
X115095238Y-139518818D02*
X114904762Y-139518818D01*
X114904762Y-139518818D02*
X114619047Y-139404533D01*
X114619047Y-139404533D02*
X114428571Y-139175961D01*
X114428571Y-139175961D02*
X114333333Y-138947390D01*
X114333333Y-138947390D02*
X114238095Y-138490247D01*
X114238095Y-138490247D02*
X114238095Y-138147390D01*
X114238095Y-138147390D02*
X114333333Y-137690247D01*
X114333333Y-137690247D02*
X114428571Y-137461675D01*
X114428571Y-137461675D02*
X114619047Y-137233104D01*
X114619047Y-137233104D02*
X114904762Y-137118818D01*
X114904762Y-137118818D02*
X115095238Y-137118818D01*
X115095238Y-137118818D02*
X115380952Y-137233104D01*
X115380952Y-137233104D02*
X115476190Y-137347390D01*
D12*
X186418796Y-128735471D02*
X186361653Y-128806900D01*
X186361653Y-128806900D02*
X186190225Y-128878328D01*
X186190225Y-128878328D02*
X186075939Y-128878328D01*
X186075939Y-128878328D02*
X185904510Y-128806900D01*
X185904510Y-128806900D02*
X185790225Y-128664042D01*
X185790225Y-128664042D02*
X185733082Y-128521185D01*
X185733082Y-128521185D02*
X185675939Y-128235471D01*
X185675939Y-128235471D02*
X185675939Y-128021185D01*
X185675939Y-128021185D02*
X185733082Y-127735471D01*
X185733082Y-127735471D02*
X185790225Y-127592614D01*
X185790225Y-127592614D02*
X185904510Y-127449757D01*
X185904510Y-127449757D02*
X186075939Y-127378328D01*
X186075939Y-127378328D02*
X186190225Y-127378328D01*
X186190225Y-127378328D02*
X186361653Y-127449757D01*
X186361653Y-127449757D02*
X186418796Y-127521185D01*
X187447368Y-127878328D02*
X187447368Y-128878328D01*
X186933082Y-127878328D02*
X186933082Y-128664042D01*
X186933082Y-128664042D02*
X186990225Y-128806900D01*
X186990225Y-128806900D02*
X187104510Y-128878328D01*
X187104510Y-128878328D02*
X187275939Y-128878328D01*
X187275939Y-128878328D02*
X187390225Y-128806900D01*
X187390225Y-128806900D02*
X187447368Y-128735471D01*
X188018796Y-128878328D02*
X188018796Y-127878328D01*
X188018796Y-128164042D02*
X188075939Y-128021185D01*
X188075939Y-128021185D02*
X188133082Y-127949757D01*
X188133082Y-127949757D02*
X188247367Y-127878328D01*
X188247367Y-127878328D02*
X188361653Y-127878328D01*
X188761653Y-128878328D02*
X188761653Y-127878328D01*
X188761653Y-128164042D02*
X188818796Y-128021185D01*
X188818796Y-128021185D02*
X188875939Y-127949757D01*
X188875939Y-127949757D02*
X188990224Y-127878328D01*
X188990224Y-127878328D02*
X189104510Y-127878328D01*
X189961653Y-128806900D02*
X189847367Y-128878328D01*
X189847367Y-128878328D02*
X189618796Y-128878328D01*
X189618796Y-128878328D02*
X189504510Y-128806900D01*
X189504510Y-128806900D02*
X189447367Y-128664042D01*
X189447367Y-128664042D02*
X189447367Y-128092614D01*
X189447367Y-128092614D02*
X189504510Y-127949757D01*
X189504510Y-127949757D02*
X189618796Y-127878328D01*
X189618796Y-127878328D02*
X189847367Y-127878328D01*
X189847367Y-127878328D02*
X189961653Y-127949757D01*
X189961653Y-127949757D02*
X190018796Y-128092614D01*
X190018796Y-128092614D02*
X190018796Y-128235471D01*
X190018796Y-128235471D02*
X189447367Y-128378328D01*
X190533081Y-127878328D02*
X190533081Y-128878328D01*
X190533081Y-128021185D02*
X190590224Y-127949757D01*
X190590224Y-127949757D02*
X190704509Y-127878328D01*
X190704509Y-127878328D02*
X190875938Y-127878328D01*
X190875938Y-127878328D02*
X190990224Y-127949757D01*
X190990224Y-127949757D02*
X191047367Y-128092614D01*
X191047367Y-128092614D02*
X191047367Y-128878328D01*
X191447366Y-127878328D02*
X191904509Y-127878328D01*
X191618795Y-127378328D02*
X191618795Y-128664042D01*
X191618795Y-128664042D02*
X191675938Y-128806900D01*
X191675938Y-128806900D02*
X191790223Y-128878328D01*
X191790223Y-128878328D02*
X191904509Y-128878328D01*
X193218795Y-128878328D02*
X193218795Y-127378328D01*
X193218795Y-127378328D02*
X193675938Y-127378328D01*
X193675938Y-127378328D02*
X193790223Y-127449757D01*
X193790223Y-127449757D02*
X193847366Y-127521185D01*
X193847366Y-127521185D02*
X193904509Y-127664042D01*
X193904509Y-127664042D02*
X193904509Y-127878328D01*
X193904509Y-127878328D02*
X193847366Y-128021185D01*
X193847366Y-128021185D02*
X193790223Y-128092614D01*
X193790223Y-128092614D02*
X193675938Y-128164042D01*
X193675938Y-128164042D02*
X193218795Y-128164042D01*
X194418795Y-128878328D02*
X194418795Y-127878328D01*
X194418795Y-128164042D02*
X194475938Y-128021185D01*
X194475938Y-128021185D02*
X194533081Y-127949757D01*
X194533081Y-127949757D02*
X194647366Y-127878328D01*
X194647366Y-127878328D02*
X194761652Y-127878328D01*
X195333080Y-128878328D02*
X195218795Y-128806900D01*
X195218795Y-128806900D02*
X195161652Y-128735471D01*
X195161652Y-128735471D02*
X195104509Y-128592614D01*
X195104509Y-128592614D02*
X195104509Y-128164042D01*
X195104509Y-128164042D02*
X195161652Y-128021185D01*
X195161652Y-128021185D02*
X195218795Y-127949757D01*
X195218795Y-127949757D02*
X195333080Y-127878328D01*
X195333080Y-127878328D02*
X195504509Y-127878328D01*
X195504509Y-127878328D02*
X195618795Y-127949757D01*
X195618795Y-127949757D02*
X195675938Y-128021185D01*
X195675938Y-128021185D02*
X195733080Y-128164042D01*
X195733080Y-128164042D02*
X195733080Y-128592614D01*
X195733080Y-128592614D02*
X195675938Y-128735471D01*
X195675938Y-128735471D02*
X195618795Y-128806900D01*
X195618795Y-128806900D02*
X195504509Y-128878328D01*
X195504509Y-128878328D02*
X195333080Y-128878328D01*
X196075937Y-127878328D02*
X196533080Y-127878328D01*
X196247366Y-127378328D02*
X196247366Y-128664042D01*
X196247366Y-128664042D02*
X196304509Y-128806900D01*
X196304509Y-128806900D02*
X196418794Y-128878328D01*
X196418794Y-128878328D02*
X196533080Y-128878328D01*
X196933080Y-128735471D02*
X196990223Y-128806900D01*
X196990223Y-128806900D02*
X196933080Y-128878328D01*
X196933080Y-128878328D02*
X196875937Y-128806900D01*
X196875937Y-128806900D02*
X196933080Y-128735471D01*
X196933080Y-128735471D02*
X196933080Y-128878328D01*
X175371428Y-138778328D02*
X175657142Y-138778328D01*
X175657142Y-138778328D02*
X175799999Y-138849757D01*
X175799999Y-138849757D02*
X175942856Y-138992614D01*
X175942856Y-138992614D02*
X176014285Y-139278328D01*
X176014285Y-139278328D02*
X176014285Y-139778328D01*
X176014285Y-139778328D02*
X175942856Y-140064042D01*
X175942856Y-140064042D02*
X175799999Y-140206900D01*
X175799999Y-140206900D02*
X175657142Y-140278328D01*
X175657142Y-140278328D02*
X175371428Y-140278328D01*
X175371428Y-140278328D02*
X175228571Y-140206900D01*
X175228571Y-140206900D02*
X175085713Y-140064042D01*
X175085713Y-140064042D02*
X175014285Y-139778328D01*
X175014285Y-139778328D02*
X175014285Y-139278328D01*
X175014285Y-139278328D02*
X175085713Y-138992614D01*
X175085713Y-138992614D02*
X175228571Y-138849757D01*
X175228571Y-138849757D02*
X175371428Y-138778328D01*
X176657142Y-140278328D02*
X176657142Y-138778328D01*
X176657142Y-138778328D02*
X177514285Y-140278328D01*
X177514285Y-140278328D02*
X177514285Y-138778328D01*
X178228571Y-139706900D02*
X179371429Y-139706900D01*
X180371429Y-138778328D02*
X180657143Y-138778328D01*
X180657143Y-138778328D02*
X180800000Y-138849757D01*
X180800000Y-138849757D02*
X180942857Y-138992614D01*
X180942857Y-138992614D02*
X181014286Y-139278328D01*
X181014286Y-139278328D02*
X181014286Y-139778328D01*
X181014286Y-139778328D02*
X180942857Y-140064042D01*
X180942857Y-140064042D02*
X180800000Y-140206900D01*
X180800000Y-140206900D02*
X180657143Y-140278328D01*
X180657143Y-140278328D02*
X180371429Y-140278328D01*
X180371429Y-140278328D02*
X180228572Y-140206900D01*
X180228572Y-140206900D02*
X180085714Y-140064042D01*
X180085714Y-140064042D02*
X180014286Y-139778328D01*
X180014286Y-139778328D02*
X180014286Y-139278328D01*
X180014286Y-139278328D02*
X180085714Y-138992614D01*
X180085714Y-138992614D02*
X180228572Y-138849757D01*
X180228572Y-138849757D02*
X180371429Y-138778328D01*
X182157143Y-139492614D02*
X181657143Y-139492614D01*
X181657143Y-140278328D02*
X181657143Y-138778328D01*
X181657143Y-138778328D02*
X182371429Y-138778328D01*
X183442857Y-139492614D02*
X182942857Y-139492614D01*
X182942857Y-140278328D02*
X182942857Y-138778328D01*
X182942857Y-138778328D02*
X183657143Y-138778328D01*
X210254234Y-87110857D02*
X210254234Y-84825143D01*
X210254234Y-81110857D02*
X210254234Y-78825143D01*
X211587567Y-79968000D02*
X208920901Y-79968000D01*
X167111653Y-124657971D02*
X167040225Y-124729400D01*
X167040225Y-124729400D02*
X166825939Y-124800828D01*
X166825939Y-124800828D02*
X166683082Y-124800828D01*
X166683082Y-124800828D02*
X166468796Y-124729400D01*
X166468796Y-124729400D02*
X166325939Y-124586542D01*
X166325939Y-124586542D02*
X166254510Y-124443685D01*
X166254510Y-124443685D02*
X166183082Y-124157971D01*
X166183082Y-124157971D02*
X166183082Y-123943685D01*
X166183082Y-123943685D02*
X166254510Y-123657971D01*
X166254510Y-123657971D02*
X166325939Y-123515114D01*
X166325939Y-123515114D02*
X166468796Y-123372257D01*
X166468796Y-123372257D02*
X166683082Y-123300828D01*
X166683082Y-123300828D02*
X166825939Y-123300828D01*
X166825939Y-123300828D02*
X167040225Y-123372257D01*
X167040225Y-123372257D02*
X167111653Y-123443685D01*
X168468796Y-124800828D02*
X167754510Y-124800828D01*
X167754510Y-124800828D02*
X167754510Y-123300828D01*
X175278328Y-76888346D02*
X176778328Y-76488346D01*
X176778328Y-76488346D02*
X175278328Y-76088346D01*
X176778328Y-75516918D02*
X176706900Y-75631203D01*
X176706900Y-75631203D02*
X176635471Y-75688346D01*
X176635471Y-75688346D02*
X176492614Y-75745489D01*
X176492614Y-75745489D02*
X176064042Y-75745489D01*
X176064042Y-75745489D02*
X175921185Y-75688346D01*
X175921185Y-75688346D02*
X175849757Y-75631203D01*
X175849757Y-75631203D02*
X175778328Y-75516918D01*
X175778328Y-75516918D02*
X175778328Y-75345489D01*
X175778328Y-75345489D02*
X175849757Y-75231203D01*
X175849757Y-75231203D02*
X175921185Y-75174061D01*
X175921185Y-75174061D02*
X176064042Y-75116918D01*
X176064042Y-75116918D02*
X176492614Y-75116918D01*
X176492614Y-75116918D02*
X176635471Y-75174061D01*
X176635471Y-75174061D02*
X176706900Y-75231203D01*
X176706900Y-75231203D02*
X176778328Y-75345489D01*
X176778328Y-75345489D02*
X176778328Y-75516918D01*
X176778328Y-74431204D02*
X176706900Y-74545489D01*
X176706900Y-74545489D02*
X176564042Y-74602632D01*
X176564042Y-74602632D02*
X175278328Y-74602632D01*
X175778328Y-74145490D02*
X175778328Y-73688347D01*
X175278328Y-73974061D02*
X176564042Y-73974061D01*
X176564042Y-73974061D02*
X176706900Y-73916918D01*
X176706900Y-73916918D02*
X176778328Y-73802633D01*
X176778328Y-73802633D02*
X176778328Y-73688347D01*
X176778328Y-72774062D02*
X175992614Y-72774062D01*
X175992614Y-72774062D02*
X175849757Y-72831204D01*
X175849757Y-72831204D02*
X175778328Y-72945490D01*
X175778328Y-72945490D02*
X175778328Y-73174062D01*
X175778328Y-73174062D02*
X175849757Y-73288347D01*
X176706900Y-72774062D02*
X176778328Y-72888347D01*
X176778328Y-72888347D02*
X176778328Y-73174062D01*
X176778328Y-73174062D02*
X176706900Y-73288347D01*
X176706900Y-73288347D02*
X176564042Y-73345490D01*
X176564042Y-73345490D02*
X176421185Y-73345490D01*
X176421185Y-73345490D02*
X176278328Y-73288347D01*
X176278328Y-73288347D02*
X176206900Y-73174062D01*
X176206900Y-73174062D02*
X176206900Y-72888347D01*
X176206900Y-72888347D02*
X176135471Y-72774062D01*
X175778328Y-71688348D02*
X176992614Y-71688348D01*
X176992614Y-71688348D02*
X177135471Y-71745490D01*
X177135471Y-71745490D02*
X177206900Y-71802633D01*
X177206900Y-71802633D02*
X177278328Y-71916919D01*
X177278328Y-71916919D02*
X177278328Y-72088348D01*
X177278328Y-72088348D02*
X177206900Y-72202633D01*
X176706900Y-71688348D02*
X176778328Y-71802633D01*
X176778328Y-71802633D02*
X176778328Y-72031205D01*
X176778328Y-72031205D02*
X176706900Y-72145490D01*
X176706900Y-72145490D02*
X176635471Y-72202633D01*
X176635471Y-72202633D02*
X176492614Y-72259776D01*
X176492614Y-72259776D02*
X176064042Y-72259776D01*
X176064042Y-72259776D02*
X175921185Y-72202633D01*
X175921185Y-72202633D02*
X175849757Y-72145490D01*
X175849757Y-72145490D02*
X175778328Y-72031205D01*
X175778328Y-72031205D02*
X175778328Y-71802633D01*
X175778328Y-71802633D02*
X175849757Y-71688348D01*
X176706900Y-70659776D02*
X176778328Y-70774062D01*
X176778328Y-70774062D02*
X176778328Y-71002634D01*
X176778328Y-71002634D02*
X176706900Y-71116919D01*
X176706900Y-71116919D02*
X176564042Y-71174062D01*
X176564042Y-71174062D02*
X175992614Y-71174062D01*
X175992614Y-71174062D02*
X175849757Y-71116919D01*
X175849757Y-71116919D02*
X175778328Y-71002634D01*
X175778328Y-71002634D02*
X175778328Y-70774062D01*
X175778328Y-70774062D02*
X175849757Y-70659776D01*
X175849757Y-70659776D02*
X175992614Y-70602634D01*
X175992614Y-70602634D02*
X176135471Y-70602634D01*
X176135471Y-70602634D02*
X176278328Y-71174062D01*
X176778328Y-68602634D02*
X176778328Y-69174062D01*
X176778328Y-69174062D02*
X175278328Y-69174062D01*
X176778328Y-68202633D02*
X175778328Y-68202633D01*
X175278328Y-68202633D02*
X175349757Y-68259776D01*
X175349757Y-68259776D02*
X175421185Y-68202633D01*
X175421185Y-68202633D02*
X175349757Y-68145490D01*
X175349757Y-68145490D02*
X175278328Y-68202633D01*
X175278328Y-68202633D02*
X175421185Y-68202633D01*
X176778328Y-67631204D02*
X175778328Y-67631204D01*
X175921185Y-67631204D02*
X175849757Y-67574061D01*
X175849757Y-67574061D02*
X175778328Y-67459776D01*
X175778328Y-67459776D02*
X175778328Y-67288347D01*
X175778328Y-67288347D02*
X175849757Y-67174061D01*
X175849757Y-67174061D02*
X175992614Y-67116919D01*
X175992614Y-67116919D02*
X176778328Y-67116919D01*
X175992614Y-67116919D02*
X175849757Y-67059776D01*
X175849757Y-67059776D02*
X175778328Y-66945490D01*
X175778328Y-66945490D02*
X175778328Y-66774061D01*
X175778328Y-66774061D02*
X175849757Y-66659776D01*
X175849757Y-66659776D02*
X175992614Y-66602633D01*
X175992614Y-66602633D02*
X176778328Y-66602633D01*
X176778328Y-66031204D02*
X175778328Y-66031204D01*
X175278328Y-66031204D02*
X175349757Y-66088347D01*
X175349757Y-66088347D02*
X175421185Y-66031204D01*
X175421185Y-66031204D02*
X175349757Y-65974061D01*
X175349757Y-65974061D02*
X175278328Y-66031204D01*
X175278328Y-66031204D02*
X175421185Y-66031204D01*
X175778328Y-65631204D02*
X175778328Y-65174061D01*
X175278328Y-65459775D02*
X176564042Y-65459775D01*
X176564042Y-65459775D02*
X176706900Y-65402632D01*
X176706900Y-65402632D02*
X176778328Y-65288347D01*
X176778328Y-65288347D02*
X176778328Y-65174061D01*
X176706900Y-64316918D02*
X176778328Y-64431204D01*
X176778328Y-64431204D02*
X176778328Y-64659776D01*
X176778328Y-64659776D02*
X176706900Y-64774061D01*
X176706900Y-64774061D02*
X176564042Y-64831204D01*
X176564042Y-64831204D02*
X175992614Y-64831204D01*
X175992614Y-64831204D02*
X175849757Y-64774061D01*
X175849757Y-64774061D02*
X175778328Y-64659776D01*
X175778328Y-64659776D02*
X175778328Y-64431204D01*
X175778328Y-64431204D02*
X175849757Y-64316918D01*
X175849757Y-64316918D02*
X175992614Y-64259776D01*
X175992614Y-64259776D02*
X176135471Y-64259776D01*
X176135471Y-64259776D02*
X176278328Y-64831204D01*
X176778328Y-63745490D02*
X175778328Y-63745490D01*
X176064042Y-63745490D02*
X175921185Y-63688347D01*
X175921185Y-63688347D02*
X175849757Y-63631205D01*
X175849757Y-63631205D02*
X175778328Y-63516919D01*
X175778328Y-63516919D02*
X175778328Y-63402633D01*
X196916001Y-31766898D02*
X197830287Y-31766898D01*
X197373144Y-32338326D02*
X197373144Y-31195469D01*
X198230286Y-30838326D02*
X198630286Y-32338326D01*
X198630286Y-32338326D02*
X199030286Y-30838326D01*
X199601714Y-32338326D02*
X199487429Y-32266898D01*
X199487429Y-32266898D02*
X199430286Y-32195469D01*
X199430286Y-32195469D02*
X199373143Y-32052612D01*
X199373143Y-32052612D02*
X199373143Y-31624040D01*
X199373143Y-31624040D02*
X199430286Y-31481183D01*
X199430286Y-31481183D02*
X199487429Y-31409755D01*
X199487429Y-31409755D02*
X199601714Y-31338326D01*
X199601714Y-31338326D02*
X199773143Y-31338326D01*
X199773143Y-31338326D02*
X199887429Y-31409755D01*
X199887429Y-31409755D02*
X199944572Y-31481183D01*
X199944572Y-31481183D02*
X200001714Y-31624040D01*
X200001714Y-31624040D02*
X200001714Y-32052612D01*
X200001714Y-32052612D02*
X199944572Y-32195469D01*
X199944572Y-32195469D02*
X199887429Y-32266898D01*
X199887429Y-32266898D02*
X199773143Y-32338326D01*
X199773143Y-32338326D02*
X199601714Y-32338326D01*
X201030286Y-31338326D02*
X201030286Y-32338326D01*
X200516000Y-31338326D02*
X200516000Y-32124040D01*
X200516000Y-32124040D02*
X200573143Y-32266898D01*
X200573143Y-32266898D02*
X200687428Y-32338326D01*
X200687428Y-32338326D02*
X200858857Y-32338326D01*
X200858857Y-32338326D02*
X200973143Y-32266898D01*
X200973143Y-32266898D02*
X201030286Y-32195469D01*
X201430285Y-31338326D02*
X201887428Y-31338326D01*
X201601714Y-30838326D02*
X201601714Y-32124040D01*
X201601714Y-32124040D02*
X201658857Y-32266898D01*
X201658857Y-32266898D02*
X201773142Y-32338326D01*
X201773142Y-32338326D02*
X201887428Y-32338326D01*
X187214285Y-83178328D02*
X187614285Y-84678328D01*
X187614285Y-84678328D02*
X188014285Y-83178328D01*
X188985713Y-84678328D02*
X188414285Y-84678328D01*
X188414285Y-84678328D02*
X188414285Y-83178328D01*
X166440225Y-138700828D02*
X167297368Y-138700828D01*
X166868796Y-140200828D02*
X166868796Y-138700828D01*
X168511653Y-140200828D02*
X167797367Y-140200828D01*
X167797367Y-140200828D02*
X167797367Y-138700828D01*
X83621671Y-114264285D02*
X83621671Y-113549999D01*
X83621671Y-113549999D02*
X85121671Y-113549999D01*
D14*
X86917619Y-87014734D02*
X89630000Y-87014734D01*
X88273809Y-88370924D02*
X88273809Y-85658543D01*
X93529047Y-87014734D02*
X93698571Y-86845210D01*
X93698571Y-86845210D02*
X94037619Y-86675686D01*
X94037619Y-86675686D02*
X94715714Y-87014734D01*
X94715714Y-87014734D02*
X95054761Y-86845210D01*
X95054761Y-86845210D02*
X95224285Y-86675686D01*
X98784285Y-87014734D02*
X98953809Y-86845210D01*
X98953809Y-86845210D02*
X99292857Y-86675686D01*
X99292857Y-86675686D02*
X99970952Y-87014734D01*
X99970952Y-87014734D02*
X100309999Y-86845210D01*
X100309999Y-86845210D02*
X100479523Y-86675686D01*
X104548095Y-88370924D02*
X104548095Y-84810924D01*
X104548095Y-84810924D02*
X106582380Y-88370924D01*
X106582380Y-88370924D02*
X106582380Y-84810924D01*
D12*
X185561653Y-134978328D02*
X186247368Y-134978328D01*
X185904510Y-136478328D02*
X185904510Y-134978328D01*
X186647368Y-136478328D02*
X186647368Y-134978328D01*
X187161654Y-136478328D02*
X187161654Y-135692614D01*
X187161654Y-135692614D02*
X187104511Y-135549757D01*
X187104511Y-135549757D02*
X186990225Y-135478328D01*
X186990225Y-135478328D02*
X186818796Y-135478328D01*
X186818796Y-135478328D02*
X186704511Y-135549757D01*
X186704511Y-135549757D02*
X186647368Y-135621185D01*
X188190225Y-136406900D02*
X188075939Y-136478328D01*
X188075939Y-136478328D02*
X187847368Y-136478328D01*
X187847368Y-136478328D02*
X187733082Y-136406900D01*
X187733082Y-136406900D02*
X187675939Y-136264042D01*
X187675939Y-136264042D02*
X187675939Y-135692614D01*
X187675939Y-135692614D02*
X187733082Y-135549757D01*
X187733082Y-135549757D02*
X187847368Y-135478328D01*
X187847368Y-135478328D02*
X188075939Y-135478328D01*
X188075939Y-135478328D02*
X188190225Y-135549757D01*
X188190225Y-135549757D02*
X188247368Y-135692614D01*
X188247368Y-135692614D02*
X188247368Y-135835471D01*
X188247368Y-135835471D02*
X187675939Y-135978328D01*
X188761653Y-136478328D02*
X188761653Y-135478328D01*
X188761653Y-135764042D02*
X188818796Y-135621185D01*
X188818796Y-135621185D02*
X188875939Y-135549757D01*
X188875939Y-135549757D02*
X188990224Y-135478328D01*
X188990224Y-135478328D02*
X189104510Y-135478328D01*
X189504510Y-136478328D02*
X189504510Y-135478328D01*
X189504510Y-135621185D02*
X189561653Y-135549757D01*
X189561653Y-135549757D02*
X189675938Y-135478328D01*
X189675938Y-135478328D02*
X189847367Y-135478328D01*
X189847367Y-135478328D02*
X189961653Y-135549757D01*
X189961653Y-135549757D02*
X190018796Y-135692614D01*
X190018796Y-135692614D02*
X190018796Y-136478328D01*
X190018796Y-135692614D02*
X190075938Y-135549757D01*
X190075938Y-135549757D02*
X190190224Y-135478328D01*
X190190224Y-135478328D02*
X190361653Y-135478328D01*
X190361653Y-135478328D02*
X190475938Y-135549757D01*
X190475938Y-135549757D02*
X190533081Y-135692614D01*
X190533081Y-135692614D02*
X190533081Y-136478328D01*
X191618796Y-136478328D02*
X191618796Y-135692614D01*
X191618796Y-135692614D02*
X191561653Y-135549757D01*
X191561653Y-135549757D02*
X191447367Y-135478328D01*
X191447367Y-135478328D02*
X191218796Y-135478328D01*
X191218796Y-135478328D02*
X191104510Y-135549757D01*
X191618796Y-136406900D02*
X191504510Y-136478328D01*
X191504510Y-136478328D02*
X191218796Y-136478328D01*
X191218796Y-136478328D02*
X191104510Y-136406900D01*
X191104510Y-136406900D02*
X191047367Y-136264042D01*
X191047367Y-136264042D02*
X191047367Y-136121185D01*
X191047367Y-136121185D02*
X191104510Y-135978328D01*
X191104510Y-135978328D02*
X191218796Y-135906900D01*
X191218796Y-135906900D02*
X191504510Y-135906900D01*
X191504510Y-135906900D02*
X191618796Y-135835471D01*
X192361652Y-136478328D02*
X192247367Y-136406900D01*
X192247367Y-136406900D02*
X192190224Y-136264042D01*
X192190224Y-136264042D02*
X192190224Y-134978328D01*
X193733081Y-136478328D02*
X193733081Y-134978328D01*
X193733081Y-134978328D02*
X194190224Y-134978328D01*
X194190224Y-134978328D02*
X194304509Y-135049757D01*
X194304509Y-135049757D02*
X194361652Y-135121185D01*
X194361652Y-135121185D02*
X194418795Y-135264042D01*
X194418795Y-135264042D02*
X194418795Y-135478328D01*
X194418795Y-135478328D02*
X194361652Y-135621185D01*
X194361652Y-135621185D02*
X194304509Y-135692614D01*
X194304509Y-135692614D02*
X194190224Y-135764042D01*
X194190224Y-135764042D02*
X193733081Y-135764042D01*
X194933081Y-136478328D02*
X194933081Y-135478328D01*
X194933081Y-135764042D02*
X194990224Y-135621185D01*
X194990224Y-135621185D02*
X195047367Y-135549757D01*
X195047367Y-135549757D02*
X195161652Y-135478328D01*
X195161652Y-135478328D02*
X195275938Y-135478328D01*
X195847366Y-136478328D02*
X195733081Y-136406900D01*
X195733081Y-136406900D02*
X195675938Y-136335471D01*
X195675938Y-136335471D02*
X195618795Y-136192614D01*
X195618795Y-136192614D02*
X195618795Y-135764042D01*
X195618795Y-135764042D02*
X195675938Y-135621185D01*
X195675938Y-135621185D02*
X195733081Y-135549757D01*
X195733081Y-135549757D02*
X195847366Y-135478328D01*
X195847366Y-135478328D02*
X196018795Y-135478328D01*
X196018795Y-135478328D02*
X196133081Y-135549757D01*
X196133081Y-135549757D02*
X196190224Y-135621185D01*
X196190224Y-135621185D02*
X196247366Y-135764042D01*
X196247366Y-135764042D02*
X196247366Y-136192614D01*
X196247366Y-136192614D02*
X196190224Y-136335471D01*
X196190224Y-136335471D02*
X196133081Y-136406900D01*
X196133081Y-136406900D02*
X196018795Y-136478328D01*
X196018795Y-136478328D02*
X195847366Y-136478328D01*
X196590223Y-135478328D02*
X197047366Y-135478328D01*
X196761652Y-134978328D02*
X196761652Y-136264042D01*
X196761652Y-136264042D02*
X196818795Y-136406900D01*
X196818795Y-136406900D02*
X196933080Y-136478328D01*
X196933080Y-136478328D02*
X197047366Y-136478328D01*
X197447366Y-136335471D02*
X197504509Y-136406900D01*
X197504509Y-136406900D02*
X197447366Y-136478328D01*
X197447366Y-136478328D02*
X197390223Y-136406900D01*
X197390223Y-136406900D02*
X197447366Y-136335471D01*
X197447366Y-136335471D02*
X197447366Y-136478328D01*
X118785715Y-122106900D02*
X119700001Y-122106900D01*
X119242858Y-122678328D02*
X119242858Y-121535471D01*
X120900000Y-122678328D02*
X120214286Y-122678328D01*
X120557143Y-122678328D02*
X120557143Y-121178328D01*
X120557143Y-121178328D02*
X120442857Y-121392614D01*
X120442857Y-121392614D02*
X120328572Y-121535471D01*
X120328572Y-121535471D02*
X120214286Y-121606900D01*
X121357143Y-121321185D02*
X121414286Y-121249757D01*
X121414286Y-121249757D02*
X121528572Y-121178328D01*
X121528572Y-121178328D02*
X121814286Y-121178328D01*
X121814286Y-121178328D02*
X121928572Y-121249757D01*
X121928572Y-121249757D02*
X121985714Y-121321185D01*
X121985714Y-121321185D02*
X122042857Y-121464042D01*
X122042857Y-121464042D02*
X122042857Y-121606900D01*
X122042857Y-121606900D02*
X121985714Y-121821185D01*
X121985714Y-121821185D02*
X121300000Y-122678328D01*
X121300000Y-122678328D02*
X122042857Y-122678328D01*
X122385714Y-121178328D02*
X122785714Y-122678328D01*
X122785714Y-122678328D02*
X123185714Y-121178328D01*
X124868796Y-137535471D02*
X124811653Y-137606900D01*
X124811653Y-137606900D02*
X124640225Y-137678328D01*
X124640225Y-137678328D02*
X124525939Y-137678328D01*
X124525939Y-137678328D02*
X124354510Y-137606900D01*
X124354510Y-137606900D02*
X124240225Y-137464042D01*
X124240225Y-137464042D02*
X124183082Y-137321185D01*
X124183082Y-137321185D02*
X124125939Y-137035471D01*
X124125939Y-137035471D02*
X124125939Y-136821185D01*
X124125939Y-136821185D02*
X124183082Y-136535471D01*
X124183082Y-136535471D02*
X124240225Y-136392614D01*
X124240225Y-136392614D02*
X124354510Y-136249757D01*
X124354510Y-136249757D02*
X124525939Y-136178328D01*
X124525939Y-136178328D02*
X124640225Y-136178328D01*
X124640225Y-136178328D02*
X124811653Y-136249757D01*
X124811653Y-136249757D02*
X124868796Y-136321185D01*
X125325939Y-137606900D02*
X125440225Y-137678328D01*
X125440225Y-137678328D02*
X125668796Y-137678328D01*
X125668796Y-137678328D02*
X125783082Y-137606900D01*
X125783082Y-137606900D02*
X125840225Y-137464042D01*
X125840225Y-137464042D02*
X125840225Y-137392614D01*
X125840225Y-137392614D02*
X125783082Y-137249757D01*
X125783082Y-137249757D02*
X125668796Y-137178328D01*
X125668796Y-137178328D02*
X125497368Y-137178328D01*
X125497368Y-137178328D02*
X125383082Y-137106900D01*
X125383082Y-137106900D02*
X125325939Y-136964042D01*
X125325939Y-136964042D02*
X125325939Y-136892614D01*
X125325939Y-136892614D02*
X125383082Y-136749757D01*
X125383082Y-136749757D02*
X125497368Y-136678328D01*
X125497368Y-136678328D02*
X125668796Y-136678328D01*
X125668796Y-136678328D02*
X125783082Y-136749757D01*
D15*
X142935000Y-126740000D02*
X142935000Y-137240000D01*
X142935000Y-137240000D02*
X160955000Y-137240000D01*
X142995000Y-129740000D02*
X142995000Y-134240000D01*
X142995000Y-134240000D02*
X160895000Y-134240000D01*
X160895000Y-129740000D02*
X142995000Y-129740000D01*
X160895000Y-130990000D02*
X160895000Y-129740000D01*
X160895000Y-134240000D02*
X160895000Y-132990000D01*
X160955000Y-126740000D02*
X142935000Y-126740000D01*
X160955000Y-137240000D02*
X160955000Y-126740000D01*
X160895000Y-132990000D02*
G75*
G02*
X160895000Y-130990000I0J1000000D01*
G01*
X203503380Y-70460999D02*
X204133380Y-70460999D01*
X203818380Y-70145999D02*
X203818380Y-70775999D01*
X207003621Y-69069999D02*
X207003621Y-75529999D01*
X207043621Y-69069999D02*
X207043621Y-75529999D01*
X207083621Y-69069999D02*
X207083621Y-75529999D01*
X207123621Y-69071999D02*
X207123621Y-75527999D01*
X207163621Y-69072999D02*
X207163621Y-75526999D01*
X207203621Y-69075999D02*
X207203621Y-75523999D01*
X207243621Y-69077999D02*
X207243621Y-71259999D01*
X207243621Y-73339999D02*
X207243621Y-75521999D01*
X207283621Y-69081999D02*
X207283621Y-71259999D01*
X207283621Y-73339999D02*
X207283621Y-75517999D01*
X207323621Y-69084999D02*
X207323621Y-71259999D01*
X207323621Y-73339999D02*
X207323621Y-75514999D01*
X207363621Y-69088999D02*
X207363621Y-71259999D01*
X207363621Y-73339999D02*
X207363621Y-75510999D01*
X207403621Y-69093999D02*
X207403621Y-71259999D01*
X207403621Y-73339999D02*
X207403621Y-75505999D01*
X207443621Y-69098999D02*
X207443621Y-71259999D01*
X207443621Y-73339999D02*
X207443621Y-75500999D01*
X207483621Y-69104999D02*
X207483621Y-71259999D01*
X207483621Y-73339999D02*
X207483621Y-75494999D01*
X207523621Y-69110999D02*
X207523621Y-71259999D01*
X207523621Y-73339999D02*
X207523621Y-75488999D01*
X207563621Y-69117999D02*
X207563621Y-71259999D01*
X207563621Y-73339999D02*
X207563621Y-75481999D01*
X207603621Y-69124999D02*
X207603621Y-71259999D01*
X207603621Y-73339999D02*
X207603621Y-75474999D01*
X207643621Y-69132999D02*
X207643621Y-71259999D01*
X207643621Y-73339999D02*
X207643621Y-75466999D01*
X207683621Y-69140999D02*
X207683621Y-71259999D01*
X207683621Y-73339999D02*
X207683621Y-75458999D01*
X207724621Y-69149999D02*
X207724621Y-71259999D01*
X207724621Y-73339999D02*
X207724621Y-75449999D01*
X207764621Y-69158999D02*
X207764621Y-71259999D01*
X207764621Y-73339999D02*
X207764621Y-75440999D01*
X207804621Y-69168999D02*
X207804621Y-71259999D01*
X207804621Y-73339999D02*
X207804621Y-75430999D01*
X207844621Y-69178999D02*
X207844621Y-71259999D01*
X207844621Y-73339999D02*
X207844621Y-75420999D01*
X207884621Y-69189999D02*
X207884621Y-71259999D01*
X207884621Y-73339999D02*
X207884621Y-75409999D01*
X207924621Y-69201999D02*
X207924621Y-71259999D01*
X207924621Y-73339999D02*
X207924621Y-75397999D01*
X207964621Y-69213999D02*
X207964621Y-71259999D01*
X207964621Y-73339999D02*
X207964621Y-75385999D01*
X208004621Y-69225999D02*
X208004621Y-71259999D01*
X208004621Y-73339999D02*
X208004621Y-75373999D01*
X208044621Y-69238999D02*
X208044621Y-71259999D01*
X208044621Y-73339999D02*
X208044621Y-75360999D01*
X208084621Y-69252999D02*
X208084621Y-71259999D01*
X208084621Y-73339999D02*
X208084621Y-75346999D01*
X208124621Y-69266999D02*
X208124621Y-71259999D01*
X208124621Y-73339999D02*
X208124621Y-75332999D01*
X208164621Y-69281999D02*
X208164621Y-71259999D01*
X208164621Y-73339999D02*
X208164621Y-75317999D01*
X208204621Y-69297999D02*
X208204621Y-71259999D01*
X208204621Y-73339999D02*
X208204621Y-75301999D01*
X208244621Y-69313999D02*
X208244621Y-71259999D01*
X208244621Y-73339999D02*
X208244621Y-75285999D01*
X208284621Y-69329999D02*
X208284621Y-71259999D01*
X208284621Y-73339999D02*
X208284621Y-75269999D01*
X208324621Y-69347999D02*
X208324621Y-71259999D01*
X208324621Y-73339999D02*
X208324621Y-75251999D01*
X208364621Y-69365999D02*
X208364621Y-71259999D01*
X208364621Y-73339999D02*
X208364621Y-75233999D01*
X208404621Y-69383999D02*
X208404621Y-71259999D01*
X208404621Y-73339999D02*
X208404621Y-75215999D01*
X208444621Y-69403999D02*
X208444621Y-71259999D01*
X208444621Y-73339999D02*
X208444621Y-75195999D01*
X208484621Y-69423999D02*
X208484621Y-71259999D01*
X208484621Y-73339999D02*
X208484621Y-75175999D01*
X208524621Y-69443999D02*
X208524621Y-71259999D01*
X208524621Y-73339999D02*
X208524621Y-75155999D01*
X208564621Y-69465999D02*
X208564621Y-71259999D01*
X208564621Y-73339999D02*
X208564621Y-75133999D01*
X208604621Y-69487999D02*
X208604621Y-71259999D01*
X208604621Y-73339999D02*
X208604621Y-75111999D01*
X208644621Y-69509999D02*
X208644621Y-71259999D01*
X208644621Y-73339999D02*
X208644621Y-75089999D01*
X208684621Y-69533999D02*
X208684621Y-71259999D01*
X208684621Y-73339999D02*
X208684621Y-75065999D01*
X208724621Y-69557999D02*
X208724621Y-71259999D01*
X208724621Y-73339999D02*
X208724621Y-75041999D01*
X208764621Y-69583999D02*
X208764621Y-71259999D01*
X208764621Y-73339999D02*
X208764621Y-75015999D01*
X208804621Y-69609999D02*
X208804621Y-71259999D01*
X208804621Y-73339999D02*
X208804621Y-74989999D01*
X208844621Y-69635999D02*
X208844621Y-71259999D01*
X208844621Y-73339999D02*
X208844621Y-74963999D01*
X208884621Y-69663999D02*
X208884621Y-71259999D01*
X208884621Y-73339999D02*
X208884621Y-74935999D01*
X208924621Y-69692999D02*
X208924621Y-71259999D01*
X208924621Y-73339999D02*
X208924621Y-74906999D01*
X208964621Y-69721999D02*
X208964621Y-71259999D01*
X208964621Y-73339999D02*
X208964621Y-74877999D01*
X209004621Y-69751999D02*
X209004621Y-71259999D01*
X209004621Y-73339999D02*
X209004621Y-74847999D01*
X209044621Y-69783999D02*
X209044621Y-71259999D01*
X209044621Y-73339999D02*
X209044621Y-74815999D01*
X209084621Y-69815999D02*
X209084621Y-71259999D01*
X209084621Y-73339999D02*
X209084621Y-74783999D01*
X209124621Y-69849999D02*
X209124621Y-71259999D01*
X209124621Y-73339999D02*
X209124621Y-74749999D01*
X209164621Y-69883999D02*
X209164621Y-71259999D01*
X209164621Y-73339999D02*
X209164621Y-74715999D01*
X209204621Y-69919999D02*
X209204621Y-71259999D01*
X209204621Y-73339999D02*
X209204621Y-74679999D01*
X209244621Y-69956999D02*
X209244621Y-71259999D01*
X209244621Y-73339999D02*
X209244621Y-74642999D01*
X209284621Y-69994999D02*
X209284621Y-71259999D01*
X209284621Y-73339999D02*
X209284621Y-74604999D01*
X209324621Y-70034999D02*
X209324621Y-74564999D01*
X209364621Y-70075999D02*
X209364621Y-74523999D01*
X209404621Y-70117999D02*
X209404621Y-74481999D01*
X209444621Y-70162999D02*
X209444621Y-74436999D01*
X209484621Y-70207999D02*
X209484621Y-74391999D01*
X209524621Y-70255999D02*
X209524621Y-74343999D01*
X209564621Y-70304999D02*
X209564621Y-74294999D01*
X209604621Y-70355999D02*
X209604621Y-74243999D01*
X209644621Y-70409999D02*
X209644621Y-74189999D01*
X209684621Y-70465999D02*
X209684621Y-74133999D01*
X209724621Y-70523999D02*
X209724621Y-74075999D01*
X209764621Y-70585999D02*
X209764621Y-74013999D01*
X209804621Y-70649999D02*
X209804621Y-73949999D01*
X209844621Y-70718999D02*
X209844621Y-73880999D01*
X209884621Y-70790999D02*
X209884621Y-73808999D01*
X209924621Y-70867999D02*
X209924621Y-73731999D01*
X209964621Y-70949999D02*
X209964621Y-73649999D01*
X210004621Y-71037999D02*
X210004621Y-73561999D01*
X210044621Y-71134999D02*
X210044621Y-73464999D01*
X210084621Y-71240999D02*
X210084621Y-73358999D01*
X210124621Y-71359999D02*
X210124621Y-73239999D01*
X210164621Y-71497999D02*
X210164621Y-73101999D01*
X210204621Y-71666999D02*
X210204621Y-72932999D01*
X210244621Y-71897999D02*
X210244621Y-72701999D01*
X210273621Y-72299999D02*
G75*
G02*
X203733621Y-72299999I-3270000J0D01*
G01*
X203733621Y-72299999D02*
G75*
G02*
X210273621Y-72299999I3270000J0D01*
G01*
X198835000Y-99510000D02*
X198835000Y-106050000D01*
X198835000Y-106050000D02*
X199165000Y-106050000D01*
X199165000Y-99510000D02*
X198835000Y-99510000D01*
X201245000Y-99510000D02*
X201575000Y-99510000D01*
X201575000Y-99510000D02*
X201575000Y-106050000D01*
X201575000Y-106050000D02*
X201245000Y-106050000D01*
X87080000Y-124790000D02*
X87080000Y-118790000D01*
X88380000Y-118790000D02*
X87080000Y-118790000D01*
X88380000Y-124790000D02*
X87080000Y-124790000D01*
X92280000Y-118790000D02*
X90980000Y-118790000D01*
X92280000Y-118790000D02*
X92280000Y-124790000D01*
X92280000Y-124790000D02*
X90980000Y-124790000D01*
X102080000Y-118790000D02*
X102080000Y-124790000D01*
X102080000Y-119290000D02*
X92280000Y-119290000D01*
X102080000Y-124290000D02*
X92280000Y-124290000D01*
X103380000Y-118790000D02*
X102080000Y-118790000D01*
X103380000Y-124790000D02*
X102080000Y-124790000D01*
X105980000Y-118790000D02*
X107280000Y-118790000D01*
X105980000Y-124790000D02*
X107280000Y-124790000D01*
X107280000Y-118790000D02*
X107280000Y-124790000D01*
X136449000Y-42620000D02*
X136449000Y-52860000D01*
X139580000Y-42620000D02*
X139580000Y-52860000D01*
X141090000Y-42620000D02*
X136449000Y-42620000D01*
X141090000Y-42620000D02*
X141090000Y-52860000D01*
X141090000Y-45890000D02*
X139580000Y-45890000D01*
X141090000Y-49591000D02*
X139580000Y-49591000D01*
X141090000Y-52860000D02*
X136449000Y-52860000D01*
X157210000Y-42280000D02*
X157210000Y-51520000D01*
X157210000Y-51520000D02*
X160650000Y-51520000D01*
X158930000Y-41590000D02*
X158930000Y-42280000D01*
X158930000Y-52210000D02*
X158930000Y-51520000D01*
X160650000Y-42280000D02*
X157210000Y-42280000D01*
X160650000Y-51520000D02*
X160650000Y-42280000D01*
X154035000Y-58790000D02*
X154035000Y-68030000D01*
X154035000Y-68030000D02*
X157475000Y-68030000D01*
X155755000Y-58100000D02*
X155755000Y-58790000D01*
X155755000Y-68720000D02*
X155755000Y-68030000D01*
X157475000Y-58790000D02*
X154035000Y-58790000D01*
X157475000Y-68030000D02*
X157475000Y-58790000D01*
X174225000Y-117095000D02*
X174225000Y-116650000D01*
X174225000Y-119390000D02*
X174225000Y-118945000D01*
X180465000Y-116650000D02*
X174225000Y-116650000D01*
X180465000Y-117095000D02*
X180465000Y-116650000D01*
X180465000Y-119390000D02*
X174225000Y-119390000D01*
X180465000Y-119390000D02*
X180465000Y-118945000D01*
X115260000Y-72933117D02*
X104713000Y-72933117D01*
X115260000Y-72973117D02*
X104722000Y-72973117D01*
X115260000Y-73013117D02*
X104731000Y-73013117D01*
X115260000Y-73053117D02*
X104739000Y-73053117D01*
X115260000Y-73093117D02*
X104749000Y-73093117D01*
X115260000Y-73133117D02*
X104758000Y-73133117D01*
X115260000Y-73173117D02*
X104767000Y-73173117D01*
X115260000Y-73213117D02*
X104777000Y-73213117D01*
X115260000Y-73253117D02*
X104786000Y-73253117D01*
X115260000Y-73293117D02*
X104796000Y-73293117D01*
X115260000Y-73333117D02*
X104806000Y-73333117D01*
X115260000Y-73373117D02*
X104816000Y-73373117D01*
X115260000Y-73413117D02*
X104826000Y-73413117D01*
X115260000Y-73453117D02*
X104836000Y-73453117D01*
X115260000Y-73493117D02*
X104847000Y-73493117D01*
X115260000Y-73533117D02*
X104857000Y-73533117D01*
X115260000Y-73573117D02*
X104868000Y-73573117D01*
X115260000Y-73613117D02*
X104879000Y-73613117D01*
X115260000Y-73653117D02*
X104889000Y-73653117D01*
X115260000Y-73693117D02*
X104901000Y-73693117D01*
X115260000Y-73733117D02*
X104912000Y-73733117D01*
X115260000Y-73773117D02*
X104923000Y-73773117D01*
X115260000Y-73813117D02*
X104935000Y-73813117D01*
X115260000Y-73853117D02*
X104946000Y-73853117D01*
X115260000Y-73893117D02*
X104958000Y-73893117D01*
X115260000Y-73933117D02*
X104970000Y-73933117D01*
X115260000Y-73973117D02*
X104982000Y-73973117D01*
X115260000Y-74013117D02*
X104994000Y-74013117D01*
X115260000Y-74053117D02*
X105006000Y-74053117D01*
X115260000Y-74093117D02*
X105019000Y-74093117D01*
X115260000Y-74133117D02*
X105031000Y-74133117D01*
X115260000Y-74173117D02*
X105044000Y-74173117D01*
X115260000Y-74213117D02*
X105057000Y-74213117D01*
X115260000Y-74253117D02*
X105070000Y-74253117D01*
X115260000Y-74293117D02*
X105083000Y-74293117D01*
X115260000Y-74333117D02*
X105096000Y-74333117D01*
X115260000Y-74373117D02*
X105110000Y-74373117D01*
X115260000Y-74413117D02*
X105124000Y-74413117D01*
X115260000Y-74453117D02*
X105137000Y-74453117D01*
X115260000Y-74493117D02*
X105151000Y-74493117D01*
X115260000Y-74533117D02*
X105165000Y-74533117D01*
X115260000Y-74573117D02*
X105179000Y-74573117D01*
X115260000Y-74613117D02*
X105194000Y-74613117D01*
X115260000Y-74653117D02*
X105208000Y-74653117D01*
X115260000Y-74693117D02*
X105223000Y-74693117D01*
X115260000Y-74733117D02*
X105237000Y-74733117D01*
X115260000Y-74773117D02*
X105252000Y-74773117D01*
X115260000Y-74813117D02*
X105267000Y-74813117D01*
X115260000Y-74853117D02*
X105283000Y-74853117D01*
X115260000Y-74893117D02*
X105298000Y-74893117D01*
X115260000Y-74933117D02*
X105313000Y-74933117D01*
X115260000Y-74973117D02*
X105329000Y-74973117D01*
X115260000Y-75013117D02*
X105345000Y-75013117D01*
X115260000Y-75053117D02*
X105361000Y-75053117D01*
X115260000Y-75093117D02*
X105377000Y-75093117D01*
X115260000Y-75133117D02*
X105393000Y-75133117D01*
X115260000Y-75173117D02*
X105410000Y-75173117D01*
X115260000Y-75213117D02*
X105426000Y-75213117D01*
X115260000Y-75253117D02*
X105443000Y-75253117D01*
X115260000Y-75293117D02*
X105460000Y-75293117D01*
X115260000Y-75333117D02*
X105477000Y-75333117D01*
X115260000Y-75373117D02*
X105494000Y-75373117D01*
X115260000Y-75413117D02*
X105511000Y-75413117D01*
X115260000Y-75453117D02*
X105529000Y-75453117D01*
X115260000Y-75493117D02*
X105547000Y-75493117D01*
X115260000Y-75533117D02*
X105564000Y-75533117D01*
X115260000Y-75573117D02*
X105582000Y-75573117D01*
X115260000Y-75613117D02*
X105600000Y-75613117D01*
X115260000Y-75653117D02*
X105619000Y-75653117D01*
X115260000Y-75693117D02*
X105637000Y-75693117D01*
X115260000Y-75733117D02*
X105656000Y-75733117D01*
X115260000Y-75773117D02*
X105675000Y-75773117D01*
X115260000Y-75813117D02*
X105694000Y-75813117D01*
X115260000Y-75853117D02*
X105713000Y-75853117D01*
X115260000Y-75893117D02*
X105732000Y-75893117D01*
X115260000Y-75933117D02*
X105752000Y-75933117D01*
X115260000Y-75973117D02*
X105771000Y-75973117D01*
X115260000Y-76013117D02*
X105791000Y-76013117D01*
X115260000Y-76053117D02*
X105811000Y-76053117D01*
X115260000Y-76093117D02*
X105831000Y-76093117D01*
X115260000Y-76133117D02*
X105851000Y-76133117D01*
X115260000Y-76173117D02*
X105872000Y-76173117D01*
X115260000Y-76213117D02*
X105892000Y-76213117D01*
X115260000Y-76253117D02*
X105913000Y-76253117D01*
X115260000Y-76293117D02*
X105934000Y-76293117D01*
X115260000Y-76333117D02*
X105956000Y-76333117D01*
X115260000Y-76373117D02*
X105977000Y-76373117D01*
X115260000Y-76413117D02*
X105998000Y-76413117D01*
X115260000Y-76453117D02*
X106020000Y-76453117D01*
X115260000Y-76493117D02*
X106042000Y-76493117D01*
X115260000Y-76533117D02*
X106064000Y-76533117D01*
X115260000Y-76573117D02*
X106086000Y-76573117D01*
X115260000Y-76613117D02*
X106109000Y-76613117D01*
X115260000Y-76653117D02*
X106131000Y-76653117D01*
X115260000Y-76693117D02*
X106154000Y-76693117D01*
X115260000Y-76733117D02*
X106177000Y-76733117D01*
X115260000Y-76773117D02*
X106200000Y-76773117D01*
X115260000Y-76813117D02*
X106224000Y-76813117D01*
X115260000Y-76853117D02*
X106247000Y-76853117D01*
X115260000Y-76893117D02*
X106271000Y-76893117D01*
X115260000Y-76933117D02*
X106295000Y-76933117D01*
X115260000Y-76973117D02*
X106319000Y-76973117D01*
X115260000Y-77013117D02*
X106344000Y-77013117D01*
X115260000Y-77053117D02*
X106368000Y-77053117D01*
X115260000Y-77093117D02*
X106393000Y-77093117D01*
X115260000Y-77133117D02*
X106418000Y-77133117D01*
X115260000Y-77173117D02*
X106443000Y-77173117D01*
X115260000Y-77213117D02*
X106468000Y-77213117D01*
X115260000Y-77253117D02*
X106494000Y-77253117D01*
X115260000Y-77293117D02*
X106520000Y-77293117D01*
X115260000Y-77333117D02*
X106545000Y-77333117D01*
X115260000Y-77373117D02*
X106572000Y-77373117D01*
X117540000Y-83292117D02*
X117460000Y-83292117D01*
X118484000Y-83252117D02*
X116516000Y-83252117D01*
X118907000Y-83212117D02*
X116093000Y-83212117D01*
X119231000Y-83172117D02*
X115769000Y-83172117D01*
X119503000Y-83132117D02*
X115497000Y-83132117D01*
X119743000Y-83092117D02*
X115257000Y-83092117D01*
X119958000Y-83052117D02*
X115042000Y-83052117D01*
X120157000Y-83012117D02*
X114843000Y-83012117D01*
X120341000Y-82972117D02*
X114659000Y-82972117D01*
X120513000Y-82932117D02*
X114487000Y-82932117D01*
X120675000Y-82892117D02*
X114325000Y-82892117D01*
X120830000Y-82852117D02*
X114170000Y-82852117D01*
X120977000Y-82812117D02*
X114023000Y-82812117D01*
X121118000Y-82772117D02*
X113882000Y-82772117D01*
X121253000Y-82732117D02*
X113747000Y-82732117D01*
X121383000Y-82692117D02*
X113617000Y-82692117D01*
X121508000Y-82652117D02*
X113492000Y-82652117D01*
X121630000Y-82612117D02*
X113370000Y-82612117D01*
X121747000Y-82572117D02*
X113253000Y-82572117D01*
X121861000Y-82532117D02*
X113139000Y-82532117D01*
X121972000Y-82492117D02*
X113028000Y-82492117D01*
X122080000Y-82452117D02*
X112920000Y-82452117D01*
X122185000Y-82412117D02*
X112815000Y-82412117D01*
X122287000Y-82372117D02*
X112713000Y-82372117D01*
X122387000Y-82332117D02*
X112613000Y-82332117D01*
X122484000Y-82292117D02*
X112516000Y-82292117D01*
X122580000Y-82252117D02*
X112420000Y-82252117D01*
X122673000Y-82212117D02*
X112327000Y-82212117D01*
X122765000Y-82172117D02*
X112235000Y-82172117D01*
X122854000Y-82132117D02*
X112146000Y-82132117D01*
X122942000Y-82092117D02*
X112058000Y-82092117D01*
X123028000Y-82052117D02*
X111972000Y-82052117D01*
X123113000Y-82012117D02*
X111887000Y-82012117D01*
X123196000Y-81972117D02*
X111804000Y-81972117D01*
X123277000Y-81932117D02*
X111723000Y-81932117D01*
X123358000Y-81892117D02*
X111642000Y-81892117D01*
X123436000Y-81852117D02*
X111564000Y-81852117D01*
X123514000Y-81812117D02*
X111486000Y-81812117D01*
X123590000Y-81772117D02*
X111410000Y-81772117D01*
X123665000Y-81732117D02*
X111335000Y-81732117D01*
X123739000Y-81692117D02*
X111261000Y-81692117D01*
X123812000Y-81652117D02*
X111188000Y-81652117D01*
X123884000Y-81612117D02*
X111116000Y-81612117D01*
X123955000Y-81572117D02*
X111045000Y-81572117D01*
X124024000Y-81532117D02*
X110976000Y-81532117D01*
X124093000Y-81492117D02*
X110907000Y-81492117D01*
X124161000Y-81452117D02*
X110839000Y-81452117D01*
X124228000Y-81412117D02*
X110772000Y-81412117D01*
X124294000Y-81372117D02*
X110706000Y-81372117D01*
X124359000Y-81332117D02*
X110641000Y-81332117D01*
X124423000Y-81292117D02*
X110577000Y-81292117D01*
X124487000Y-81252117D02*
X110513000Y-81252117D01*
X124549000Y-81212117D02*
X110451000Y-81212117D01*
X124611000Y-81172117D02*
X110389000Y-81172117D01*
X124672000Y-81132117D02*
X110328000Y-81132117D01*
X124733000Y-81092117D02*
X110267000Y-81092117D01*
X124793000Y-81052117D02*
X110207000Y-81052117D01*
X124852000Y-81012117D02*
X110148000Y-81012117D01*
X124855000Y-56132883D02*
X124855000Y-58732883D01*
X124910000Y-80972117D02*
X110090000Y-80972117D01*
X124968000Y-80932117D02*
X110032000Y-80932117D01*
X125025000Y-80892117D02*
X109975000Y-80892117D01*
X125081000Y-80852117D02*
X109919000Y-80852117D01*
X125137000Y-80812117D02*
X109863000Y-80812117D01*
X125192000Y-80772117D02*
X109808000Y-80772117D01*
X125246000Y-80732117D02*
X109754000Y-80732117D01*
X125300000Y-80692117D02*
X109700000Y-80692117D01*
X125354000Y-80652117D02*
X109646000Y-80652117D01*
X125407000Y-80612117D02*
X109593000Y-80612117D01*
X125459000Y-80572117D02*
X109541000Y-80572117D01*
X125511000Y-80532117D02*
X109489000Y-80532117D01*
X125562000Y-80492117D02*
X109438000Y-80492117D01*
X125613000Y-80452117D02*
X109387000Y-80452117D01*
X125663000Y-80412117D02*
X109337000Y-80412117D01*
X125712000Y-80372117D02*
X109288000Y-80372117D01*
X125762000Y-80332117D02*
X109238000Y-80332117D01*
X125810000Y-80292117D02*
X109190000Y-80292117D01*
X125859000Y-80252117D02*
X109141000Y-80252117D01*
X125906000Y-80212117D02*
X109094000Y-80212117D01*
X125954000Y-80172117D02*
X109046000Y-80172117D01*
X126001000Y-80132117D02*
X108999000Y-80132117D01*
X126047000Y-80092117D02*
X108953000Y-80092117D01*
X126093000Y-80052117D02*
X108907000Y-80052117D01*
X126139000Y-80012117D02*
X108861000Y-80012117D01*
X126155000Y-57432883D02*
X123555000Y-57432883D01*
X126184000Y-79972117D02*
X108816000Y-79972117D01*
X126228000Y-79932117D02*
X108772000Y-79932117D01*
X126273000Y-79892117D02*
X108727000Y-79892117D01*
X126317000Y-79852117D02*
X108683000Y-79852117D01*
X126360000Y-79812117D02*
X108640000Y-79812117D01*
X126403000Y-79772117D02*
X108597000Y-79772117D01*
X126446000Y-79732117D02*
X108554000Y-79732117D01*
X126488000Y-79692117D02*
X108512000Y-79692117D01*
X126530000Y-79652117D02*
X108470000Y-79652117D01*
X126572000Y-79612117D02*
X108428000Y-79612117D01*
X126613000Y-79572117D02*
X108387000Y-79572117D01*
X126654000Y-79532117D02*
X108346000Y-79532117D01*
X126695000Y-79492117D02*
X108305000Y-79492117D01*
X126735000Y-79452117D02*
X108265000Y-79452117D01*
X126775000Y-79412117D02*
X108225000Y-79412117D01*
X126814000Y-79372117D02*
X108186000Y-79372117D01*
X126854000Y-79332117D02*
X108146000Y-79332117D01*
X126892000Y-79292117D02*
X108108000Y-79292117D01*
X126931000Y-79252117D02*
X108069000Y-79252117D01*
X126969000Y-79212117D02*
X108031000Y-79212117D01*
X127007000Y-79172117D02*
X107993000Y-79172117D01*
X127044000Y-79132117D02*
X107956000Y-79132117D01*
X127082000Y-79092117D02*
X107918000Y-79092117D01*
X127119000Y-79052117D02*
X107881000Y-79052117D01*
X127155000Y-79012117D02*
X107845000Y-79012117D01*
X127192000Y-78972117D02*
X107808000Y-78972117D01*
X127228000Y-78932117D02*
X107772000Y-78932117D01*
X127263000Y-78892117D02*
X107737000Y-78892117D01*
X127299000Y-78852117D02*
X107701000Y-78852117D01*
X127334000Y-78812117D02*
X107666000Y-78812117D01*
X127369000Y-78772117D02*
X107631000Y-78772117D01*
X127403000Y-78732117D02*
X107597000Y-78732117D01*
X127438000Y-78692117D02*
X107562000Y-78692117D01*
X127472000Y-78652117D02*
X107528000Y-78652117D01*
X127505000Y-78612117D02*
X107495000Y-78612117D01*
X127539000Y-78572117D02*
X107461000Y-78572117D01*
X127572000Y-78532117D02*
X107428000Y-78532117D01*
X127605000Y-78492117D02*
X107395000Y-78492117D01*
X127638000Y-78452117D02*
X107362000Y-78452117D01*
X127670000Y-78412117D02*
X107330000Y-78412117D01*
X127702000Y-78372117D02*
X107298000Y-78372117D01*
X127734000Y-78333117D02*
X107266000Y-78333117D01*
X127766000Y-78293117D02*
X107234000Y-78293117D01*
X127797000Y-78253117D02*
X107203000Y-78253117D01*
X127828000Y-78213117D02*
X107172000Y-78213117D01*
X127859000Y-78173117D02*
X107141000Y-78173117D01*
X127890000Y-78133117D02*
X107110000Y-78133117D01*
X127920000Y-78093117D02*
X107080000Y-78093117D01*
X127950000Y-78053117D02*
X107050000Y-78053117D01*
X127980000Y-78013117D02*
X107020000Y-78013117D01*
X128010000Y-77973117D02*
X106990000Y-77973117D01*
X128040000Y-77933117D02*
X106960000Y-77933117D01*
X128069000Y-77893117D02*
X106931000Y-77893117D01*
X128098000Y-77853117D02*
X106902000Y-77853117D01*
X128127000Y-77813117D02*
X106873000Y-77813117D01*
X128155000Y-77773117D02*
X106845000Y-77773117D01*
X128183000Y-77733117D02*
X106817000Y-77733117D01*
X128211000Y-77693117D02*
X106789000Y-77693117D01*
X128239000Y-77653117D02*
X106761000Y-77653117D01*
X128267000Y-77613117D02*
X106733000Y-77613117D01*
X128294000Y-77573117D02*
X106706000Y-77573117D01*
X128322000Y-77533117D02*
X106678000Y-77533117D01*
X128349000Y-77493117D02*
X106651000Y-77493117D01*
X128375000Y-77453117D02*
X106625000Y-77453117D01*
X128402000Y-77413117D02*
X106598000Y-77413117D01*
X128428000Y-77373117D02*
X119740000Y-77373117D01*
X128455000Y-77333117D02*
X119740000Y-77333117D01*
X128480000Y-77293117D02*
X119740000Y-77293117D01*
X128506000Y-77253117D02*
X119740000Y-77253117D01*
X128532000Y-77213117D02*
X119740000Y-77213117D01*
X128557000Y-77173117D02*
X119740000Y-77173117D01*
X128582000Y-77133117D02*
X119740000Y-77133117D01*
X128607000Y-77093117D02*
X119740000Y-77093117D01*
X128632000Y-77053117D02*
X119740000Y-77053117D01*
X128656000Y-77013117D02*
X119740000Y-77013117D01*
X128681000Y-76973117D02*
X119740000Y-76973117D01*
X128705000Y-76933117D02*
X119740000Y-76933117D01*
X128729000Y-76893117D02*
X119740000Y-76893117D01*
X128753000Y-76853117D02*
X119740000Y-76853117D01*
X128776000Y-76813117D02*
X119740000Y-76813117D01*
X128800000Y-76773117D02*
X119740000Y-76773117D01*
X128823000Y-76733117D02*
X119740000Y-76733117D01*
X128846000Y-76693117D02*
X119740000Y-76693117D01*
X128869000Y-76653117D02*
X119740000Y-76653117D01*
X128891000Y-76613117D02*
X119740000Y-76613117D01*
X128914000Y-76573117D02*
X119740000Y-76573117D01*
X128936000Y-76533117D02*
X119740000Y-76533117D01*
X128958000Y-76493117D02*
X119740000Y-76493117D01*
X128980000Y-76453117D02*
X119740000Y-76453117D01*
X129002000Y-76413117D02*
X119740000Y-76413117D01*
X129023000Y-76373117D02*
X119740000Y-76373117D01*
X129044000Y-76333117D02*
X119740000Y-76333117D01*
X129066000Y-76293117D02*
X119740000Y-76293117D01*
X129087000Y-76253117D02*
X119740000Y-76253117D01*
X129108000Y-76213117D02*
X119740000Y-76213117D01*
X129128000Y-76173117D02*
X119740000Y-76173117D01*
X129149000Y-76133117D02*
X119740000Y-76133117D01*
X129169000Y-76093117D02*
X119740000Y-76093117D01*
X129189000Y-76053117D02*
X119740000Y-76053117D01*
X129209000Y-76013117D02*
X119740000Y-76013117D01*
X129229000Y-75973117D02*
X119740000Y-75973117D01*
X129248000Y-75933117D02*
X119740000Y-75933117D01*
X129268000Y-75893117D02*
X119740000Y-75893117D01*
X129287000Y-75853117D02*
X119740000Y-75853117D01*
X129306000Y-75813117D02*
X119740000Y-75813117D01*
X129325000Y-75773117D02*
X119740000Y-75773117D01*
X129344000Y-75733117D02*
X119740000Y-75733117D01*
X129363000Y-75693117D02*
X119740000Y-75693117D01*
X129381000Y-75653117D02*
X119740000Y-75653117D01*
X129400000Y-75613117D02*
X119740000Y-75613117D01*
X129418000Y-75573117D02*
X119740000Y-75573117D01*
X129436000Y-75533117D02*
X119740000Y-75533117D01*
X129453000Y-75493117D02*
X119740000Y-75493117D01*
X129471000Y-75453117D02*
X119740000Y-75453117D01*
X129489000Y-75413117D02*
X119740000Y-75413117D01*
X129506000Y-75373117D02*
X119740000Y-75373117D01*
X129523000Y-75333117D02*
X119740000Y-75333117D01*
X129540000Y-75293117D02*
X119740000Y-75293117D01*
X129557000Y-75253117D02*
X119740000Y-75253117D01*
X129574000Y-75213117D02*
X119740000Y-75213117D01*
X129590000Y-75173117D02*
X119740000Y-75173117D01*
X129607000Y-75133117D02*
X119740000Y-75133117D01*
X129623000Y-75093117D02*
X119740000Y-75093117D01*
X129639000Y-75053117D02*
X119740000Y-75053117D01*
X129655000Y-75013117D02*
X119740000Y-75013117D01*
X129671000Y-74973117D02*
X119740000Y-74973117D01*
X129687000Y-74933117D02*
X119740000Y-74933117D01*
X129702000Y-74893117D02*
X119740000Y-74893117D01*
X129717000Y-74853117D02*
X119740000Y-74853117D01*
X129733000Y-74813117D02*
X119740000Y-74813117D01*
X129748000Y-74773117D02*
X119740000Y-74773117D01*
X129763000Y-74733117D02*
X119740000Y-74733117D01*
X129777000Y-74693117D02*
X119740000Y-74693117D01*
X129792000Y-74653117D02*
X119740000Y-74653117D01*
X129806000Y-74613117D02*
X119740000Y-74613117D01*
X129821000Y-74573117D02*
X119740000Y-74573117D01*
X129835000Y-74533117D02*
X119740000Y-74533117D01*
X129849000Y-74493117D02*
X119740000Y-74493117D01*
X129863000Y-74453117D02*
X119740000Y-74453117D01*
X129876000Y-74413117D02*
X119740000Y-74413117D01*
X129890000Y-74373117D02*
X119740000Y-74373117D01*
X129904000Y-74333117D02*
X119740000Y-74333117D01*
X129917000Y-74293117D02*
X119740000Y-74293117D01*
X129930000Y-74253117D02*
X119740000Y-74253117D01*
X129943000Y-74213117D02*
X119740000Y-74213117D01*
X129956000Y-74173117D02*
X119740000Y-74173117D01*
X129969000Y-74133117D02*
X119740000Y-74133117D01*
X129981000Y-74093117D02*
X119740000Y-74093117D01*
X129994000Y-74053117D02*
X119740000Y-74053117D01*
X130006000Y-74013117D02*
X119740000Y-74013117D01*
X130018000Y-73973117D02*
X119740000Y-73973117D01*
X130030000Y-73933117D02*
X119740000Y-73933117D01*
X130042000Y-73893117D02*
X119740000Y-73893117D01*
X130054000Y-73853117D02*
X119740000Y-73853117D01*
X130065000Y-73813117D02*
X119740000Y-73813117D01*
X130077000Y-73773117D02*
X119740000Y-73773117D01*
X130088000Y-73733117D02*
X119740000Y-73733117D01*
X130099000Y-73693117D02*
X119740000Y-73693117D01*
X130111000Y-73653117D02*
X119740000Y-73653117D01*
X130121000Y-73613117D02*
X119740000Y-73613117D01*
X130132000Y-73573117D02*
X119740000Y-73573117D01*
X130143000Y-73533117D02*
X119740000Y-73533117D01*
X130153000Y-73493117D02*
X119740000Y-73493117D01*
X130164000Y-73453117D02*
X119740000Y-73453117D01*
X130174000Y-73413117D02*
X119740000Y-73413117D01*
X130184000Y-73373117D02*
X119740000Y-73373117D01*
X130194000Y-73333117D02*
X119740000Y-73333117D01*
X130204000Y-73293117D02*
X119740000Y-73293117D01*
X130214000Y-73253117D02*
X119740000Y-73253117D01*
X130223000Y-73213117D02*
X119740000Y-73213117D01*
X130233000Y-73173117D02*
X119740000Y-73173117D01*
X130242000Y-73133117D02*
X119740000Y-73133117D01*
X130251000Y-73093117D02*
X119740000Y-73093117D01*
X130261000Y-73053117D02*
X119740000Y-73053117D01*
X130269000Y-73013117D02*
X119740000Y-73013117D01*
X130278000Y-72973117D02*
X119740000Y-72973117D01*
X130287000Y-72933117D02*
X119740000Y-72933117D01*
X130295000Y-72893117D02*
X104705000Y-72893117D01*
X130304000Y-72853117D02*
X104696000Y-72853117D01*
X130312000Y-72813117D02*
X104688000Y-72813117D01*
X130320000Y-72773117D02*
X104680000Y-72773117D01*
X130328000Y-72733117D02*
X104672000Y-72733117D01*
X130336000Y-72693117D02*
X104664000Y-72693117D01*
X130344000Y-72653117D02*
X104656000Y-72653117D01*
X130352000Y-72613117D02*
X104648000Y-72613117D01*
X130359000Y-72573117D02*
X104641000Y-72573117D01*
X130366000Y-72533117D02*
X104634000Y-72533117D01*
X130374000Y-72493117D02*
X104626000Y-72493117D01*
X130381000Y-72453117D02*
X104619000Y-72453117D01*
X130388000Y-72413117D02*
X104612000Y-72413117D01*
X130395000Y-72373117D02*
X104605000Y-72373117D01*
X130401000Y-72333117D02*
X104599000Y-72333117D01*
X130408000Y-72293117D02*
X104592000Y-72293117D01*
X130415000Y-72253117D02*
X104585000Y-72253117D01*
X130421000Y-72213117D02*
X104579000Y-72213117D01*
X130427000Y-72173117D02*
X104573000Y-72173117D01*
X130433000Y-72133117D02*
X104567000Y-72133117D01*
X130439000Y-72093117D02*
X104561000Y-72093117D01*
X130445000Y-72053117D02*
X104555000Y-72053117D01*
X130451000Y-72013117D02*
X104549000Y-72013117D01*
X130456000Y-71973117D02*
X104544000Y-71973117D01*
X130462000Y-71933117D02*
X104538000Y-71933117D01*
X130467000Y-71893117D02*
X104533000Y-71893117D01*
X130472000Y-71853117D02*
X104528000Y-71853117D01*
X130478000Y-71813117D02*
X104522000Y-71813117D01*
X130483000Y-71773117D02*
X104517000Y-71773117D01*
X130487000Y-71733117D02*
X104513000Y-71733117D01*
X130492000Y-71693117D02*
X104508000Y-71693117D01*
X130497000Y-71653117D02*
X104503000Y-71653117D01*
X130501000Y-71613117D02*
X104499000Y-71613117D01*
X130506000Y-71573117D02*
X104494000Y-71573117D01*
X130510000Y-71533117D02*
X104490000Y-71533117D01*
X130514000Y-71493117D02*
X104486000Y-71493117D01*
X130518000Y-71453117D02*
X104482000Y-71453117D01*
X130522000Y-71413117D02*
X104478000Y-71413117D01*
X130526000Y-71373117D02*
X104474000Y-71373117D01*
X130529000Y-71333117D02*
X104471000Y-71333117D01*
X130533000Y-71293117D02*
X104467000Y-71293117D01*
X130536000Y-71253117D02*
X104464000Y-71253117D01*
X130539000Y-71213117D02*
X104461000Y-71213117D01*
X130542000Y-71173117D02*
X104458000Y-71173117D01*
X130545000Y-71133117D02*
X104455000Y-71133117D01*
X130548000Y-71093117D02*
X104452000Y-71093117D01*
X130551000Y-71053117D02*
X104449000Y-71053117D01*
X130554000Y-71013117D02*
X104446000Y-71013117D01*
X130556000Y-70973117D02*
X104444000Y-70973117D01*
X130558000Y-70933117D02*
X104442000Y-70933117D01*
X130561000Y-70893117D02*
X104439000Y-70893117D01*
X130563000Y-70852117D02*
X104437000Y-70852117D01*
X130565000Y-70812117D02*
X104435000Y-70812117D01*
X130567000Y-70772117D02*
X104433000Y-70772117D01*
X130569000Y-70732117D02*
X104431000Y-70732117D01*
X130570000Y-70692117D02*
X104430000Y-70692117D01*
X130572000Y-70652117D02*
X104428000Y-70652117D01*
X130573000Y-70612117D02*
X104427000Y-70612117D01*
X130574000Y-70572117D02*
X104426000Y-70572117D01*
X130576000Y-70532117D02*
X104424000Y-70532117D01*
X130577000Y-70492117D02*
X104423000Y-70492117D01*
X130578000Y-70412117D02*
X104422000Y-70412117D01*
X130578000Y-70452117D02*
X104422000Y-70452117D01*
X130579000Y-70372117D02*
X104421000Y-70372117D01*
X130580000Y-70212117D02*
X104420000Y-70212117D01*
X130580000Y-70252117D02*
X104420000Y-70252117D01*
X130580000Y-70292117D02*
X104420000Y-70292117D01*
X130580000Y-70332117D02*
X104420000Y-70332117D01*
X130581000Y-70172117D02*
X104419000Y-70172117D01*
X130620000Y-70172117D02*
G75*
G02*
X104380000Y-70172117I-13120000J0D01*
G01*
X104380000Y-70172117D02*
G75*
G02*
X130620000Y-70172117I13120000J0D01*
G01*
X174935000Y-133540000D02*
X183755000Y-133540000D01*
X174935000Y-133850000D02*
X174935000Y-133540000D01*
X174935000Y-138060000D02*
X174935000Y-137750000D01*
X176845000Y-132840000D02*
X177345000Y-133340000D01*
X177345000Y-133340000D02*
X177845000Y-132840000D01*
X177845000Y-132840000D02*
X176845000Y-132840000D01*
X183755000Y-133540000D02*
X183755000Y-133850000D01*
X183755000Y-138060000D02*
X174935000Y-138060000D01*
X183755000Y-138060000D02*
X183755000Y-137750000D01*
D16*
X140820000Y-30370000D02*
X143320000Y-30370000D01*
X140820000Y-31370000D02*
X141820000Y-30370000D01*
X140820000Y-32120000D02*
X142570000Y-30370000D01*
X140820000Y-32370000D02*
X140820000Y-30370000D01*
X140820000Y-39120000D02*
X141820000Y-38120000D01*
X140820000Y-39870000D02*
X143320000Y-37370000D01*
X140820000Y-40620000D02*
X143320000Y-38120000D01*
X140820000Y-41370000D02*
X143320000Y-38870000D01*
X140820000Y-42120000D02*
X143320000Y-39620000D01*
X140820000Y-42870000D02*
X143320000Y-40370000D01*
X140820000Y-43620000D02*
X143320000Y-41120000D01*
X140820000Y-44370000D02*
X143320000Y-41870000D01*
X140820000Y-45120000D02*
X143320000Y-42620000D01*
X140820000Y-45870000D02*
X143320000Y-43370000D01*
X140820000Y-46620000D02*
X143320000Y-44120000D01*
X140820000Y-46620000D02*
X143320000Y-46620000D01*
X140820000Y-48120000D02*
X141320000Y-48120000D01*
X140820000Y-49620000D02*
X143320000Y-49620000D01*
X140820000Y-50370000D02*
X141570000Y-49620000D01*
X140820000Y-51120000D02*
X142320000Y-49620000D01*
X140820000Y-51870000D02*
X143070000Y-49620000D01*
X140820000Y-52620000D02*
X143320000Y-50120000D01*
X140820000Y-53370000D02*
X143320000Y-50870000D01*
X140820000Y-54120000D02*
X143320000Y-51620000D01*
X140820000Y-54870000D02*
X143320000Y-52370000D01*
X140820000Y-55620000D02*
X143320000Y-53120000D01*
X140820000Y-56370000D02*
X143320000Y-53870000D01*
X140820000Y-57120000D02*
X143320000Y-54620000D01*
X140820000Y-57870000D02*
X143320000Y-55370000D01*
X140820000Y-58620000D02*
X143320000Y-56120000D01*
X140820000Y-59370000D02*
X143320000Y-56870000D01*
X140820000Y-60120000D02*
X143320000Y-57620000D01*
X140820000Y-60870000D02*
X143320000Y-58370000D01*
X140820000Y-61620000D02*
X143320000Y-59120000D01*
X140820000Y-62370000D02*
X143320000Y-59870000D01*
X140820000Y-63120000D02*
X143320000Y-60620000D01*
X140820000Y-63870000D02*
X143320000Y-61370000D01*
X140820000Y-64620000D02*
X143320000Y-62120000D01*
X140820000Y-65370000D02*
X143320000Y-62870000D01*
X140820000Y-66120000D02*
X143320000Y-63620000D01*
X140820000Y-66870000D02*
X143320000Y-64370000D01*
X140820000Y-67620000D02*
X143320000Y-65120000D01*
X140820000Y-68370000D02*
X143320000Y-65870000D01*
X140820000Y-69120000D02*
X143320000Y-66620000D01*
X140820000Y-69870000D02*
X143320000Y-67370000D01*
X140820000Y-70620000D02*
X143320000Y-68120000D01*
X140820000Y-71120000D02*
X143320000Y-71120000D01*
X140820000Y-72620000D02*
X141320000Y-72620000D01*
X140820000Y-74120000D02*
X143320000Y-74120000D01*
X140820000Y-74370000D02*
X141070000Y-74120000D01*
X140820000Y-75120000D02*
X141820000Y-74120000D01*
X140820000Y-75870000D02*
X142570000Y-74120000D01*
X140820000Y-76620000D02*
X143320000Y-74120000D01*
X140820000Y-77370000D02*
X143320000Y-74870000D01*
X140820000Y-78120000D02*
X143320000Y-75620000D01*
X140820000Y-78870000D02*
X143320000Y-76370000D01*
X140820000Y-79620000D02*
X143320000Y-77120000D01*
X140820000Y-80370000D02*
X143320000Y-77870000D01*
X140820000Y-81120000D02*
X143320000Y-78620000D01*
X140820000Y-81870000D02*
X143320000Y-79370000D01*
X140820000Y-82620000D02*
X143320000Y-80120000D01*
X140820000Y-83370000D02*
X143320000Y-80870000D01*
X140820000Y-84120000D02*
X143320000Y-81620000D01*
X140820000Y-84870000D02*
X143320000Y-82370000D01*
X140820000Y-85620000D02*
X143320000Y-83120000D01*
X140820000Y-86370000D02*
X143320000Y-83870000D01*
X140820000Y-87120000D02*
X143320000Y-84620000D01*
X140820000Y-87620000D02*
X140820000Y-38370000D01*
X141070000Y-71120000D02*
X143320000Y-68870000D01*
X141570000Y-46620000D02*
X143320000Y-44870000D01*
X141820000Y-48120000D02*
X142320000Y-48120000D01*
X141820000Y-71120000D02*
X143320000Y-69620000D01*
X141820000Y-72620000D02*
X142320000Y-72620000D01*
X142320000Y-46620000D02*
X143320000Y-45620000D01*
X142570000Y-71120000D02*
X143320000Y-70370000D01*
X142820000Y-48120000D02*
X143320000Y-48120000D01*
X142820000Y-72620000D02*
X143320000Y-72620000D01*
X143070000Y-46620000D02*
X143320000Y-46370000D01*
X143320000Y-30370000D02*
X141270000Y-32420000D01*
X143320000Y-30370000D02*
X143320000Y-34120000D01*
X143320000Y-31120000D02*
X141820000Y-32620000D01*
X143320000Y-31870000D02*
X142309534Y-32900381D01*
X143320000Y-32620000D02*
X142720000Y-33220000D01*
X143320000Y-33370000D02*
X143070000Y-33620000D01*
X143320000Y-36620000D02*
X143320000Y-86204525D01*
X143320000Y-85370000D02*
X142320000Y-86370000D01*
X140820001Y-87620000D02*
G75*
G02*
X143320000Y-86204525I2499999J-1500000D01*
G01*
X140820861Y-32359673D02*
G75*
G02*
X143320000Y-34120000I-250861J-3010327D01*
G01*
X143310565Y-36615712D02*
G75*
G02*
X140820000Y-38369999I-2740565J1245712D01*
G01*
D15*
X126054000Y-89356000D02*
X126054000Y-95376000D01*
X126054000Y-95376000D02*
X131354000Y-95376000D01*
X126634000Y-94776000D02*
X126634000Y-95376000D01*
X127434000Y-90356000D02*
X127434000Y-89356000D01*
X127684000Y-89356000D02*
X127684000Y-90356000D01*
X127684000Y-90886000D02*
X127434000Y-90356000D01*
X128234000Y-94776000D02*
X126634000Y-94776000D01*
X128234000Y-95376000D02*
X128234000Y-94776000D01*
X129174000Y-94776000D02*
X129174000Y-95376000D01*
X129724000Y-89356000D02*
X129724000Y-90356000D01*
X129724000Y-90886000D02*
X127684000Y-90886000D01*
X129974000Y-89356000D02*
X129974000Y-90356000D01*
X129974000Y-90356000D02*
X127434000Y-90356000D01*
X129974000Y-90356000D02*
X129724000Y-90886000D01*
X130774000Y-94776000D02*
X129174000Y-94776000D01*
X130774000Y-95376000D02*
X130774000Y-94776000D01*
X131354000Y-89356000D02*
X126054000Y-89356000D01*
X131354000Y-95376000D02*
X131354000Y-89356000D01*
X131644000Y-94346000D02*
X131644000Y-90346000D01*
X195660000Y-99510000D02*
X195660000Y-106050000D01*
X195660000Y-106050000D02*
X195990000Y-106050000D01*
X195990000Y-99510000D02*
X195660000Y-99510000D01*
X198070000Y-99510000D02*
X198400000Y-99510000D01*
X198400000Y-99510000D02*
X198400000Y-106050000D01*
X198400000Y-106050000D02*
X198070000Y-106050000D01*
D16*
X194364000Y-68504000D02*
X210364000Y-68504000D01*
X210364000Y-38504000D01*
X194364000Y-38504000D01*
X194364000Y-68504000D01*
D15*
X172805000Y-119825000D02*
X179345000Y-119825000D01*
X172805000Y-120155000D02*
X172805000Y-119825000D01*
X172805000Y-122235000D02*
X172805000Y-122565000D01*
X172805000Y-122565000D02*
X179345000Y-122565000D01*
X179345000Y-119825000D02*
X179345000Y-120155000D01*
X179345000Y-122565000D02*
X179345000Y-122235000D01*
X166320000Y-90080000D02*
G75*
G02*
X161080000Y-90080000I-2620000J0D01*
G01*
X161080000Y-90080000D02*
G75*
G02*
X166320000Y-90080000I2620000J0D01*
G01*
X115260000Y-44993117D02*
X104713000Y-44993117D01*
X115260000Y-45033117D02*
X104722000Y-45033117D01*
X115260000Y-45073117D02*
X104731000Y-45073117D01*
X115260000Y-45113117D02*
X104739000Y-45113117D01*
X115260000Y-45153117D02*
X104749000Y-45153117D01*
X115260000Y-45193117D02*
X104758000Y-45193117D01*
X115260000Y-45233117D02*
X104767000Y-45233117D01*
X115260000Y-45273117D02*
X104777000Y-45273117D01*
X115260000Y-45313117D02*
X104786000Y-45313117D01*
X115260000Y-45353117D02*
X104796000Y-45353117D01*
X115260000Y-45393117D02*
X104806000Y-45393117D01*
X115260000Y-45433117D02*
X104816000Y-45433117D01*
X115260000Y-45473117D02*
X104826000Y-45473117D01*
X115260000Y-45513117D02*
X104836000Y-45513117D01*
X115260000Y-45553117D02*
X104847000Y-45553117D01*
X115260000Y-45593117D02*
X104857000Y-45593117D01*
X115260000Y-45633117D02*
X104868000Y-45633117D01*
X115260000Y-45673117D02*
X104879000Y-45673117D01*
X115260000Y-45713117D02*
X104889000Y-45713117D01*
X115260000Y-45753117D02*
X104901000Y-45753117D01*
X115260000Y-45793117D02*
X104912000Y-45793117D01*
X115260000Y-45833117D02*
X104923000Y-45833117D01*
X115260000Y-45873117D02*
X104935000Y-45873117D01*
X115260000Y-45913117D02*
X104946000Y-45913117D01*
X115260000Y-45953117D02*
X104958000Y-45953117D01*
X115260000Y-45993117D02*
X104970000Y-45993117D01*
X115260000Y-46033117D02*
X104982000Y-46033117D01*
X115260000Y-46073117D02*
X104994000Y-46073117D01*
X115260000Y-46113117D02*
X105006000Y-46113117D01*
X115260000Y-46153117D02*
X105019000Y-46153117D01*
X115260000Y-46193117D02*
X105031000Y-46193117D01*
X115260000Y-46233117D02*
X105044000Y-46233117D01*
X115260000Y-46273117D02*
X105057000Y-46273117D01*
X115260000Y-46313117D02*
X105070000Y-46313117D01*
X115260000Y-46353117D02*
X105083000Y-46353117D01*
X115260000Y-46393117D02*
X105096000Y-46393117D01*
X115260000Y-46433117D02*
X105110000Y-46433117D01*
X115260000Y-46473117D02*
X105124000Y-46473117D01*
X115260000Y-46513117D02*
X105137000Y-46513117D01*
X115260000Y-46553117D02*
X105151000Y-46553117D01*
X115260000Y-46593117D02*
X105165000Y-46593117D01*
X115260000Y-46633117D02*
X105179000Y-46633117D01*
X115260000Y-46673117D02*
X105194000Y-46673117D01*
X115260000Y-46713117D02*
X105208000Y-46713117D01*
X115260000Y-46753117D02*
X105223000Y-46753117D01*
X115260000Y-46793117D02*
X105237000Y-46793117D01*
X115260000Y-46833117D02*
X105252000Y-46833117D01*
X115260000Y-46873117D02*
X105267000Y-46873117D01*
X115260000Y-46913117D02*
X105283000Y-46913117D01*
X115260000Y-46953117D02*
X105298000Y-46953117D01*
X115260000Y-46993117D02*
X105313000Y-46993117D01*
X115260000Y-47033117D02*
X105329000Y-47033117D01*
X115260000Y-47073117D02*
X105345000Y-47073117D01*
X115260000Y-47113117D02*
X105361000Y-47113117D01*
X115260000Y-47153117D02*
X105377000Y-47153117D01*
X115260000Y-47193117D02*
X105393000Y-47193117D01*
X115260000Y-47233117D02*
X105410000Y-47233117D01*
X115260000Y-47273117D02*
X105426000Y-47273117D01*
X115260000Y-47313117D02*
X105443000Y-47313117D01*
X115260000Y-47353117D02*
X105460000Y-47353117D01*
X115260000Y-47393117D02*
X105477000Y-47393117D01*
X115260000Y-47433117D02*
X105494000Y-47433117D01*
X115260000Y-47473117D02*
X105511000Y-47473117D01*
X115260000Y-47513117D02*
X105529000Y-47513117D01*
X115260000Y-47553117D02*
X105547000Y-47553117D01*
X115260000Y-47593117D02*
X105564000Y-47593117D01*
X115260000Y-47633117D02*
X105582000Y-47633117D01*
X115260000Y-47673117D02*
X105600000Y-47673117D01*
X115260000Y-47713117D02*
X105619000Y-47713117D01*
X115260000Y-47753117D02*
X105637000Y-47753117D01*
X115260000Y-47793117D02*
X105656000Y-47793117D01*
X115260000Y-47833117D02*
X105675000Y-47833117D01*
X115260000Y-47873117D02*
X105694000Y-47873117D01*
X115260000Y-47913117D02*
X105713000Y-47913117D01*
X115260000Y-47953117D02*
X105732000Y-47953117D01*
X115260000Y-47993117D02*
X105752000Y-47993117D01*
X115260000Y-48033117D02*
X105771000Y-48033117D01*
X115260000Y-48073117D02*
X105791000Y-48073117D01*
X115260000Y-48113117D02*
X105811000Y-48113117D01*
X115260000Y-48153117D02*
X105831000Y-48153117D01*
X115260000Y-48193117D02*
X105851000Y-48193117D01*
X115260000Y-48233117D02*
X105872000Y-48233117D01*
X115260000Y-48273117D02*
X105892000Y-48273117D01*
X115260000Y-48313117D02*
X105913000Y-48313117D01*
X115260000Y-48353117D02*
X105934000Y-48353117D01*
X115260000Y-48393117D02*
X105956000Y-48393117D01*
X115260000Y-48433117D02*
X105977000Y-48433117D01*
X115260000Y-48473117D02*
X105998000Y-48473117D01*
X115260000Y-48513117D02*
X106020000Y-48513117D01*
X115260000Y-48553117D02*
X106042000Y-48553117D01*
X115260000Y-48593117D02*
X106064000Y-48593117D01*
X115260000Y-48633117D02*
X106086000Y-48633117D01*
X115260000Y-48673117D02*
X106109000Y-48673117D01*
X115260000Y-48713117D02*
X106131000Y-48713117D01*
X115260000Y-48753117D02*
X106154000Y-48753117D01*
X115260000Y-48793117D02*
X106177000Y-48793117D01*
X115260000Y-48833117D02*
X106200000Y-48833117D01*
X115260000Y-48873117D02*
X106224000Y-48873117D01*
X115260000Y-48913117D02*
X106247000Y-48913117D01*
X115260000Y-48953117D02*
X106271000Y-48953117D01*
X115260000Y-48993117D02*
X106295000Y-48993117D01*
X115260000Y-49033117D02*
X106319000Y-49033117D01*
X115260000Y-49073117D02*
X106344000Y-49073117D01*
X115260000Y-49113117D02*
X106368000Y-49113117D01*
X115260000Y-49153117D02*
X106393000Y-49153117D01*
X115260000Y-49193117D02*
X106418000Y-49193117D01*
X115260000Y-49233117D02*
X106443000Y-49233117D01*
X115260000Y-49273117D02*
X106468000Y-49273117D01*
X115260000Y-49313117D02*
X106494000Y-49313117D01*
X115260000Y-49353117D02*
X106520000Y-49353117D01*
X115260000Y-49393117D02*
X106545000Y-49393117D01*
X115260000Y-49433117D02*
X106572000Y-49433117D01*
X117540000Y-55352117D02*
X117460000Y-55352117D01*
X118484000Y-55312117D02*
X116516000Y-55312117D01*
X118907000Y-55272117D02*
X116093000Y-55272117D01*
X119231000Y-55232117D02*
X115769000Y-55232117D01*
X119503000Y-55192117D02*
X115497000Y-55192117D01*
X119743000Y-55152117D02*
X115257000Y-55152117D01*
X119958000Y-55112117D02*
X115042000Y-55112117D01*
X120157000Y-55072117D02*
X114843000Y-55072117D01*
X120341000Y-55032117D02*
X114659000Y-55032117D01*
X120513000Y-54992117D02*
X114487000Y-54992117D01*
X120675000Y-54952117D02*
X114325000Y-54952117D01*
X120830000Y-54912117D02*
X114170000Y-54912117D01*
X120977000Y-54872117D02*
X114023000Y-54872117D01*
X121118000Y-54832117D02*
X113882000Y-54832117D01*
X121253000Y-54792117D02*
X113747000Y-54792117D01*
X121383000Y-54752117D02*
X113617000Y-54752117D01*
X121508000Y-54712117D02*
X113492000Y-54712117D01*
X121630000Y-54672117D02*
X113370000Y-54672117D01*
X121747000Y-54632117D02*
X113253000Y-54632117D01*
X121861000Y-54592117D02*
X113139000Y-54592117D01*
X121972000Y-54552117D02*
X113028000Y-54552117D01*
X122080000Y-54512117D02*
X112920000Y-54512117D01*
X122185000Y-54472117D02*
X112815000Y-54472117D01*
X122287000Y-54432117D02*
X112713000Y-54432117D01*
X122387000Y-54392117D02*
X112613000Y-54392117D01*
X122484000Y-54352117D02*
X112516000Y-54352117D01*
X122580000Y-54312117D02*
X112420000Y-54312117D01*
X122673000Y-54272117D02*
X112327000Y-54272117D01*
X122765000Y-54232117D02*
X112235000Y-54232117D01*
X122854000Y-54192117D02*
X112146000Y-54192117D01*
X122942000Y-54152117D02*
X112058000Y-54152117D01*
X123028000Y-54112117D02*
X111972000Y-54112117D01*
X123113000Y-54072117D02*
X111887000Y-54072117D01*
X123196000Y-54032117D02*
X111804000Y-54032117D01*
X123277000Y-53992117D02*
X111723000Y-53992117D01*
X123358000Y-53952117D02*
X111642000Y-53952117D01*
X123436000Y-53912117D02*
X111564000Y-53912117D01*
X123514000Y-53872117D02*
X111486000Y-53872117D01*
X123590000Y-53832117D02*
X111410000Y-53832117D01*
X123665000Y-53792117D02*
X111335000Y-53792117D01*
X123739000Y-53752117D02*
X111261000Y-53752117D01*
X123812000Y-53712117D02*
X111188000Y-53712117D01*
X123884000Y-53672117D02*
X111116000Y-53672117D01*
X123955000Y-53632117D02*
X111045000Y-53632117D01*
X124024000Y-53592117D02*
X110976000Y-53592117D01*
X124093000Y-53552117D02*
X110907000Y-53552117D01*
X124161000Y-53512117D02*
X110839000Y-53512117D01*
X124228000Y-53472117D02*
X110772000Y-53472117D01*
X124294000Y-53432117D02*
X110706000Y-53432117D01*
X124359000Y-53392117D02*
X110641000Y-53392117D01*
X124423000Y-53352117D02*
X110577000Y-53352117D01*
X124487000Y-53312117D02*
X110513000Y-53312117D01*
X124549000Y-53272117D02*
X110451000Y-53272117D01*
X124611000Y-53232117D02*
X110389000Y-53232117D01*
X124672000Y-53192117D02*
X110328000Y-53192117D01*
X124733000Y-53152117D02*
X110267000Y-53152117D01*
X124793000Y-53112117D02*
X110207000Y-53112117D01*
X124852000Y-53072117D02*
X110148000Y-53072117D01*
X124855000Y-28192883D02*
X124855000Y-30792883D01*
X124910000Y-53032117D02*
X110090000Y-53032117D01*
X124968000Y-52992117D02*
X110032000Y-52992117D01*
X125025000Y-52952117D02*
X109975000Y-52952117D01*
X125081000Y-52912117D02*
X109919000Y-52912117D01*
X125137000Y-52872117D02*
X109863000Y-52872117D01*
X125192000Y-52832117D02*
X109808000Y-52832117D01*
X125246000Y-52792117D02*
X109754000Y-52792117D01*
X125300000Y-52752117D02*
X109700000Y-52752117D01*
X125354000Y-52712117D02*
X109646000Y-52712117D01*
X125407000Y-52672117D02*
X109593000Y-52672117D01*
X125459000Y-52632117D02*
X109541000Y-52632117D01*
X125511000Y-52592117D02*
X109489000Y-52592117D01*
X125562000Y-52552117D02*
X109438000Y-52552117D01*
X125613000Y-52512117D02*
X109387000Y-52512117D01*
X125663000Y-52472117D02*
X109337000Y-52472117D01*
X125712000Y-52432117D02*
X109288000Y-52432117D01*
X125762000Y-52392117D02*
X109238000Y-52392117D01*
X125810000Y-52352117D02*
X109190000Y-52352117D01*
X125859000Y-52312117D02*
X109141000Y-52312117D01*
X125906000Y-52272117D02*
X109094000Y-52272117D01*
X125954000Y-52232117D02*
X109046000Y-52232117D01*
X126001000Y-52192117D02*
X108999000Y-52192117D01*
X126047000Y-52152117D02*
X108953000Y-52152117D01*
X126093000Y-52112117D02*
X108907000Y-52112117D01*
X126139000Y-52072117D02*
X108861000Y-52072117D01*
X126155000Y-29492883D02*
X123555000Y-29492883D01*
X126184000Y-52032117D02*
X108816000Y-52032117D01*
X126228000Y-51992117D02*
X108772000Y-51992117D01*
X126273000Y-51952117D02*
X108727000Y-51952117D01*
X126317000Y-51912117D02*
X108683000Y-51912117D01*
X126360000Y-51872117D02*
X108640000Y-51872117D01*
X126403000Y-51832117D02*
X108597000Y-51832117D01*
X126446000Y-51792117D02*
X108554000Y-51792117D01*
X126488000Y-51752117D02*
X108512000Y-51752117D01*
X126530000Y-51712117D02*
X108470000Y-51712117D01*
X126572000Y-51672117D02*
X108428000Y-51672117D01*
X126613000Y-51632117D02*
X108387000Y-51632117D01*
X126654000Y-51592117D02*
X108346000Y-51592117D01*
X126695000Y-51552117D02*
X108305000Y-51552117D01*
X126735000Y-51512117D02*
X108265000Y-51512117D01*
X126775000Y-51472117D02*
X108225000Y-51472117D01*
X126814000Y-51432117D02*
X108186000Y-51432117D01*
X126854000Y-51392117D02*
X108146000Y-51392117D01*
X126892000Y-51352117D02*
X108108000Y-51352117D01*
X126931000Y-51312117D02*
X108069000Y-51312117D01*
X126969000Y-51272117D02*
X108031000Y-51272117D01*
X127007000Y-51232117D02*
X107993000Y-51232117D01*
X127044000Y-51192117D02*
X107956000Y-51192117D01*
X127082000Y-51152117D02*
X107918000Y-51152117D01*
X127119000Y-51112117D02*
X107881000Y-51112117D01*
X127155000Y-51072117D02*
X107845000Y-51072117D01*
X127192000Y-51032117D02*
X107808000Y-51032117D01*
X127228000Y-50992117D02*
X107772000Y-50992117D01*
X127263000Y-50952117D02*
X107737000Y-50952117D01*
X127299000Y-50912117D02*
X107701000Y-50912117D01*
X127334000Y-50872117D02*
X107666000Y-50872117D01*
X127369000Y-50832117D02*
X107631000Y-50832117D01*
X127403000Y-50792117D02*
X107597000Y-50792117D01*
X127438000Y-50752117D02*
X107562000Y-50752117D01*
X127472000Y-50712117D02*
X107528000Y-50712117D01*
X127505000Y-50672117D02*
X107495000Y-50672117D01*
X127539000Y-50632117D02*
X107461000Y-50632117D01*
X127572000Y-50592117D02*
X107428000Y-50592117D01*
X127605000Y-50552117D02*
X107395000Y-50552117D01*
X127638000Y-50512117D02*
X107362000Y-50512117D01*
X127670000Y-50472117D02*
X107330000Y-50472117D01*
X127702000Y-50432117D02*
X107298000Y-50432117D01*
X127734000Y-50393117D02*
X107266000Y-50393117D01*
X127766000Y-50353117D02*
X107234000Y-50353117D01*
X127797000Y-50313117D02*
X107203000Y-50313117D01*
X127828000Y-50273117D02*
X107172000Y-50273117D01*
X127859000Y-50233117D02*
X107141000Y-50233117D01*
X127890000Y-50193117D02*
X107110000Y-50193117D01*
X127920000Y-50153117D02*
X107080000Y-50153117D01*
X127950000Y-50113117D02*
X107050000Y-50113117D01*
X127980000Y-50073117D02*
X107020000Y-50073117D01*
X128010000Y-50033117D02*
X106990000Y-50033117D01*
X128040000Y-49993117D02*
X106960000Y-49993117D01*
X128069000Y-49953117D02*
X106931000Y-49953117D01*
X128098000Y-49913117D02*
X106902000Y-49913117D01*
X128127000Y-49873117D02*
X106873000Y-49873117D01*
X128155000Y-49833117D02*
X106845000Y-49833117D01*
X128183000Y-49793117D02*
X106817000Y-49793117D01*
X128211000Y-49753117D02*
X106789000Y-49753117D01*
X128239000Y-49713117D02*
X106761000Y-49713117D01*
X128267000Y-49673117D02*
X106733000Y-49673117D01*
X128294000Y-49633117D02*
X106706000Y-49633117D01*
X128322000Y-49593117D02*
X106678000Y-49593117D01*
X128349000Y-49553117D02*
X106651000Y-49553117D01*
X128375000Y-49513117D02*
X106625000Y-49513117D01*
X128402000Y-49473117D02*
X106598000Y-49473117D01*
X128428000Y-49433117D02*
X119740000Y-49433117D01*
X128455000Y-49393117D02*
X119740000Y-49393117D01*
X128480000Y-49353117D02*
X119740000Y-49353117D01*
X128506000Y-49313117D02*
X119740000Y-49313117D01*
X128532000Y-49273117D02*
X119740000Y-49273117D01*
X128557000Y-49233117D02*
X119740000Y-49233117D01*
X128582000Y-49193117D02*
X119740000Y-49193117D01*
X128607000Y-49153117D02*
X119740000Y-49153117D01*
X128632000Y-49113117D02*
X119740000Y-49113117D01*
X128656000Y-49073117D02*
X119740000Y-49073117D01*
X128681000Y-49033117D02*
X119740000Y-49033117D01*
X128705000Y-48993117D02*
X119740000Y-48993117D01*
X128729000Y-48953117D02*
X119740000Y-48953117D01*
X128753000Y-48913117D02*
X119740000Y-48913117D01*
X128776000Y-48873117D02*
X119740000Y-48873117D01*
X128800000Y-48833117D02*
X119740000Y-48833117D01*
X128823000Y-48793117D02*
X119740000Y-48793117D01*
X128846000Y-48753117D02*
X119740000Y-48753117D01*
X128869000Y-48713117D02*
X119740000Y-48713117D01*
X128891000Y-48673117D02*
X119740000Y-48673117D01*
X128914000Y-48633117D02*
X119740000Y-48633117D01*
X128936000Y-48593117D02*
X119740000Y-48593117D01*
X128958000Y-48553117D02*
X119740000Y-48553117D01*
X128980000Y-48513117D02*
X119740000Y-48513117D01*
X129002000Y-48473117D02*
X119740000Y-48473117D01*
X129023000Y-48433117D02*
X119740000Y-48433117D01*
X129044000Y-48393117D02*
X119740000Y-48393117D01*
X129066000Y-48353117D02*
X119740000Y-48353117D01*
X129087000Y-48313117D02*
X119740000Y-48313117D01*
X129108000Y-48273117D02*
X119740000Y-48273117D01*
X129128000Y-48233117D02*
X119740000Y-48233117D01*
X129149000Y-48193117D02*
X119740000Y-48193117D01*
X129169000Y-48153117D02*
X119740000Y-48153117D01*
X129189000Y-48113117D02*
X119740000Y-48113117D01*
X129209000Y-48073117D02*
X119740000Y-48073117D01*
X129229000Y-48033117D02*
X119740000Y-48033117D01*
X129248000Y-47993117D02*
X119740000Y-47993117D01*
X129268000Y-47953117D02*
X119740000Y-47953117D01*
X129287000Y-47913117D02*
X119740000Y-47913117D01*
X129306000Y-47873117D02*
X119740000Y-47873117D01*
X129325000Y-47833117D02*
X119740000Y-47833117D01*
X129344000Y-47793117D02*
X119740000Y-47793117D01*
X129363000Y-47753117D02*
X119740000Y-47753117D01*
X129381000Y-47713117D02*
X119740000Y-47713117D01*
X129400000Y-47673117D02*
X119740000Y-47673117D01*
X129418000Y-47633117D02*
X119740000Y-47633117D01*
X129436000Y-47593117D02*
X119740000Y-47593117D01*
X129453000Y-47553117D02*
X119740000Y-47553117D01*
X129471000Y-47513117D02*
X119740000Y-47513117D01*
X129489000Y-47473117D02*
X119740000Y-47473117D01*
X129506000Y-47433117D02*
X119740000Y-47433117D01*
X129523000Y-47393117D02*
X119740000Y-47393117D01*
X129540000Y-47353117D02*
X119740000Y-47353117D01*
X129557000Y-47313117D02*
X119740000Y-47313117D01*
X129574000Y-47273117D02*
X119740000Y-47273117D01*
X129590000Y-47233117D02*
X119740000Y-47233117D01*
X129607000Y-47193117D02*
X119740000Y-47193117D01*
X129623000Y-47153117D02*
X119740000Y-47153117D01*
X129639000Y-47113117D02*
X119740000Y-47113117D01*
X129655000Y-47073117D02*
X119740000Y-47073117D01*
X129671000Y-47033117D02*
X119740000Y-47033117D01*
X129687000Y-46993117D02*
X119740000Y-46993117D01*
X129702000Y-46953117D02*
X119740000Y-46953117D01*
X129717000Y-46913117D02*
X119740000Y-46913117D01*
X129733000Y-46873117D02*
X119740000Y-46873117D01*
X129748000Y-46833117D02*
X119740000Y-46833117D01*
X129763000Y-46793117D02*
X119740000Y-46793117D01*
X129777000Y-46753117D02*
X119740000Y-46753117D01*
X129792000Y-46713117D02*
X119740000Y-46713117D01*
X129806000Y-46673117D02*
X119740000Y-46673117D01*
X129821000Y-46633117D02*
X119740000Y-46633117D01*
X129835000Y-46593117D02*
X119740000Y-46593117D01*
X129849000Y-46553117D02*
X119740000Y-46553117D01*
X129863000Y-46513117D02*
X119740000Y-46513117D01*
X129876000Y-46473117D02*
X119740000Y-46473117D01*
X129890000Y-46433117D02*
X119740000Y-46433117D01*
X129904000Y-46393117D02*
X119740000Y-46393117D01*
X129917000Y-46353117D02*
X119740000Y-46353117D01*
X129930000Y-46313117D02*
X119740000Y-46313117D01*
X129943000Y-46273117D02*
X119740000Y-46273117D01*
X129956000Y-46233117D02*
X119740000Y-46233117D01*
X129969000Y-46193117D02*
X119740000Y-46193117D01*
X129981000Y-46153117D02*
X119740000Y-46153117D01*
X129994000Y-46113117D02*
X119740000Y-46113117D01*
X130006000Y-46073117D02*
X119740000Y-46073117D01*
X130018000Y-46033117D02*
X119740000Y-46033117D01*
X130030000Y-45993117D02*
X119740000Y-45993117D01*
X130042000Y-45953117D02*
X119740000Y-45953117D01*
X130054000Y-45913117D02*
X119740000Y-45913117D01*
X130065000Y-45873117D02*
X119740000Y-45873117D01*
X130077000Y-45833117D02*
X119740000Y-45833117D01*
X130088000Y-45793117D02*
X119740000Y-45793117D01*
X130099000Y-45753117D02*
X119740000Y-45753117D01*
X130111000Y-45713117D02*
X119740000Y-45713117D01*
X130121000Y-45673117D02*
X119740000Y-45673117D01*
X130132000Y-45633117D02*
X119740000Y-45633117D01*
X130143000Y-45593117D02*
X119740000Y-45593117D01*
X130153000Y-45553117D02*
X119740000Y-45553117D01*
X130164000Y-45513117D02*
X119740000Y-45513117D01*
X130174000Y-45473117D02*
X119740000Y-45473117D01*
X130184000Y-45433117D02*
X119740000Y-45433117D01*
X130194000Y-45393117D02*
X119740000Y-45393117D01*
X130204000Y-45353117D02*
X119740000Y-45353117D01*
X130214000Y-45313117D02*
X119740000Y-45313117D01*
X130223000Y-45273117D02*
X119740000Y-45273117D01*
X130233000Y-45233117D02*
X119740000Y-45233117D01*
X130242000Y-45193117D02*
X119740000Y-45193117D01*
X130251000Y-45153117D02*
X119740000Y-45153117D01*
X130261000Y-45113117D02*
X119740000Y-45113117D01*
X130269000Y-45073117D02*
X119740000Y-45073117D01*
X130278000Y-45033117D02*
X119740000Y-45033117D01*
X130287000Y-44993117D02*
X119740000Y-44993117D01*
X130295000Y-44953117D02*
X104705000Y-44953117D01*
X130304000Y-44913117D02*
X104696000Y-44913117D01*
X130312000Y-44873117D02*
X104688000Y-44873117D01*
X130320000Y-44833117D02*
X104680000Y-44833117D01*
X130328000Y-44793117D02*
X104672000Y-44793117D01*
X130336000Y-44753117D02*
X104664000Y-44753117D01*
X130344000Y-44713117D02*
X104656000Y-44713117D01*
X130352000Y-44673117D02*
X104648000Y-44673117D01*
X130359000Y-44633117D02*
X104641000Y-44633117D01*
X130366000Y-44593117D02*
X104634000Y-44593117D01*
X130374000Y-44553117D02*
X104626000Y-44553117D01*
X130381000Y-44513117D02*
X104619000Y-44513117D01*
X130388000Y-44473117D02*
X104612000Y-44473117D01*
X130395000Y-44433117D02*
X104605000Y-44433117D01*
X130401000Y-44393117D02*
X104599000Y-44393117D01*
X130408000Y-44353117D02*
X104592000Y-44353117D01*
X130415000Y-44313117D02*
X104585000Y-44313117D01*
X130421000Y-44273117D02*
X104579000Y-44273117D01*
X130427000Y-44233117D02*
X104573000Y-44233117D01*
X130433000Y-44193117D02*
X104567000Y-44193117D01*
X130439000Y-44153117D02*
X104561000Y-44153117D01*
X130445000Y-44113117D02*
X104555000Y-44113117D01*
X130451000Y-44073117D02*
X104549000Y-44073117D01*
X130456000Y-44033117D02*
X104544000Y-44033117D01*
X130462000Y-43993117D02*
X104538000Y-43993117D01*
X130467000Y-43953117D02*
X104533000Y-43953117D01*
X130472000Y-43913117D02*
X104528000Y-43913117D01*
X130478000Y-43873117D02*
X104522000Y-43873117D01*
X130483000Y-43833117D02*
X104517000Y-43833117D01*
X130487000Y-43793117D02*
X104513000Y-43793117D01*
X130492000Y-43753117D02*
X104508000Y-43753117D01*
X130497000Y-43713117D02*
X104503000Y-43713117D01*
X130501000Y-43673117D02*
X104499000Y-43673117D01*
X130506000Y-43633117D02*
X104494000Y-43633117D01*
X130510000Y-43593117D02*
X104490000Y-43593117D01*
X130514000Y-43553117D02*
X104486000Y-43553117D01*
X130518000Y-43513117D02*
X104482000Y-43513117D01*
X130522000Y-43473117D02*
X104478000Y-43473117D01*
X130526000Y-43433117D02*
X104474000Y-43433117D01*
X130529000Y-43393117D02*
X104471000Y-43393117D01*
X130533000Y-43353117D02*
X104467000Y-43353117D01*
X130536000Y-43313117D02*
X104464000Y-43313117D01*
X130539000Y-43273117D02*
X104461000Y-43273117D01*
X130542000Y-43233117D02*
X104458000Y-43233117D01*
X130545000Y-43193117D02*
X104455000Y-43193117D01*
X130548000Y-43153117D02*
X104452000Y-43153117D01*
X130551000Y-43113117D02*
X104449000Y-43113117D01*
X130554000Y-43073117D02*
X104446000Y-43073117D01*
X130556000Y-43033117D02*
X104444000Y-43033117D01*
X130558000Y-42993117D02*
X104442000Y-42993117D01*
X130561000Y-42953117D02*
X104439000Y-42953117D01*
X130563000Y-42912117D02*
X104437000Y-42912117D01*
X130565000Y-42872117D02*
X104435000Y-42872117D01*
X130567000Y-42832117D02*
X104433000Y-42832117D01*
X130569000Y-42792117D02*
X104431000Y-42792117D01*
X130570000Y-42752117D02*
X104430000Y-42752117D01*
X130572000Y-42712117D02*
X104428000Y-42712117D01*
X130573000Y-42672117D02*
X104427000Y-42672117D01*
X130574000Y-42632117D02*
X104426000Y-42632117D01*
X130576000Y-42592117D02*
X104424000Y-42592117D01*
X130577000Y-42552117D02*
X104423000Y-42552117D01*
X130578000Y-42472117D02*
X104422000Y-42472117D01*
X130578000Y-42512117D02*
X104422000Y-42512117D01*
X130579000Y-42432117D02*
X104421000Y-42432117D01*
X130580000Y-42272117D02*
X104420000Y-42272117D01*
X130580000Y-42312117D02*
X104420000Y-42312117D01*
X130580000Y-42352117D02*
X104420000Y-42352117D01*
X130580000Y-42392117D02*
X104420000Y-42392117D01*
X130581000Y-42232117D02*
X104419000Y-42232117D01*
X130620000Y-42232117D02*
G75*
G02*
X104380000Y-42232117I-13120000J0D01*
G01*
X104380000Y-42232117D02*
G75*
G02*
X130620000Y-42232117I13120000J0D01*
G01*
X97520000Y-65140000D02*
X97520000Y-74380000D01*
X97520000Y-74380000D02*
X100960000Y-74380000D01*
X99240000Y-64450000D02*
X99240000Y-65140000D01*
X99240000Y-75070000D02*
X99240000Y-74380000D01*
X100960000Y-65140000D02*
X97520000Y-65140000D01*
X100960000Y-74380000D02*
X100960000Y-65140000D01*
X110380000Y-123130000D02*
X111744000Y-123130000D01*
X110380000Y-130870000D02*
X110380000Y-123130000D01*
X110380000Y-130870000D02*
X111744000Y-130870000D01*
X114256000Y-123130000D02*
X115620000Y-123130000D01*
X114256000Y-130870000D02*
X115620000Y-130870000D01*
X115620000Y-130870000D02*
X115620000Y-123130000D01*
X200078000Y-77888000D02*
X200078000Y-88048000D01*
X200078000Y-88048000D02*
X207698000Y-88048000D01*
X206428000Y-77888000D02*
X206428000Y-88048000D01*
X207698000Y-77888000D02*
X200078000Y-77888000D01*
X207698000Y-88048000D02*
X207698000Y-77888000D01*
X85760000Y-101080000D02*
X85760000Y-116320000D01*
X85760000Y-101080000D02*
X93380000Y-101080000D01*
X85760000Y-116320000D02*
X93380000Y-116320000D01*
X87030000Y-101080000D02*
X87030000Y-116320000D01*
X93380000Y-101080000D02*
X93380000Y-116320000D01*
X163375000Y-134430000D02*
X163375000Y-134360000D01*
X164745000Y-135800000D02*
G75*
G02*
X162005000Y-135800000I-1370000J0D01*
G01*
X162005000Y-135800000D02*
G75*
G02*
X164745000Y-135800000I1370000J0D01*
G01*
X136449000Y-67500000D02*
X136449000Y-77740000D01*
X139580000Y-67500000D02*
X139580000Y-77740000D01*
X141090000Y-67500000D02*
X136449000Y-67500000D01*
X141090000Y-67500000D02*
X141090000Y-77740000D01*
X141090000Y-70770000D02*
X139580000Y-70770000D01*
X141090000Y-74471000D02*
X139580000Y-74471000D01*
X141090000Y-77740000D02*
X136449000Y-77740000D01*
X173815000Y-79225000D02*
X174125000Y-79225000D01*
X173815000Y-88045000D02*
X173815000Y-79225000D01*
X173815000Y-88045000D02*
X174125000Y-88045000D01*
X178025000Y-79225000D02*
X178335000Y-79225000D01*
X178335000Y-79225000D02*
X178335000Y-88045000D01*
X178335000Y-88045000D02*
X178025000Y-88045000D01*
X178535000Y-81635000D02*
X179035000Y-82135000D01*
X179035000Y-81135000D02*
X178535000Y-81635000D01*
X179035000Y-82135000D02*
X179035000Y-81135000D01*
X192640000Y-120575000D02*
X192640000Y-120130000D01*
X192640000Y-122870000D02*
X192640000Y-122425000D01*
X198880000Y-120130000D02*
X192640000Y-120130000D01*
X198880000Y-120575000D02*
X198880000Y-120130000D01*
X198880000Y-122870000D02*
X192640000Y-122870000D01*
X198880000Y-122870000D02*
X198880000Y-122425000D01*
X172797366Y-135183449D02*
G75*
G02*
X170530000Y-135123847I-1167366J-1251551D01*
G01*
X170462634Y-128161551D02*
G75*
G02*
X172730000Y-128221153I1167366J1251551D01*
G01*
X162160000Y-48690000D02*
X164176000Y-48690000D01*
X162160000Y-65430000D02*
X162160000Y-48690000D01*
X162160000Y-65430000D02*
X164176000Y-65430000D01*
X166384000Y-48690000D02*
X168400000Y-48690000D01*
X166384000Y-65430000D02*
X168400000Y-65430000D01*
X168400000Y-65430000D02*
X168400000Y-48690000D01*
X144860000Y-73475000D02*
X145190000Y-73475000D01*
X144860000Y-80015000D02*
X144860000Y-73475000D01*
X145190000Y-80015000D02*
X144860000Y-80015000D01*
X147270000Y-80015000D02*
X147600000Y-80015000D01*
X147600000Y-73475000D02*
X147270000Y-73475000D01*
X147600000Y-80015000D02*
X147600000Y-73475000D01*
D16*
X171020000Y-34699340D02*
X171020000Y-31060000D01*
X171020000Y-53960000D02*
X171020000Y-57860000D01*
X172520000Y-36199340D02*
X175520000Y-36199340D01*
X172520000Y-37660000D02*
X175520000Y-37660000D01*
X172520000Y-40660000D02*
X175520000Y-40660000D01*
X172520000Y-42860000D02*
X175520000Y-42860000D01*
X172520000Y-45860000D02*
X175520000Y-45860000D01*
X172520000Y-48060000D02*
X175520000Y-48060000D01*
X172520000Y-51060000D02*
X175520000Y-51060000D01*
X172520000Y-52460000D02*
X175520000Y-52460000D01*
X175520000Y-37660000D02*
X175520000Y-36199340D01*
X175520000Y-42860000D02*
X175520000Y-40660000D01*
X175520000Y-48060000D02*
X175520000Y-45860000D01*
X175520000Y-52460000D02*
X175520000Y-51060000D01*
X176720000Y-31060000D02*
X171020000Y-31060000D01*
X176720000Y-31060000D02*
X176720000Y-36199340D01*
X176720000Y-57860000D02*
X171020000Y-57860000D01*
X176720000Y-57860000D02*
X176720000Y-52460000D01*
X183320000Y-31060000D02*
X183320000Y-36199340D01*
X183320000Y-31060000D02*
X189020000Y-31060000D01*
X183320000Y-36199340D02*
X176720000Y-36199340D01*
X183320000Y-52460000D02*
X176720000Y-52460000D01*
X183320000Y-57860000D02*
X183320000Y-52460000D01*
X183320000Y-57860000D02*
X189020000Y-57860000D01*
X184520000Y-37660000D02*
X184520000Y-36199340D01*
X184520000Y-42860000D02*
X184520000Y-40660000D01*
X184520000Y-48060000D02*
X184520000Y-45860000D01*
X184520000Y-52460000D02*
X184520000Y-51060000D01*
X187520000Y-36199340D02*
X184520000Y-36199340D01*
X187520000Y-37660000D02*
X184520000Y-37660000D01*
X187520000Y-40660000D02*
X184520000Y-40660000D01*
X187520000Y-42860000D02*
X184520000Y-42860000D01*
X187520000Y-45860000D02*
X184520000Y-45860000D01*
X187520000Y-48060000D02*
X184520000Y-48060000D01*
X187520000Y-51060000D02*
X184520000Y-51060000D01*
X187520000Y-52460000D02*
X184520000Y-52460000D01*
X189020000Y-34699340D02*
X189020000Y-31060000D01*
X189020000Y-53960000D02*
X189020000Y-57860000D01*
X171020000Y-39160000D02*
G75*
G02*
X172520000Y-37660000I1500000J0D01*
G01*
X171020000Y-44360000D02*
G75*
G02*
X172520000Y-42860000I1500001J-1D01*
G01*
X171020000Y-49560000D02*
G75*
G02*
X172520000Y-48060000I1500001J-1D01*
G01*
X171020000Y-53960000D02*
G75*
G02*
X172520000Y-52460000I1500001J-1D01*
G01*
X172520000Y-36199340D02*
G75*
G02*
X171020000Y-34699340I0J1500000D01*
G01*
X172520000Y-40660000D02*
G75*
G02*
X171020000Y-39160000I0J1500000D01*
G01*
X172520000Y-45860000D02*
G75*
G02*
X171020000Y-44360000I0J1500000D01*
G01*
X172520000Y-51060000D02*
G75*
G02*
X171020000Y-49560000I1J1500001D01*
G01*
X187520000Y-37660000D02*
G75*
G02*
X189020000Y-39160000I0J-1500000D01*
G01*
X187520000Y-42860000D02*
G75*
G02*
X189020000Y-44360000I-1J-1500001D01*
G01*
X187520000Y-48060000D02*
G75*
G02*
X189020000Y-49560000I-1J-1500001D01*
G01*
X187520000Y-52460000D02*
G75*
G02*
X189020000Y-53960000I-1J-1500001D01*
G01*
X189020000Y-34699340D02*
G75*
G02*
X187520000Y-36199340I-1500000J0D01*
G01*
X189020000Y-39160000D02*
G75*
G02*
X187520000Y-40660000I-1500000J0D01*
G01*
X189020000Y-44360000D02*
G75*
G02*
X187520000Y-45860000I-1500000J0D01*
G01*
X189020000Y-49560000D02*
G75*
G02*
X187520000Y-51060000I-1500001J1D01*
G01*
D15*
X125275000Y-129125000D02*
X125275000Y-129055000D01*
X126645000Y-130495000D02*
G75*
G02*
X123905000Y-130495000I-1370000J0D01*
G01*
X123905000Y-130495000D02*
G75*
G02*
X126645000Y-130495000I1370000J0D01*
G01*
X129744000Y-122592000D02*
X130514000Y-122592000D01*
X130514000Y-121222000D02*
X130514000Y-123962000D01*
X130514000Y-123962000D02*
X137054000Y-123962000D01*
X137054000Y-121222000D02*
X130514000Y-121222000D01*
X137054000Y-123962000D02*
X137054000Y-121222000D01*
X137824000Y-122592000D02*
X137054000Y-122592000D01*
X179965000Y-112940000D02*
G75*
G02*
X174725000Y-112940000I-2620000J0D01*
G01*
X174725000Y-112940000D02*
G75*
G02*
X179965000Y-112940000I2620000J0D01*
G01*
X97520000Y-42280000D02*
X97520000Y-51520000D01*
X97520000Y-51520000D02*
X100960000Y-51520000D01*
X99240000Y-41590000D02*
X99240000Y-42280000D01*
X99240000Y-52210000D02*
X99240000Y-51520000D01*
X100960000Y-42280000D02*
X97520000Y-42280000D01*
X100960000Y-51520000D02*
X100960000Y-42280000D01*
X88000000Y-58850000D02*
X88000000Y-75590000D01*
X90516000Y-58850000D02*
X88000000Y-58850000D01*
X90516000Y-75590000D02*
X88000000Y-75590000D01*
X95240000Y-58850000D02*
X92724000Y-58850000D01*
X95240000Y-58850000D02*
X95240000Y-75590000D01*
X95240000Y-75590000D02*
X92724000Y-75590000D01*
X153920000Y-98970000D02*
X154940000Y-98970000D01*
X154940000Y-97500000D02*
X154940000Y-100440000D01*
X154940000Y-100440000D02*
X160380000Y-100440000D01*
X155720000Y-97500000D02*
X155720000Y-100440000D01*
X155840000Y-97500000D02*
X155840000Y-100440000D01*
X155960000Y-97500000D02*
X155960000Y-100440000D01*
X160380000Y-97500000D02*
X154940000Y-97500000D01*
X160380000Y-100440000D02*
X160380000Y-97500000D01*
X161400000Y-98970000D02*
X160380000Y-98970000D01*
X181680000Y-108970000D02*
X181680000Y-119470000D01*
X181680000Y-119470000D02*
X202240000Y-119470000D01*
X181740000Y-111970000D02*
X181740000Y-116470000D01*
X181740000Y-116470000D02*
X202180000Y-116470000D01*
X202180000Y-111970000D02*
X181740000Y-111970000D01*
X202180000Y-113220000D02*
X202180000Y-111970000D01*
X202180000Y-116470000D02*
X202180000Y-115220000D01*
X202240000Y-108970000D02*
X181680000Y-108970000D01*
X202240000Y-119470000D02*
X202240000Y-108970000D01*
X202180000Y-115220000D02*
G75*
G02*
X202180000Y-113220000I0J1000000D01*
G01*
X193160000Y-89335000D02*
X193160000Y-94635000D01*
X193160000Y-94635000D02*
X198360000Y-94635000D01*
X198360000Y-89335000D02*
X193160000Y-89335000D01*
X198360000Y-90985000D02*
X198360000Y-89335000D01*
X198360000Y-94635000D02*
X198360000Y-92985000D01*
X198360000Y-92985000D02*
G75*
G02*
X198360000Y-90985000I0J1000000D01*
G01*
X166105000Y-126620000D02*
X165949000Y-126620000D01*
X168421000Y-126620000D02*
X168265000Y-126620000D01*
X166105163Y-129221130D02*
G75*
G02*
X166105000Y-127139039I1079837J1041130D01*
G01*
X166106392Y-129852335D02*
G75*
G02*
X165949484Y-126620000I1078608J1672335D01*
G01*
X168265000Y-127139039D02*
G75*
G02*
X168264837Y-129221130I-1080000J-1040961D01*
G01*
X168420516Y-126620000D02*
G75*
G02*
X168263608Y-129852335I-1235516J-1560000D01*
G01*
X134800000Y-129125000D02*
X134800000Y-129055000D01*
X136170000Y-130495000D02*
G75*
G02*
X133430000Y-130495000I-1370000J0D01*
G01*
X133430000Y-130495000D02*
G75*
G02*
X136170000Y-130495000I1370000J0D01*
G01*
X186575000Y-86304000D02*
X186575000Y-86460000D01*
X186575000Y-88620000D02*
X186575000Y-88776000D01*
X186575000Y-86304484D02*
G75*
G02*
X189807335Y-86461392I1560000J-1235516D01*
G01*
X187094039Y-86460000D02*
G75*
G02*
X189176130Y-86460163I1040961J-1080000D01*
G01*
X189176130Y-88619837D02*
G75*
G02*
X187094039Y-88620000I-1041130J1079837D01*
G01*
X189807335Y-88618608D02*
G75*
G02*
X186575000Y-88775516I-1672335J1078608D01*
G01*
X115909440Y-90630000D02*
X118204408Y-89305000D01*
X117019408Y-87252520D02*
X119389408Y-91357480D01*
X119389408Y-91357480D02*
X129902956Y-85287480D01*
X127532956Y-81182520D02*
X117019408Y-87252520D01*
X129902956Y-85287480D02*
X127532956Y-81182520D01*
X131012923Y-81910000D02*
X128717956Y-83235000D01*
X158700000Y-90080000D02*
G75*
G02*
X153460000Y-90080000I-2620000J0D01*
G01*
X153460000Y-90080000D02*
G75*
G02*
X158700000Y-90080000I2620000J0D01*
G01*
X161700000Y-32590000D02*
X161700000Y-35330000D01*
X161700000Y-32590000D02*
X168940000Y-32590000D01*
X161700000Y-35330000D02*
X168940000Y-35330000D01*
X168940000Y-32590000D02*
X168940000Y-35330000D01*
X160850000Y-93790000D02*
X160850000Y-94235000D01*
X160850000Y-93790000D02*
X167090000Y-93790000D01*
X160850000Y-96085000D02*
X160850000Y-96530000D01*
X160850000Y-96530000D02*
X167090000Y-96530000D01*
X167090000Y-93790000D02*
X167090000Y-94235000D01*
X167090000Y-96085000D02*
X167090000Y-96530000D01*
X119265000Y-124404000D02*
X119265000Y-124560000D01*
X119265000Y-126720000D02*
X119265000Y-126876000D01*
X119265000Y-124404484D02*
G75*
G02*
X122497335Y-124561392I1560000J-1235516D01*
G01*
X119784039Y-124560000D02*
G75*
G02*
X121866130Y-124560163I1040961J-1080000D01*
G01*
X121866130Y-126719837D02*
G75*
G02*
X119784039Y-126720000I-1041130J1079837D01*
G01*
X122497335Y-126718608D02*
G75*
G02*
X119265000Y-126875516I-1672335J1078608D01*
G01*
X151380000Y-78650000D02*
X153670000Y-78650000D01*
X153670000Y-77180000D02*
X153670000Y-80120000D01*
X153670000Y-80120000D02*
X159110000Y-80120000D01*
X158090000Y-80120000D02*
X158090000Y-77180000D01*
X158210000Y-80120000D02*
X158210000Y-77180000D01*
X158330000Y-80120000D02*
X158330000Y-77180000D01*
X159110000Y-77180000D02*
X153670000Y-77180000D01*
X159110000Y-80120000D02*
X159110000Y-77180000D01*
X161400000Y-78650000D02*
X159110000Y-78650000D01*
X102180000Y-100970000D02*
X107420000Y-100970000D01*
X102180000Y-117210000D02*
X102180000Y-100970000D01*
X102180000Y-117210000D02*
X107420000Y-117210000D01*
X107420000Y-117210000D02*
X107420000Y-100970000D01*
X130045000Y-125640000D02*
X130115000Y-125640000D01*
X130045000Y-125640000D02*
G75*
G02*
X127305000Y-125640000I-1370000J0D01*
G01*
X127305000Y-125640000D02*
G75*
G02*
X130045000Y-125640000I1370000J0D01*
G01*
X108342500Y-95797349D02*
X111342500Y-95797349D01*
X108342500Y-98797349D02*
X108342500Y-95797349D01*
X108582500Y-96037349D02*
X108582500Y-118657349D01*
X108582500Y-96037349D02*
X145502500Y-96037349D01*
X108582500Y-118657349D02*
X145502500Y-118657349D01*
X145502500Y-96037349D02*
X145502500Y-118657349D01*
X174935000Y-125920000D02*
X183755000Y-125920000D01*
X174935000Y-126230000D02*
X174935000Y-125920000D01*
X174935000Y-130440000D02*
X174935000Y-130130000D01*
X176845000Y-125220000D02*
X177345000Y-125720000D01*
X177345000Y-125720000D02*
X177845000Y-125220000D01*
X177845000Y-125220000D02*
X176845000Y-125220000D01*
X183755000Y-125920000D02*
X183755000Y-126230000D01*
X183755000Y-130440000D02*
X174935000Y-130440000D01*
X183755000Y-130440000D02*
X183755000Y-130130000D01*
X199470000Y-122425000D02*
X199470000Y-127665000D01*
X199785000Y-122425000D02*
X199470000Y-122425000D01*
X199785000Y-127665000D02*
X199470000Y-127665000D01*
X202210000Y-122425000D02*
X201895000Y-122425000D01*
X202210000Y-122425000D02*
X202210000Y-127665000D01*
X202210000Y-127665000D02*
X201895000Y-127665000D01*
X185480000Y-120206000D02*
X185480000Y-120521000D01*
X185480000Y-120206000D02*
X190720000Y-120206000D01*
X185480000Y-122631000D02*
X185480000Y-122946000D01*
X185480000Y-122946000D02*
X190720000Y-122946000D01*
X190720000Y-120206000D02*
X190720000Y-120521000D01*
X190720000Y-122631000D02*
X190720000Y-122946000D01*
X150475000Y-60690000D02*
X150475000Y-66130000D01*
X150475000Y-65110000D02*
X153415000Y-65110000D01*
X150475000Y-65230000D02*
X153415000Y-65230000D01*
X150475000Y-65350000D02*
X153415000Y-65350000D01*
X150475000Y-66130000D02*
X153415000Y-66130000D01*
X151945000Y-58400000D02*
X151945000Y-60690000D01*
X151945000Y-68420000D02*
X151945000Y-66130000D01*
X153415000Y-60690000D02*
X150475000Y-60690000D01*
X153415000Y-66130000D02*
X153415000Y-60690000D01*
X184240000Y-99520000D02*
X184570000Y-99520000D01*
X184240000Y-106060000D02*
X184240000Y-99520000D01*
X184570000Y-106060000D02*
X184240000Y-106060000D01*
X186650000Y-106060000D02*
X186980000Y-106060000D01*
X186980000Y-99520000D02*
X186650000Y-99520000D01*
X186980000Y-106060000D02*
X186980000Y-99520000D01*
X144860000Y-45740000D02*
X145190000Y-45740000D01*
X144860000Y-52280000D02*
X144860000Y-45740000D01*
X145190000Y-52280000D02*
X144860000Y-52280000D01*
X147270000Y-52280000D02*
X147600000Y-52280000D01*
X147600000Y-45740000D02*
X147270000Y-45740000D01*
X147600000Y-52280000D02*
X147600000Y-45740000D01*
X182735000Y-87540000D02*
X182665000Y-87540000D01*
X185475000Y-87540000D02*
G75*
G02*
X182735000Y-87540000I-1370000J0D01*
G01*
X182735000Y-87540000D02*
G75*
G02*
X185475000Y-87540000I1370000J0D01*
G01*
X188969000Y-98850000D02*
X189635000Y-98850000D01*
X188969000Y-104190000D02*
X188969000Y-98850000D01*
X188969000Y-104190000D02*
X189635000Y-104190000D01*
X191745000Y-98850000D02*
X192411000Y-98850000D01*
X191745000Y-104190000D02*
X192411000Y-104190000D01*
X192411000Y-104190000D02*
X192411000Y-98850000D01*
D17*
X96500000Y-101340000D02*
X96500000Y-116840000D01*
X100400000Y-101340000D02*
X96500000Y-101340000D01*
X100400000Y-101340000D02*
X100400000Y-116840000D01*
X100400000Y-116840000D02*
X96500000Y-116840000D01*
D15*
X169930000Y-96440000D02*
X169930000Y-101510000D01*
X169930000Y-96440000D02*
X179700000Y-96440000D01*
X169930000Y-101510000D02*
X179700000Y-101510000D01*
X179700000Y-96440000D02*
X179700000Y-101510000D01*
X198259000Y-34488000D02*
X198259000Y-34644000D01*
X198259000Y-36804000D02*
X198259000Y-36960000D01*
X198259000Y-34488484D02*
G75*
G02*
X201491335Y-34645392I1560000J-1235516D01*
G01*
X198778039Y-34644000D02*
G75*
G02*
X200860130Y-34644163I1040961J-1080000D01*
G01*
X200860130Y-36803837D02*
G75*
G02*
X198778039Y-36804000I-1041130J1079837D01*
G01*
X201491335Y-36802608D02*
G75*
G02*
X198259000Y-36959516I-1672335J1078608D01*
G01*
X190326000Y-36264000D02*
X190656000Y-36264000D01*
X190326000Y-42804000D02*
X190326000Y-36264000D01*
X190656000Y-42804000D02*
X190326000Y-42804000D01*
X192736000Y-42804000D02*
X193066000Y-42804000D01*
X193066000Y-36264000D02*
X192736000Y-36264000D01*
X193066000Y-42804000D02*
X193066000Y-36264000D01*
X151080000Y-74840000D02*
X151770000Y-74840000D01*
X151770000Y-73120000D02*
X151770000Y-76560000D01*
X151770000Y-76560000D02*
X161010000Y-76560000D01*
X161010000Y-73120000D02*
X151770000Y-73120000D01*
X161010000Y-76560000D02*
X161010000Y-73120000D01*
X161700000Y-74840000D02*
X161010000Y-74840000D01*
X153230000Y-93790000D02*
X153230000Y-94235000D01*
X153230000Y-93790000D02*
X159470000Y-93790000D01*
X153230000Y-96085000D02*
X153230000Y-96530000D01*
X153230000Y-96530000D02*
X159470000Y-96530000D01*
X159470000Y-93790000D02*
X159470000Y-94235000D01*
X159470000Y-96085000D02*
X159470000Y-96530000D01*
X163375000Y-129550000D02*
X163375000Y-129620000D01*
X164745000Y-128180000D02*
G75*
G02*
X162005000Y-128180000I-1370000J0D01*
G01*
X162005000Y-128180000D02*
G75*
G02*
X164745000Y-128180000I1370000J0D01*
G01*
X180430000Y-99520000D02*
X180760000Y-99520000D01*
X180430000Y-106060000D02*
X180430000Y-99520000D01*
X180760000Y-106060000D02*
X180430000Y-106060000D01*
X182840000Y-106060000D02*
X183170000Y-106060000D01*
X183170000Y-99520000D02*
X182840000Y-99520000D01*
X183170000Y-106060000D02*
X183170000Y-99520000D01*
X151190000Y-101340000D02*
X151190000Y-111840000D01*
X151190000Y-111840000D02*
X169210000Y-111840000D01*
X151250000Y-104340000D02*
X151250000Y-108840000D01*
X151250000Y-108840000D02*
X169150000Y-108840000D01*
X169150000Y-104340000D02*
X151250000Y-104340000D01*
X169150000Y-105590000D02*
X169150000Y-104340000D01*
X169150000Y-108840000D02*
X169150000Y-107590000D01*
X169210000Y-101340000D02*
X151190000Y-101340000D01*
X169210000Y-111840000D02*
X169210000Y-101340000D01*
X169150000Y-107590000D02*
G75*
G02*
X169150000Y-105590000I0J1000000D01*
G01*
X181366000Y-79930000D02*
X181366000Y-63820000D01*
X184076000Y-63820000D02*
X184076000Y-61860000D01*
X186616000Y-63820000D02*
X186616000Y-61860000D01*
X189156000Y-63820000D02*
X189156000Y-61860000D01*
X191866000Y-63820000D02*
X181366000Y-63820000D01*
X191866000Y-79930000D02*
X181366000Y-79930000D01*
X191866000Y-79930000D02*
X191866000Y-63820000D01*
X202010000Y-99510000D02*
X202340000Y-99510000D01*
X202010000Y-106050000D02*
X202010000Y-99510000D01*
X202340000Y-106050000D02*
X202010000Y-106050000D01*
X204420000Y-106050000D02*
X204750000Y-106050000D01*
X204750000Y-99510000D02*
X204420000Y-99510000D01*
X204750000Y-106050000D02*
X204750000Y-99510000D01*
X180590000Y-91350000D02*
X181610000Y-91350000D01*
X181610000Y-89880000D02*
X181610000Y-92820000D01*
X181610000Y-92820000D02*
X187050000Y-92820000D01*
X182390000Y-89880000D02*
X182390000Y-92820000D01*
X182510000Y-89880000D02*
X182510000Y-92820000D01*
X182630000Y-89880000D02*
X182630000Y-92820000D01*
X187050000Y-89880000D02*
X181610000Y-89880000D01*
X187050000Y-92820000D02*
X187050000Y-89880000D01*
X188070000Y-91350000D02*
X187050000Y-91350000D01*
X154540000Y-112205000D02*
X154540000Y-112650000D01*
X154540000Y-112205000D02*
X160780000Y-112205000D01*
X154540000Y-114500000D02*
X154540000Y-114945000D01*
X154540000Y-114945000D02*
X160780000Y-114945000D01*
X160780000Y-112205000D02*
X160780000Y-112650000D01*
X160780000Y-114500000D02*
X160780000Y-114945000D01*
X91620000Y-46980000D02*
X91620000Y-50480000D01*
X94240000Y-44360000D02*
G75*
G02*
X89000000Y-44360000I-2620000J0D01*
G01*
X89000000Y-44360000D02*
G75*
G02*
X94240000Y-44360000I2620000J0D01*
G01*
X165949000Y-136725000D02*
X166105000Y-136725000D01*
X168265000Y-136725000D02*
X168421000Y-136725000D01*
X165949484Y-136725000D02*
G75*
G02*
X166106392Y-133492665I1235516J1560000D01*
G01*
X166105000Y-136205961D02*
G75*
G02*
X166105163Y-134123870I1080000J1040961D01*
G01*
X168263608Y-133492665D02*
G75*
G02*
X168420516Y-136725000I-1078608J-1672335D01*
G01*
X168264837Y-134123870D02*
G75*
G02*
X168265000Y-136205961I-1079837J-1041130D01*
G01*
X145861651Y-121855000D02*
X145861651Y-120789000D01*
X145901651Y-122090000D02*
X145901651Y-120554000D01*
X145941651Y-122270000D02*
X145941651Y-120374000D01*
X145981651Y-122420000D02*
X145981651Y-120224000D01*
X146021651Y-122551000D02*
X146021651Y-120093000D01*
X146061651Y-122668000D02*
X146061651Y-119976000D01*
X146101651Y-122775000D02*
X146101651Y-119869000D01*
X146141651Y-122874000D02*
X146141651Y-119770000D01*
X146181651Y-122967000D02*
X146181651Y-119677000D01*
X146221651Y-123053000D02*
X146221651Y-119591000D01*
X146261651Y-123135000D02*
X146261651Y-119509000D01*
X146301651Y-123212000D02*
X146301651Y-119432000D01*
X146341651Y-123286000D02*
X146341651Y-119358000D01*
X146381651Y-123356000D02*
X146381651Y-119288000D01*
X146421651Y-123424000D02*
X146421651Y-119220000D01*
X146461651Y-123488000D02*
X146461651Y-119156000D01*
X146501651Y-123550000D02*
X146501651Y-119094000D01*
X146541651Y-123609000D02*
X146541651Y-119035000D01*
X146581651Y-123667000D02*
X146581651Y-118977000D01*
X146621651Y-123722000D02*
X146621651Y-118922000D01*
X146661651Y-123776000D02*
X146661651Y-118868000D01*
X146701651Y-123827000D02*
X146701651Y-118817000D01*
X146741651Y-123878000D02*
X146741651Y-118766000D01*
X146781651Y-123926000D02*
X146781651Y-118718000D01*
X146821651Y-123973000D02*
X146821651Y-118671000D01*
X146861651Y-124019000D02*
X146861651Y-118625000D01*
X146901651Y-124063000D02*
X146901651Y-118581000D01*
X146941651Y-124106000D02*
X146941651Y-118538000D01*
X146981651Y-124148000D02*
X146981651Y-118496000D01*
X147021651Y-124189000D02*
X147021651Y-118455000D01*
X147061651Y-124229000D02*
X147061651Y-118415000D01*
X147101651Y-124267000D02*
X147101651Y-118377000D01*
X147141651Y-124305000D02*
X147141651Y-118339000D01*
X147181651Y-120282000D02*
X147181651Y-118303000D01*
X147181651Y-124341000D02*
X147181651Y-122362000D01*
X147221651Y-120282000D02*
X147221651Y-118267000D01*
X147221651Y-124377000D02*
X147221651Y-122362000D01*
X147261651Y-120282000D02*
X147261651Y-118232000D01*
X147261651Y-124412000D02*
X147261651Y-122362000D01*
X147301651Y-120282000D02*
X147301651Y-118198000D01*
X147301651Y-124446000D02*
X147301651Y-122362000D01*
X147341651Y-120282000D02*
X147341651Y-118166000D01*
X147341651Y-124478000D02*
X147341651Y-122362000D01*
X147381651Y-120282000D02*
X147381651Y-118133000D01*
X147381651Y-124511000D02*
X147381651Y-122362000D01*
X147421651Y-120282000D02*
X147421651Y-118102000D01*
X147421651Y-124542000D02*
X147421651Y-122362000D01*
X147461651Y-120282000D02*
X147461651Y-118072000D01*
X147461651Y-124572000D02*
X147461651Y-122362000D01*
X147501651Y-120282000D02*
X147501651Y-118042000D01*
X147501651Y-124602000D02*
X147501651Y-122362000D01*
X147541651Y-120282000D02*
X147541651Y-118013000D01*
X147541651Y-124631000D02*
X147541651Y-122362000D01*
X147581651Y-120282000D02*
X147581651Y-117984000D01*
X147581651Y-124660000D02*
X147581651Y-122362000D01*
X147621651Y-120282000D02*
X147621651Y-117957000D01*
X147621651Y-124687000D02*
X147621651Y-122362000D01*
X147661651Y-120282000D02*
X147661651Y-117930000D01*
X147661651Y-124714000D02*
X147661651Y-122362000D01*
X147701651Y-120282000D02*
X147701651Y-117904000D01*
X147701651Y-124740000D02*
X147701651Y-122362000D01*
X147741651Y-120282000D02*
X147741651Y-117878000D01*
X147741651Y-124766000D02*
X147741651Y-122362000D01*
X147781651Y-120282000D02*
X147781651Y-117853000D01*
X147781651Y-124791000D02*
X147781651Y-122362000D01*
X147821651Y-120282000D02*
X147821651Y-117829000D01*
X147821651Y-124815000D02*
X147821651Y-122362000D01*
X147861651Y-120282000D02*
X147861651Y-117805000D01*
X147861651Y-124839000D02*
X147861651Y-122362000D01*
X147901651Y-120282000D02*
X147901651Y-117782000D01*
X147901651Y-124862000D02*
X147901651Y-122362000D01*
X147941651Y-120282000D02*
X147941651Y-117760000D01*
X147941651Y-124884000D02*
X147941651Y-122362000D01*
X147981651Y-120282000D02*
X147981651Y-117738000D01*
X147981651Y-124906000D02*
X147981651Y-122362000D01*
X148021651Y-120282000D02*
X148021651Y-117716000D01*
X148021651Y-124928000D02*
X148021651Y-122362000D01*
X148061651Y-120282000D02*
X148061651Y-117695000D01*
X148061651Y-124949000D02*
X148061651Y-122362000D01*
X148101651Y-120282000D02*
X148101651Y-117675000D01*
X148101651Y-124969000D02*
X148101651Y-122362000D01*
X148141651Y-120282000D02*
X148141651Y-117656000D01*
X148141651Y-124988000D02*
X148141651Y-122362000D01*
X148181651Y-120282000D02*
X148181651Y-117636000D01*
X148181651Y-125008000D02*
X148181651Y-122362000D01*
X148221651Y-120282000D02*
X148221651Y-117618000D01*
X148221651Y-125026000D02*
X148221651Y-122362000D01*
X148261651Y-120282000D02*
X148261651Y-117600000D01*
X148261651Y-125044000D02*
X148261651Y-122362000D01*
X148301651Y-120282000D02*
X148301651Y-117582000D01*
X148301651Y-125062000D02*
X148301651Y-122362000D01*
X148341651Y-120282000D02*
X148341651Y-117565000D01*
X148341651Y-125079000D02*
X148341651Y-122362000D01*
X148381651Y-120282000D02*
X148381651Y-117548000D01*
X148381651Y-125096000D02*
X148381651Y-122362000D01*
X148421651Y-120282000D02*
X148421651Y-117532000D01*
X148421651Y-125112000D02*
X148421651Y-122362000D01*
X148461651Y-120282000D02*
X148461651Y-117517000D01*
X148461651Y-125127000D02*
X148461651Y-122362000D01*
X148501651Y-120282000D02*
X148501651Y-117501000D01*
X148501651Y-125143000D02*
X148501651Y-122362000D01*
X148541651Y-120282000D02*
X148541651Y-117487000D01*
X148541651Y-125157000D02*
X148541651Y-122362000D01*
X148581651Y-120282000D02*
X148581651Y-117472000D01*
X148581651Y-125172000D02*
X148581651Y-122362000D01*
X148621651Y-120282000D02*
X148621651Y-117459000D01*
X148621651Y-125185000D02*
X148621651Y-122362000D01*
X148661651Y-120282000D02*
X148661651Y-117445000D01*
X148661651Y-125199000D02*
X148661651Y-122362000D01*
X148701651Y-120282000D02*
X148701651Y-117433000D01*
X148701651Y-125211000D02*
X148701651Y-122362000D01*
X148741651Y-120282000D02*
X148741651Y-117420000D01*
X148741651Y-125224000D02*
X148741651Y-122362000D01*
X148781651Y-120282000D02*
X148781651Y-117408000D01*
X148781651Y-125236000D02*
X148781651Y-122362000D01*
X148821651Y-120282000D02*
X148821651Y-117397000D01*
X148821651Y-125247000D02*
X148821651Y-122362000D01*
X148861651Y-120282000D02*
X148861651Y-117386000D01*
X148861651Y-125258000D02*
X148861651Y-122362000D01*
X148901651Y-120282000D02*
X148901651Y-117375000D01*
X148901651Y-125269000D02*
X148901651Y-122362000D01*
X148941651Y-120282000D02*
X148941651Y-117365000D01*
X148941651Y-125279000D02*
X148941651Y-122362000D01*
X148981651Y-120282000D02*
X148981651Y-117355000D01*
X148981651Y-125289000D02*
X148981651Y-122362000D01*
X149021651Y-120282000D02*
X149021651Y-117346000D01*
X149021651Y-125298000D02*
X149021651Y-122362000D01*
X149061651Y-120282000D02*
X149061651Y-117337000D01*
X149061651Y-125307000D02*
X149061651Y-122362000D01*
X149101651Y-120282000D02*
X149101651Y-117328000D01*
X149101651Y-125316000D02*
X149101651Y-122362000D01*
X149141651Y-120282000D02*
X149141651Y-117320000D01*
X149141651Y-125324000D02*
X149141651Y-122362000D01*
X149181651Y-120282000D02*
X149181651Y-117312000D01*
X149181651Y-125332000D02*
X149181651Y-122362000D01*
X149221651Y-120282000D02*
X149221651Y-117305000D01*
X149221651Y-125339000D02*
X149221651Y-122362000D01*
X149262651Y-125346000D02*
X149262651Y-117298000D01*
X149302651Y-125352000D02*
X149302651Y-117292000D01*
X149342651Y-125359000D02*
X149342651Y-117285000D01*
X149382651Y-125364000D02*
X149382651Y-117280000D01*
X149422651Y-125370000D02*
X149422651Y-117274000D01*
X149462651Y-125374000D02*
X149462651Y-117270000D01*
X149502651Y-125379000D02*
X149502651Y-117265000D01*
X149542651Y-125383000D02*
X149542651Y-117261000D01*
X149582651Y-125387000D02*
X149582651Y-117257000D01*
X149622651Y-125390000D02*
X149622651Y-117254000D01*
X149662651Y-125393000D02*
X149662651Y-117251000D01*
X149702651Y-125396000D02*
X149702651Y-117248000D01*
X149742651Y-125398000D02*
X149742651Y-117246000D01*
X149782651Y-125399000D02*
X149782651Y-117245000D01*
X149822651Y-125401000D02*
X149822651Y-117243000D01*
X149862651Y-125402000D02*
X149862651Y-117242000D01*
X149902651Y-125402000D02*
X149902651Y-117242000D01*
X149942651Y-125402000D02*
X149942651Y-117242000D01*
X153952349Y-124037000D02*
X153952349Y-123237000D01*
X154352349Y-123637000D02*
X153552349Y-123637000D01*
X154062651Y-121322000D02*
G75*
G02*
X145822651Y-121322000I-4120000J0D01*
G01*
X145822651Y-121322000D02*
G75*
G02*
X154062651Y-121322000I4120000J0D01*
G01*
X127825000Y-128605000D02*
X132895000Y-128605000D01*
X127825000Y-138375000D02*
X127825000Y-128605000D01*
X127825000Y-138375000D02*
X132895000Y-138375000D01*
X132895000Y-138375000D02*
X132895000Y-128605000D01*
X179965000Y-105590000D02*
G75*
G02*
X174725000Y-105590000I-2620000J0D01*
G01*
X174725000Y-105590000D02*
G75*
G02*
X179965000Y-105590000I2620000J0D01*
G01*
X118300000Y-128575000D02*
X123370000Y-128575000D01*
X118300000Y-138345000D02*
X118300000Y-128575000D01*
X118300000Y-138345000D02*
X123370000Y-138345000D01*
X123370000Y-138345000D02*
X123370000Y-128575000D01*
X196515380Y-72702000D02*
X196515380Y-71898000D01*
X196555380Y-72933000D02*
X196555380Y-71667000D01*
X196595380Y-73102000D02*
X196595380Y-71498000D01*
X196635380Y-73240000D02*
X196635380Y-71360000D01*
X196675380Y-73359000D02*
X196675380Y-71241000D01*
X196715380Y-73465000D02*
X196715380Y-71135000D01*
X196755380Y-73562000D02*
X196755380Y-71038000D01*
X196795380Y-73650000D02*
X196795380Y-70950000D01*
X196835380Y-73732000D02*
X196835380Y-70868000D01*
X196875380Y-73809000D02*
X196875380Y-70791000D01*
X196915380Y-73881000D02*
X196915380Y-70719000D01*
X196955380Y-73950000D02*
X196955380Y-70650000D01*
X196995380Y-74014000D02*
X196995380Y-70586000D01*
X197035380Y-74076000D02*
X197035380Y-70524000D01*
X197075380Y-74134000D02*
X197075380Y-70466000D01*
X197115380Y-74190000D02*
X197115380Y-70410000D01*
X197155380Y-74244000D02*
X197155380Y-70356000D01*
X197195380Y-74295000D02*
X197195380Y-70305000D01*
X197235380Y-74344000D02*
X197235380Y-70256000D01*
X197275380Y-74392000D02*
X197275380Y-70208000D01*
X197315380Y-74437000D02*
X197315380Y-70163000D01*
X197355380Y-74482000D02*
X197355380Y-70118000D01*
X197395380Y-74524000D02*
X197395380Y-70076000D01*
X197435380Y-74565000D02*
X197435380Y-70035000D01*
X197475380Y-71260000D02*
X197475380Y-69995000D01*
X197475380Y-74605000D02*
X197475380Y-73340000D01*
X197515380Y-71260000D02*
X197515380Y-69957000D01*
X197515380Y-74643000D02*
X197515380Y-73340000D01*
X197555380Y-71260000D02*
X197555380Y-69920000D01*
X197555380Y-74680000D02*
X197555380Y-73340000D01*
X197595380Y-71260000D02*
X197595380Y-69884000D01*
X197595380Y-74716000D02*
X197595380Y-73340000D01*
X197635380Y-71260000D02*
X197635380Y-69850000D01*
X197635380Y-74750000D02*
X197635380Y-73340000D01*
X197675380Y-71260000D02*
X197675380Y-69816000D01*
X197675380Y-74784000D02*
X197675380Y-73340000D01*
X197715380Y-71260000D02*
X197715380Y-69784000D01*
X197715380Y-74816000D02*
X197715380Y-73340000D01*
X197755380Y-71260000D02*
X197755380Y-69752000D01*
X197755380Y-74848000D02*
X197755380Y-73340000D01*
X197795380Y-71260000D02*
X197795380Y-69722000D01*
X197795380Y-74878000D02*
X197795380Y-73340000D01*
X197835380Y-71260000D02*
X197835380Y-69693000D01*
X197835380Y-74907000D02*
X197835380Y-73340000D01*
X197875380Y-71260000D02*
X197875380Y-69664000D01*
X197875380Y-74936000D02*
X197875380Y-73340000D01*
X197915380Y-71260000D02*
X197915380Y-69636000D01*
X197915380Y-74964000D02*
X197915380Y-73340000D01*
X197955380Y-71260000D02*
X197955380Y-69610000D01*
X197955380Y-74990000D02*
X197955380Y-73340000D01*
X197995380Y-71260000D02*
X197995380Y-69584000D01*
X197995380Y-75016000D02*
X197995380Y-73340000D01*
X198035380Y-71260000D02*
X198035380Y-69558000D01*
X198035380Y-75042000D02*
X198035380Y-73340000D01*
X198075380Y-71260000D02*
X198075380Y-69534000D01*
X198075380Y-75066000D02*
X198075380Y-73340000D01*
X198115380Y-71260000D02*
X198115380Y-69510000D01*
X198115380Y-75090000D02*
X198115380Y-73340000D01*
X198155380Y-71260000D02*
X198155380Y-69488000D01*
X198155380Y-75112000D02*
X198155380Y-73340000D01*
X198195380Y-71260000D02*
X198195380Y-69466000D01*
X198195380Y-75134000D02*
X198195380Y-73340000D01*
X198235380Y-71260000D02*
X198235380Y-69444000D01*
X198235380Y-75156000D02*
X198235380Y-73340000D01*
X198275380Y-71260000D02*
X198275380Y-69424000D01*
X198275380Y-75176000D02*
X198275380Y-73340000D01*
X198315380Y-71260000D02*
X198315380Y-69404000D01*
X198315380Y-75196000D02*
X198315380Y-73340000D01*
X198355380Y-71260000D02*
X198355380Y-69384000D01*
X198355380Y-75216000D02*
X198355380Y-73340000D01*
X198395380Y-71260000D02*
X198395380Y-69366000D01*
X198395380Y-75234000D02*
X198395380Y-73340000D01*
X198435380Y-71260000D02*
X198435380Y-69348000D01*
X198435380Y-75252000D02*
X198435380Y-73340000D01*
X198475380Y-71260000D02*
X198475380Y-69330000D01*
X198475380Y-75270000D02*
X198475380Y-73340000D01*
X198515380Y-71260000D02*
X198515380Y-69314000D01*
X198515380Y-75286000D02*
X198515380Y-73340000D01*
X198555380Y-71260000D02*
X198555380Y-69298000D01*
X198555380Y-75302000D02*
X198555380Y-73340000D01*
X198595380Y-71260000D02*
X198595380Y-69282000D01*
X198595380Y-75318000D02*
X198595380Y-73340000D01*
X198635380Y-71260000D02*
X198635380Y-69267000D01*
X198635380Y-75333000D02*
X198635380Y-73340000D01*
X198675380Y-71260000D02*
X198675380Y-69253000D01*
X198675380Y-75347000D02*
X198675380Y-73340000D01*
X198715380Y-71260000D02*
X198715380Y-69239000D01*
X198715380Y-75361000D02*
X198715380Y-73340000D01*
X198755380Y-71260000D02*
X198755380Y-69226000D01*
X198755380Y-75374000D02*
X198755380Y-73340000D01*
X198795380Y-71260000D02*
X198795380Y-69214000D01*
X198795380Y-75386000D02*
X198795380Y-73340000D01*
X198835380Y-71260000D02*
X198835380Y-69202000D01*
X198835380Y-75398000D02*
X198835380Y-73340000D01*
X198875380Y-71260000D02*
X198875380Y-69190000D01*
X198875380Y-75410000D02*
X198875380Y-73340000D01*
X198915380Y-71260000D02*
X198915380Y-69179000D01*
X198915380Y-75421000D02*
X198915380Y-73340000D01*
X198955380Y-71260000D02*
X198955380Y-69169000D01*
X198955380Y-75431000D02*
X198955380Y-73340000D01*
X198995380Y-71260000D02*
X198995380Y-69159000D01*
X198995380Y-75441000D02*
X198995380Y-73340000D01*
X199035380Y-71260000D02*
X199035380Y-69150000D01*
X199035380Y-75450000D02*
X199035380Y-73340000D01*
X199076380Y-71260000D02*
X199076380Y-69141000D01*
X199076380Y-75459000D02*
X199076380Y-73340000D01*
X199116380Y-71260000D02*
X199116380Y-69133000D01*
X199116380Y-75467000D02*
X199116380Y-73340000D01*
X199156380Y-71260000D02*
X199156380Y-69125000D01*
X199156380Y-75475000D02*
X199156380Y-73340000D01*
X199196380Y-71260000D02*
X199196380Y-69118000D01*
X199196380Y-75482000D02*
X199196380Y-73340000D01*
X199236380Y-71260000D02*
X199236380Y-69111000D01*
X199236380Y-75489000D02*
X199236380Y-73340000D01*
X199276380Y-71260000D02*
X199276380Y-69105000D01*
X199276380Y-75495000D02*
X199276380Y-73340000D01*
X199316380Y-71260000D02*
X199316380Y-69099000D01*
X199316380Y-75501000D02*
X199316380Y-73340000D01*
X199356380Y-71260000D02*
X199356380Y-69094000D01*
X199356380Y-75506000D02*
X199356380Y-73340000D01*
X199396380Y-71260000D02*
X199396380Y-69089000D01*
X199396380Y-75511000D02*
X199396380Y-73340000D01*
X199436380Y-71260000D02*
X199436380Y-69085000D01*
X199436380Y-75515000D02*
X199436380Y-73340000D01*
X199476380Y-71260000D02*
X199476380Y-69082000D01*
X199476380Y-75518000D02*
X199476380Y-73340000D01*
X199516380Y-71260000D02*
X199516380Y-69078000D01*
X199516380Y-75522000D02*
X199516380Y-73340000D01*
X199556380Y-75524000D02*
X199556380Y-69076000D01*
X199596380Y-75527000D02*
X199596380Y-69073000D01*
X199636380Y-75528000D02*
X199636380Y-69072000D01*
X199676380Y-75530000D02*
X199676380Y-69070000D01*
X199716380Y-75530000D02*
X199716380Y-69070000D01*
X199756380Y-75530000D02*
X199756380Y-69070000D01*
X202941621Y-74454000D02*
X202941621Y-73824000D01*
X203256621Y-74139000D02*
X202626621Y-74139000D01*
X203026380Y-72300000D02*
G75*
G02*
X196486380Y-72300000I-3270000J0D01*
G01*
X196486380Y-72300000D02*
G75*
G02*
X203026380Y-72300000I3270000J0D01*
G01*
X85550000Y-91070000D02*
X87050000Y-91070000D01*
X85550000Y-94670000D02*
X85550000Y-91070000D01*
X88750000Y-94670000D02*
X88750000Y-94170000D01*
X91050000Y-91070000D02*
X92550000Y-91070000D01*
X95750000Y-91070000D02*
X97650000Y-91070000D01*
X100750000Y-91070000D02*
X102750000Y-91070000D01*
X105850000Y-91070000D02*
X107850000Y-91070000D01*
X107850000Y-91070000D02*
X107850000Y-94670000D01*
X107850000Y-94670000D02*
X85550000Y-94670000D01*
%LPC*%
D18*
X159565000Y-128180000D03*
D19*
X157025000Y-128180000D03*
X154485000Y-128180000D03*
X151945000Y-128180000D03*
X149405000Y-128180000D03*
X146865000Y-128180000D03*
X144325000Y-128180000D03*
X144325000Y-135800000D03*
X146865000Y-135800000D03*
X149405000Y-135800000D03*
X151945000Y-135800000D03*
X154485000Y-135800000D03*
X157025000Y-135800000D03*
X159565000Y-135800000D03*
D20*
X205753621Y-72299999D03*
D21*
X208253621Y-72299999D03*
X200205000Y-98970000D03*
D22*
X200205000Y-106590000D03*
D23*
X89680000Y-119290000D03*
X89680000Y-124290000D03*
D24*
X104680000Y-119290000D03*
X104680000Y-124290000D03*
D25*
X207500000Y-32500000D03*
D26*
X137820000Y-45200000D03*
D27*
X137820000Y-47740000D03*
X137820000Y-50280000D03*
D21*
X158930000Y-40550000D03*
D22*
X158930000Y-53250000D03*
D21*
X155755000Y-69760000D03*
D22*
X155755000Y-57060000D03*
D21*
X179845000Y-118020000D03*
X174845000Y-118020000D03*
D28*
X117500000Y-65172117D03*
D29*
X117500000Y-75172117D03*
D30*
X175245000Y-135800000D03*
X183445000Y-135800000D03*
D31*
X177345000Y-135800000D03*
D32*
X179345000Y-135800000D03*
X181345000Y-135800000D03*
D33*
X137320000Y-89120000D03*
X143320000Y-89120000D03*
X140570000Y-35370000D03*
D34*
X129974000Y-92346000D03*
D35*
X127434000Y-92346000D03*
D21*
X197030000Y-98970000D03*
D22*
X197030000Y-106590000D03*
D36*
X195864000Y-53504000D03*
X208864000Y-53504000D03*
D21*
X172265000Y-121195000D03*
D22*
X179885000Y-121195000D03*
D21*
X162700000Y-90080000D03*
X164700000Y-90080000D03*
D28*
X117500000Y-37232117D03*
D29*
X117500000Y-47232117D03*
D21*
X99240000Y-63410000D03*
D22*
X99240000Y-76110000D03*
D36*
X113000000Y-130750000D03*
X113000000Y-123250000D03*
D37*
X203888000Y-85508000D03*
D38*
X203888000Y-80428000D03*
D37*
X89570000Y-103620000D03*
D38*
X89570000Y-108700000D03*
X89570000Y-113780000D03*
D21*
X163375000Y-135800000D03*
D22*
X163375000Y-133260000D03*
D26*
X137820000Y-70080000D03*
D27*
X137820000Y-72620000D03*
X137820000Y-75160000D03*
D39*
X176075000Y-79535000D03*
X176075000Y-87735000D03*
D40*
X176075000Y-81635000D03*
D41*
X176075000Y-83635000D03*
X176075000Y-85635000D03*
D21*
X198260000Y-121500000D03*
X193260000Y-121500000D03*
D42*
X171630000Y-136435000D03*
D43*
X171630000Y-133895000D03*
D42*
X171630000Y-126910000D03*
D43*
X171630000Y-129450000D03*
D44*
X165280000Y-64560000D03*
X165280000Y-49560000D03*
D21*
X146230000Y-80555000D03*
D22*
X146230000Y-72935000D03*
D38*
X95000000Y-137500000D03*
D36*
X173520000Y-49560000D03*
X186520000Y-49560000D03*
X173520000Y-44360000D03*
X173520000Y-39160000D03*
X186520000Y-39160000D03*
X173520000Y-54760000D03*
X173520000Y-33960000D03*
X186520000Y-54760000D03*
X186520000Y-44360000D03*
X186520000Y-33960000D03*
D21*
X125275000Y-130495000D03*
D22*
X125275000Y-127955000D03*
D21*
X128704000Y-122592000D03*
D22*
X138864000Y-122592000D03*
D21*
X177345000Y-111940000D03*
X177345000Y-113940000D03*
X99240000Y-40550000D03*
D22*
X99240000Y-53250000D03*
D44*
X91620000Y-59720000D03*
X91620000Y-74720000D03*
D42*
X152580000Y-98970000D03*
D43*
X162740000Y-98970000D03*
D18*
X200850000Y-110410000D03*
D19*
X198310000Y-110410000D03*
X195770000Y-110410000D03*
X193230000Y-110410000D03*
X190690000Y-110410000D03*
X188150000Y-110410000D03*
X185610000Y-110410000D03*
X183070000Y-110410000D03*
X183070000Y-118030000D03*
X185610000Y-118030000D03*
X188150000Y-118030000D03*
X190690000Y-118030000D03*
X193230000Y-118030000D03*
X195770000Y-118030000D03*
X198310000Y-118030000D03*
X200850000Y-118030000D03*
D20*
X197030000Y-88175000D03*
D22*
X194490000Y-88175000D03*
X194490000Y-95795000D03*
X197030000Y-95795000D03*
D45*
X167185000Y-126910000D03*
D46*
X167185000Y-129450000D03*
D21*
X134800000Y-130495000D03*
D22*
X134800000Y-127955000D03*
D45*
X186865000Y-87540000D03*
D46*
X189405000Y-87540000D03*
D47*
X132260000Y-81190000D03*
D48*
X114662364Y-91350000D03*
D21*
X155080000Y-90080000D03*
X157080000Y-90080000D03*
X162820000Y-33960000D03*
X167820000Y-33960000D03*
D38*
X95000000Y-32500000D03*
D21*
X161470000Y-95160000D03*
X166470000Y-95160000D03*
D45*
X119555000Y-125640000D03*
D46*
X122095000Y-125640000D03*
D42*
X162740000Y-78650000D03*
D43*
X150040000Y-78650000D03*
D25*
X87500000Y-32500000D03*
D36*
X104800000Y-112840000D03*
X104800000Y-105340000D03*
D21*
X128675000Y-125640000D03*
D22*
X131215000Y-125640000D03*
D49*
X112502500Y-104847349D03*
D50*
X112502500Y-109847349D03*
X141582500Y-99847349D03*
X141582500Y-114847349D03*
D30*
X175245000Y-128180000D03*
X183445000Y-128180000D03*
D31*
X177345000Y-128180000D03*
D32*
X179345000Y-128180000D03*
X181345000Y-128180000D03*
D25*
X87500000Y-137500000D03*
D21*
X200840000Y-122545000D03*
X200840000Y-127545000D03*
X185600000Y-121576000D03*
X190600000Y-121576000D03*
D42*
X151945000Y-69760000D03*
D43*
X151945000Y-57060000D03*
D21*
X185610000Y-106600000D03*
D22*
X185610000Y-98980000D03*
D21*
X146230000Y-52820000D03*
D22*
X146230000Y-45200000D03*
D21*
X184105000Y-87540000D03*
D22*
X181565000Y-87540000D03*
D21*
X190690000Y-104020000D03*
X190690000Y-99020000D03*
D46*
X99150000Y-105340000D03*
X97750000Y-112840000D03*
D51*
X177355000Y-98970000D03*
X174815000Y-98970000D03*
X172275000Y-98970000D03*
D45*
X198549000Y-35724000D03*
D46*
X201089000Y-35724000D03*
D21*
X191696000Y-43344000D03*
D22*
X191696000Y-35724000D03*
D21*
X162740000Y-74840000D03*
D22*
X150040000Y-74840000D03*
D21*
X153850000Y-95160000D03*
X158850000Y-95160000D03*
X163375000Y-128180000D03*
D22*
X163375000Y-130720000D03*
D21*
X181800000Y-106600000D03*
D22*
X181800000Y-98980000D03*
D18*
X167820000Y-102780000D03*
D19*
X165280000Y-102780000D03*
X162740000Y-102780000D03*
X160200000Y-102780000D03*
X157660000Y-102780000D03*
X155120000Y-102780000D03*
X152580000Y-102780000D03*
X152580000Y-110400000D03*
X155120000Y-110400000D03*
X157660000Y-110400000D03*
X160200000Y-110400000D03*
X162740000Y-110400000D03*
X165280000Y-110400000D03*
X167820000Y-110400000D03*
D52*
X186616000Y-76510000D03*
D53*
X189156000Y-60710000D03*
D54*
X186616000Y-60710000D03*
X184076000Y-60710000D03*
D21*
X203380000Y-106590000D03*
D22*
X203380000Y-98970000D03*
D42*
X179250000Y-91350000D03*
D43*
X189410000Y-91350000D03*
D21*
X155160000Y-113575000D03*
X160160000Y-113575000D03*
D47*
X91620000Y-44360000D03*
D55*
X91620000Y-51980000D03*
D45*
X167185000Y-136435000D03*
D46*
X167185000Y-133895000D03*
D20*
X151692651Y-121322000D03*
D21*
X148192651Y-121322000D03*
D51*
X130355000Y-130950000D03*
X130355000Y-133490000D03*
X130355000Y-136030000D03*
D21*
X177345000Y-106590000D03*
X177345000Y-104590000D03*
D51*
X120830000Y-130920000D03*
X120830000Y-133460000D03*
X120830000Y-136000000D03*
D20*
X201006380Y-72300000D03*
D21*
X198506380Y-72300000D03*
D25*
X207500000Y-137500000D03*
D38*
X200000000Y-137500000D03*
D56*
X89050000Y-92270000D03*
D57*
X94130000Y-92270000D03*
X99210000Y-92270000D03*
X104290000Y-92270000D03*
D36*
X148135000Y-57060000D03*
X133530000Y-57060000D03*
X148135000Y-68490000D03*
X133530000Y-64560000D03*
D58*
X140642000Y-131990000D03*
X140642000Y-135546000D03*
D36*
X173535000Y-102780000D03*
X173535000Y-110400000D03*
D58*
X155120000Y-122846000D03*
X186870000Y-112940000D03*
X155120000Y-116242000D03*
X194490000Y-115480000D03*
X186616000Y-126148000D03*
X183060000Y-121195000D03*
X132260000Y-119925000D03*
X132260000Y-99478000D03*
D36*
X162740000Y-82460000D03*
D58*
X144325000Y-125386000D03*
X138864000Y-119925000D03*
X132260000Y-114972000D03*
X137022500Y-119925000D03*
D36*
X150040000Y-82460000D03*
D58*
X195125000Y-66712000D03*
X202872000Y-66712000D03*
X194490000Y-98970000D03*
X194490000Y-106590000D03*
X157660000Y-116115000D03*
X157660000Y-124370000D03*
X195760000Y-124370000D03*
X188775000Y-124370000D03*
X162740000Y-123578000D03*
X162740000Y-116115000D03*
X137975000Y-137070000D03*
X128958000Y-114972000D03*
X137848000Y-126251000D03*
X128958000Y-99478000D03*
%LPD*%
M02*
