G04 #@! TF.GenerationSoftware,KiCad,Pcbnew,8.0.3*
G04 #@! TF.CreationDate,2024-07-02T01:34:26-03:00*
G04 #@! TF.ProjectId,tp4potencia-rounded,74703470-6f74-4656-9e63-69612d726f75,1.0*
G04 #@! TF.SameCoordinates,Original*
G04 #@! TF.FileFunction,Soldermask,Top*
G04 #@! TF.FilePolarity,Negative*
%FSLAX46Y46*%
G04 Gerber Fmt 4.6, Leading zero omitted, Abs format (unit mm)*
G04 Created by KiCad (PCBNEW 8.0.3) date 2024-07-02 01:34:26*
%MOMM*%
%LPD*%
G01*
G04 APERTURE LIST*
G04 Aperture macros list*
%AMRoundRect*
0 Rectangle with rounded corners*
0 $1 Rounding radius*
0 $2 $3 $4 $5 $6 $7 $8 $9 X,Y pos of 4 corners*
0 Add a 4 corners polygon primitive as box body*
4,1,4,$2,$3,$4,$5,$6,$7,$8,$9,$2,$3,0*
0 Add four circle primitives for the rounded corners*
1,1,$1+$1,$2,$3*
1,1,$1+$1,$4,$5*
1,1,$1+$1,$6,$7*
1,1,$1+$1,$8,$9*
0 Add four rect primitives between the rounded corners*
20,1,$1+$1,$2,$3,$4,$5,0*
20,1,$1+$1,$4,$5,$6,$7,0*
20,1,$1+$1,$6,$7,$8,$9,0*
20,1,$1+$1,$8,$9,$2,$3,0*%
%AMHorizOval*
0 Thick line with rounded ends*
0 $1 width*
0 $2 $3 position (X,Y) of the first rounded end (center of the circle)*
0 $4 $5 position (X,Y) of the second rounded end (center of the circle)*
0 Add line between two ends*
20,1,$1,$2,$3,$4,$5,0*
0 Add two circle primitives to create the rounded ends*
1,1,$1,$2,$3*
1,1,$1,$4,$5*%
G04 Aperture macros list end*
%ADD10R,1.600000X2.400000*%
%ADD11O,1.600000X2.400000*%
%ADD12R,1.600000X1.600000*%
%ADD13C,1.600000*%
%ADD14O,1.600000X1.600000*%
%ADD15RoundRect,0.575000X-0.575000X-0.575000X0.575000X-0.575000X0.575000X0.575000X-0.575000X0.575000X0*%
%ADD16C,2.300000*%
%ADD17C,6.400000*%
%ADD18R,2.000000X1.905000*%
%ADD19O,2.000000X1.905000*%
%ADD20R,4.000000X4.000000*%
%ADD21C,4.000000*%
%ADD22O,2.200000X3.500000*%
%ADD23R,1.500000X2.500000*%
%ADD24O,1.500000X2.500000*%
%ADD25C,5.000000*%
%ADD26RoundRect,0.250000X0.620000X0.845000X-0.620000X0.845000X-0.620000X-0.845000X0.620000X-0.845000X0*%
%ADD27O,1.740000X2.190000*%
%ADD28C,2.000000*%
%ADD29R,3.000000X3.000000*%
%ADD30C,3.000000*%
%ADD31O,3.500000X2.200000*%
%ADD32R,2.500000X1.500000*%
%ADD33O,2.500000X1.500000*%
%ADD34R,2.200000X2.200000*%
%ADD35O,2.200000X2.200000*%
%ADD36C,2.200000*%
%ADD37R,1.800000X1.800000*%
%ADD38C,1.800000*%
%ADD39C,2.400000*%
%ADD40HorizOval,2.400000X0.000000X0.000000X0.000000X0.000000X0*%
%ADD41R,1.700000X2.000000*%
%ADD42O,1.700000X2.000000*%
%ADD43C,1.440000*%
%ADD44O,3.500000X3.500000*%
%ADD45R,1.905000X2.000000*%
%ADD46O,1.905000X2.000000*%
%ADD47O,2.400000X2.400000*%
%ADD48R,3.200000X3.200000*%
%ADD49C,3.200000*%
%ADD50C,1.500000*%
G04 APERTURE END LIST*
D10*
X159565000Y-128180000D03*
D11*
X157025000Y-128180000D03*
X154485000Y-128180000D03*
X151945000Y-128180000D03*
X149405000Y-128180000D03*
X146865000Y-128180000D03*
X144325000Y-128180000D03*
X144325000Y-135800000D03*
X146865000Y-135800000D03*
X149405000Y-135800000D03*
X151945000Y-135800000D03*
X154485000Y-135800000D03*
X157025000Y-135800000D03*
X159565000Y-135800000D03*
D12*
X205753621Y-72299999D03*
D13*
X208253621Y-72299999D03*
X200205000Y-98970000D03*
D14*
X200205000Y-106590000D03*
D15*
X89680000Y-119290000D03*
X89680000Y-124290000D03*
D16*
X104680000Y-119290000D03*
X104680000Y-124290000D03*
D17*
X207500000Y-32500000D03*
D18*
X137820000Y-45200000D03*
D19*
X137820000Y-47740000D03*
X137820000Y-50280000D03*
D13*
X158930000Y-40550000D03*
D14*
X158930000Y-53250000D03*
D13*
X155755000Y-69760000D03*
D14*
X155755000Y-57060000D03*
D13*
X179845000Y-118020000D03*
X174845000Y-118020000D03*
D20*
X117500000Y-65172117D03*
D21*
X117500000Y-75172117D03*
D22*
X175245000Y-135800000D03*
X183445000Y-135800000D03*
D23*
X177345000Y-135800000D03*
D24*
X179345000Y-135800000D03*
X181345000Y-135800000D03*
D25*
X137320000Y-89120000D03*
X143320000Y-89120000D03*
X140570000Y-35370000D03*
D26*
X129974000Y-92346000D03*
D27*
X127434000Y-92346000D03*
D13*
X197030000Y-98970000D03*
D14*
X197030000Y-106590000D03*
D28*
X195864000Y-53504000D03*
X208864000Y-53504000D03*
D13*
X172265000Y-121195000D03*
D14*
X179885000Y-121195000D03*
D13*
X162700000Y-90080000D03*
X164700000Y-90080000D03*
D20*
X117500000Y-37232117D03*
D21*
X117500000Y-47232117D03*
D13*
X99240000Y-63410000D03*
D14*
X99240000Y-76110000D03*
D28*
X113000000Y-130750000D03*
X113000000Y-123250000D03*
D29*
X203888000Y-85508000D03*
D30*
X203888000Y-80428000D03*
D29*
X89570000Y-103620000D03*
D30*
X89570000Y-108700000D03*
X89570000Y-113780000D03*
D13*
X163375000Y-135800000D03*
D14*
X163375000Y-133260000D03*
D18*
X137820000Y-70080000D03*
D19*
X137820000Y-72620000D03*
X137820000Y-75160000D03*
D31*
X176075000Y-79535000D03*
X176075000Y-87735000D03*
D32*
X176075000Y-81635000D03*
D33*
X176075000Y-83635000D03*
X176075000Y-85635000D03*
D13*
X198260000Y-121500000D03*
X193260000Y-121500000D03*
D34*
X171630000Y-136435000D03*
D35*
X171630000Y-133895000D03*
D34*
X171630000Y-126910000D03*
D35*
X171630000Y-129450000D03*
D36*
X165280000Y-64560000D03*
X165280000Y-49560000D03*
D13*
X146230000Y-80555000D03*
D14*
X146230000Y-72935000D03*
D30*
X95000000Y-137500000D03*
D28*
X173520000Y-49560000D03*
X186520000Y-49560000D03*
X173520000Y-44360000D03*
X173520000Y-39160000D03*
X186520000Y-39160000D03*
X173520000Y-54760000D03*
X173520000Y-33960000D03*
X186520000Y-54760000D03*
X186520000Y-44360000D03*
X186520000Y-33960000D03*
D13*
X125275000Y-130495000D03*
D14*
X125275000Y-127955000D03*
D13*
X128704000Y-122592000D03*
D14*
X138864000Y-122592000D03*
D13*
X177345000Y-111940000D03*
X177345000Y-113940000D03*
X99240000Y-40550000D03*
D14*
X99240000Y-53250000D03*
D36*
X91620000Y-59720000D03*
X91620000Y-74720000D03*
D34*
X152580000Y-98970000D03*
D35*
X162740000Y-98970000D03*
D10*
X200850000Y-110410000D03*
D11*
X198310000Y-110410000D03*
X195770000Y-110410000D03*
X193230000Y-110410000D03*
X190690000Y-110410000D03*
X188150000Y-110410000D03*
X185610000Y-110410000D03*
X183070000Y-110410000D03*
X183070000Y-118030000D03*
X185610000Y-118030000D03*
X188150000Y-118030000D03*
X190690000Y-118030000D03*
X193230000Y-118030000D03*
X195770000Y-118030000D03*
X198310000Y-118030000D03*
X200850000Y-118030000D03*
D12*
X197030000Y-88175000D03*
D14*
X194490000Y-88175000D03*
X194490000Y-95795000D03*
X197030000Y-95795000D03*
D37*
X167185000Y-126910000D03*
D38*
X167185000Y-129450000D03*
D13*
X134800000Y-130495000D03*
D14*
X134800000Y-127955000D03*
D37*
X186865000Y-87540000D03*
D38*
X189405000Y-87540000D03*
D39*
X132260000Y-81190000D03*
D40*
X114662364Y-91350000D03*
D13*
X155080000Y-90080000D03*
X157080000Y-90080000D03*
X162820000Y-33960000D03*
X167820000Y-33960000D03*
D30*
X95000000Y-32500000D03*
D13*
X161470000Y-95160000D03*
X166470000Y-95160000D03*
D37*
X119555000Y-125640000D03*
D38*
X122095000Y-125640000D03*
D34*
X162740000Y-78650000D03*
D35*
X150040000Y-78650000D03*
D17*
X87500000Y-32500000D03*
D28*
X104800000Y-112840000D03*
X104800000Y-105340000D03*
D13*
X128675000Y-125640000D03*
D14*
X131215000Y-125640000D03*
D41*
X112502500Y-104847349D03*
D42*
X112502500Y-109847349D03*
X141582500Y-99847349D03*
X141582500Y-114847349D03*
D22*
X175245000Y-128180000D03*
X183445000Y-128180000D03*
D23*
X177345000Y-128180000D03*
D24*
X179345000Y-128180000D03*
X181345000Y-128180000D03*
D17*
X87500000Y-137500000D03*
D13*
X200840000Y-122545000D03*
X200840000Y-127545000D03*
X185600000Y-121576000D03*
X190600000Y-121576000D03*
D34*
X151945000Y-69760000D03*
D35*
X151945000Y-57060000D03*
D13*
X185610000Y-106600000D03*
D14*
X185610000Y-98980000D03*
D13*
X146230000Y-52820000D03*
D14*
X146230000Y-45200000D03*
D13*
X184105000Y-87540000D03*
D14*
X181565000Y-87540000D03*
D13*
X190690000Y-104020000D03*
X190690000Y-99020000D03*
D38*
X99150000Y-105340000D03*
X97750000Y-112840000D03*
D43*
X177355000Y-98970000D03*
X174815000Y-98970000D03*
X172275000Y-98970000D03*
D37*
X198549000Y-35724000D03*
D38*
X201089000Y-35724000D03*
D13*
X191696000Y-43344000D03*
D14*
X191696000Y-35724000D03*
D13*
X162740000Y-74840000D03*
D14*
X150040000Y-74840000D03*
D13*
X153850000Y-95160000D03*
X158850000Y-95160000D03*
X163375000Y-128180000D03*
D14*
X163375000Y-130720000D03*
D13*
X181800000Y-106600000D03*
D14*
X181800000Y-98980000D03*
D10*
X167820000Y-102780000D03*
D11*
X165280000Y-102780000D03*
X162740000Y-102780000D03*
X160200000Y-102780000D03*
X157660000Y-102780000D03*
X155120000Y-102780000D03*
X152580000Y-102780000D03*
X152580000Y-110400000D03*
X155120000Y-110400000D03*
X157660000Y-110400000D03*
X160200000Y-110400000D03*
X162740000Y-110400000D03*
X165280000Y-110400000D03*
X167820000Y-110400000D03*
D44*
X186616000Y-76510000D03*
D45*
X189156000Y-60710000D03*
D46*
X186616000Y-60710000D03*
X184076000Y-60710000D03*
D13*
X203380000Y-106590000D03*
D14*
X203380000Y-98970000D03*
D34*
X179250000Y-91350000D03*
D35*
X189410000Y-91350000D03*
D13*
X155160000Y-113575000D03*
X160160000Y-113575000D03*
D39*
X91620000Y-44360000D03*
D47*
X91620000Y-51980000D03*
D37*
X167185000Y-136435000D03*
D38*
X167185000Y-133895000D03*
D12*
X151692651Y-121322000D03*
D13*
X148192651Y-121322000D03*
D43*
X130355000Y-130950000D03*
X130355000Y-133490000D03*
X130355000Y-136030000D03*
D13*
X177345000Y-106590000D03*
X177345000Y-104590000D03*
D43*
X120830000Y-130920000D03*
X120830000Y-133460000D03*
X120830000Y-136000000D03*
D12*
X201006380Y-72300000D03*
D13*
X198506380Y-72300000D03*
D17*
X207500000Y-137500000D03*
D30*
X200000000Y-137500000D03*
D48*
X89050000Y-92270000D03*
D49*
X94130000Y-92270000D03*
X99210000Y-92270000D03*
X104290000Y-92270000D03*
D28*
X148135000Y-57060000D03*
X133530000Y-57060000D03*
X148135000Y-68490000D03*
X133530000Y-64560000D03*
D50*
X140642000Y-131990000D03*
X140642000Y-135546000D03*
D28*
X173535000Y-102780000D03*
X173535000Y-110400000D03*
D50*
X155120000Y-122846000D03*
X186870000Y-112940000D03*
X155120000Y-116242000D03*
X194490000Y-115480000D03*
X186616000Y-126148000D03*
X183060000Y-121195000D03*
X132260000Y-119925000D03*
X132260000Y-99478000D03*
D28*
X162740000Y-82460000D03*
D50*
X144325000Y-125386000D03*
X138864000Y-119925000D03*
X132260000Y-114972000D03*
X137022500Y-119925000D03*
D28*
X150040000Y-82460000D03*
D50*
X195125000Y-66712000D03*
X202872000Y-66712000D03*
X194490000Y-98970000D03*
X194490000Y-106590000D03*
X157660000Y-116115000D03*
X157660000Y-124370000D03*
X195760000Y-124370000D03*
X188775000Y-124370000D03*
X162740000Y-123578000D03*
X162740000Y-116115000D03*
X137975000Y-137070000D03*
X128958000Y-114972000D03*
X137848000Y-126251000D03*
X128958000Y-99478000D03*
M02*
