<?xml version="1.0" standalone="no"?>
<!DOCTYPE svg PUBLIC "-//W3C//DTD SVG 20010904//EN"
 "http://www.w3.org/TR/2001/REC-SVG-20010904/DTD/svg10.dtd">
<svg version="1.0" xmlns="http://www.w3.org/2000/svg"
 width="207.000000pt" height="243.000000pt" viewBox="0 0 207.000000 243.000000"
 preserveAspectRatio="xMidYMid meet">

<g transform="translate(0.000000,243.000000) scale(0.100000,-0.100000)"
fill="#000000" stroke="none">
<path d="M860 2099 l0 -331 -27 6 c-16 4 -62 23 -103 44 -110 54 -232 178
-288 292 -42 85 -72 192 -72 263 l0 37 -186 0 -186 0 7 -82 c38 -441 345 -806
772 -919 46 -12 83 -26 83 -31 0 -4 -182 -8 -405 -8 l-405 0 0 -180 0 -180
363 0 362 0 -81 -29 c-381 -132 -654 -484 -689 -889 l-8 -82 185 0 185 0 7 70
c15 170 117 349 257 454 57 43 154 95 207 111 l22 6 0 -325 0 -326 175 0 175
0 0 326 0 325 23 -6 c103 -32 242 -126 314 -214 82 -100 152 -278 153 -388 l0
-33 186 0 185 0 -7 73 c-28 303 -172 569 -401 741 -106 79 -179 119 -287 157
l-81 28 362 0 362 1 3 180 3 180 -407 0 c-225 0 -408 4 -408 8 0 4 44 20 98
35 420 118 719 480 757 915 l7 82 -186 0 -186 0 0 -37 c0 -68 -29 -174 -69
-257 -68 -140 -207 -269 -351 -326 -28 -11 -55 -20 -60 -20 -6 0 -10 125 -10
330 l0 330 -175 0 -175 0 0 -331z"/>
</g>
</svg>
