%TF.GenerationSoftware,KiCad,Pcbnew,8.0.0*%
%TF.CreationDate,2024-06-30T22:05:54-03:00*%
%TF.ProjectId,tp4potencia,74703470-6f74-4656-9e63-69612e6b6963,0.4*%
%TF.SameCoordinates,Original*%
%TF.FileFunction,Legend,Bot*%
%TF.FilePolarity,Positive*%
%FSLAX46Y46*%
G04 Gerber Fmt 4.6, Leading zero omitted, Abs format (unit mm)*
G04 Created by KiCad (PCBNEW 8.0.0) date 2024-06-30 22:05:54*
%MOMM*%
%LPD*%
G01*
G04 APERTURE LIST*
%ADD10C,0.150000*%
%ADD11C,0.120000*%
G04 APERTURE END LIST*
D10*
X132834580Y-134357142D02*
X132882200Y-134309523D01*
X132882200Y-134309523D02*
X132929819Y-134166666D01*
X132929819Y-134166666D02*
X132929819Y-134071428D01*
X132929819Y-134071428D02*
X132882200Y-133928571D01*
X132882200Y-133928571D02*
X132786961Y-133833333D01*
X132786961Y-133833333D02*
X132691723Y-133785714D01*
X132691723Y-133785714D02*
X132501247Y-133738095D01*
X132501247Y-133738095D02*
X132358390Y-133738095D01*
X132358390Y-133738095D02*
X132167914Y-133785714D01*
X132167914Y-133785714D02*
X132072676Y-133833333D01*
X132072676Y-133833333D02*
X131977438Y-133928571D01*
X131977438Y-133928571D02*
X131929819Y-134071428D01*
X131929819Y-134071428D02*
X131929819Y-134166666D01*
X131929819Y-134166666D02*
X131977438Y-134309523D01*
X131977438Y-134309523D02*
X132025057Y-134357142D01*
X132025057Y-134738095D02*
X131977438Y-134785714D01*
X131977438Y-134785714D02*
X131929819Y-134880952D01*
X131929819Y-134880952D02*
X131929819Y-135119047D01*
X131929819Y-135119047D02*
X131977438Y-135214285D01*
X131977438Y-135214285D02*
X132025057Y-135261904D01*
X132025057Y-135261904D02*
X132120295Y-135309523D01*
X132120295Y-135309523D02*
X132215533Y-135309523D01*
X132215533Y-135309523D02*
X132358390Y-135261904D01*
X132358390Y-135261904D02*
X132929819Y-134690476D01*
X132929819Y-134690476D02*
X132929819Y-135309523D01*
X131929819Y-136214285D02*
X131929819Y-135738095D01*
X131929819Y-135738095D02*
X132406009Y-135690476D01*
X132406009Y-135690476D02*
X132358390Y-135738095D01*
X132358390Y-135738095D02*
X132310771Y-135833333D01*
X132310771Y-135833333D02*
X132310771Y-136071428D01*
X132310771Y-136071428D02*
X132358390Y-136166666D01*
X132358390Y-136166666D02*
X132406009Y-136214285D01*
X132406009Y-136214285D02*
X132501247Y-136261904D01*
X132501247Y-136261904D02*
X132739342Y-136261904D01*
X132739342Y-136261904D02*
X132834580Y-136214285D01*
X132834580Y-136214285D02*
X132882200Y-136166666D01*
X132882200Y-136166666D02*
X132929819Y-136071428D01*
X132929819Y-136071428D02*
X132929819Y-135833333D01*
X132929819Y-135833333D02*
X132882200Y-135738095D01*
X132882200Y-135738095D02*
X132834580Y-135690476D01*
X123334580Y-134294642D02*
X123382200Y-134247023D01*
X123382200Y-134247023D02*
X123429819Y-134104166D01*
X123429819Y-134104166D02*
X123429819Y-134008928D01*
X123429819Y-134008928D02*
X123382200Y-133866071D01*
X123382200Y-133866071D02*
X123286961Y-133770833D01*
X123286961Y-133770833D02*
X123191723Y-133723214D01*
X123191723Y-133723214D02*
X123001247Y-133675595D01*
X123001247Y-133675595D02*
X122858390Y-133675595D01*
X122858390Y-133675595D02*
X122667914Y-133723214D01*
X122667914Y-133723214D02*
X122572676Y-133770833D01*
X122572676Y-133770833D02*
X122477438Y-133866071D01*
X122477438Y-133866071D02*
X122429819Y-134008928D01*
X122429819Y-134008928D02*
X122429819Y-134104166D01*
X122429819Y-134104166D02*
X122477438Y-134247023D01*
X122477438Y-134247023D02*
X122525057Y-134294642D01*
X122525057Y-134675595D02*
X122477438Y-134723214D01*
X122477438Y-134723214D02*
X122429819Y-134818452D01*
X122429819Y-134818452D02*
X122429819Y-135056547D01*
X122429819Y-135056547D02*
X122477438Y-135151785D01*
X122477438Y-135151785D02*
X122525057Y-135199404D01*
X122525057Y-135199404D02*
X122620295Y-135247023D01*
X122620295Y-135247023D02*
X122715533Y-135247023D01*
X122715533Y-135247023D02*
X122858390Y-135199404D01*
X122858390Y-135199404D02*
X123429819Y-134627976D01*
X123429819Y-134627976D02*
X123429819Y-135247023D01*
X122763152Y-136104166D02*
X123429819Y-136104166D01*
X122382200Y-135866071D02*
X123096485Y-135627976D01*
X123096485Y-135627976D02*
X123096485Y-136247023D01*
D11*
%TO.C,C25*%
X133415000Y-135711252D02*
X133415000Y-134288748D01*
X135235000Y-135711252D02*
X135235000Y-134288748D01*
%TO.C,C24*%
X123915000Y-135648752D02*
X123915000Y-134226248D01*
X125735000Y-135648752D02*
X125735000Y-134226248D01*
%TD*%
M02*
