%TF.GenerationSoftware,KiCad,Pcbnew,8.0.0*%
%TF.CreationDate,2024-06-30T22:05:53-03:00*%
%TF.ProjectId,tp4potencia,74703470-6f74-4656-9e63-69612e6b6963,0.4*%
%TF.SameCoordinates,Original*%
%TF.FileFunction,Copper,L1,Top*%
%TF.FilePolarity,Positive*%
%FSLAX46Y46*%
G04 Gerber Fmt 4.6, Leading zero omitted, Abs format (unit mm)*
G04 Created by KiCad (PCBNEW 8.0.0) date 2024-06-30 22:05:53*
%MOMM*%
%LPD*%
G01*
G04 APERTURE LIST*
G04 Aperture macros list*
%AMRoundRect*
0 Rectangle with rounded corners*
0 $1 Rounding radius*
0 $2 $3 $4 $5 $6 $7 $8 $9 X,Y pos of 4 corners*
0 Add a 4 corners polygon primitive as box body*
4,1,4,$2,$3,$4,$5,$6,$7,$8,$9,$2,$3,0*
0 Add four circle primitives for the rounded corners*
1,1,$1+$1,$2,$3*
1,1,$1+$1,$4,$5*
1,1,$1+$1,$6,$7*
1,1,$1+$1,$8,$9*
0 Add four rect primitives between the rounded corners*
20,1,$1+$1,$2,$3,$4,$5,0*
20,1,$1+$1,$4,$5,$6,$7,0*
20,1,$1+$1,$6,$7,$8,$9,0*
20,1,$1+$1,$8,$9,$2,$3,0*%
%AMHorizOval*
0 Thick line with rounded ends*
0 $1 width*
0 $2 $3 position (X,Y) of the first rounded end (center of the circle)*
0 $4 $5 position (X,Y) of the second rounded end (center of the circle)*
0 Add line between two ends*
20,1,$1,$2,$3,$4,$5,0*
0 Add two circle primitives to create the rounded ends*
1,1,$1,$2,$3*
1,1,$1,$4,$5*%
G04 Aperture macros list end*
%TA.AperFunction,ComponentPad*%
%ADD10R,1.600000X1.600000*%
%TD*%
%TA.AperFunction,ComponentPad*%
%ADD11C,1.600000*%
%TD*%
%TA.AperFunction,ComponentPad*%
%ADD12O,1.600000X1.600000*%
%TD*%
%TA.AperFunction,ComponentPad*%
%ADD13RoundRect,0.575000X-0.575000X-0.575000X0.575000X-0.575000X0.575000X0.575000X-0.575000X0.575000X0*%
%TD*%
%TA.AperFunction,ComponentPad*%
%ADD14C,2.300000*%
%TD*%
%TA.AperFunction,ComponentPad*%
%ADD15C,6.400000*%
%TD*%
%TA.AperFunction,ComponentPad*%
%ADD16R,2.000000X1.905000*%
%TD*%
%TA.AperFunction,ComponentPad*%
%ADD17O,2.000000X1.905000*%
%TD*%
%TA.AperFunction,ComponentPad*%
%ADD18R,4.000000X4.000000*%
%TD*%
%TA.AperFunction,ComponentPad*%
%ADD19C,4.000000*%
%TD*%
%TA.AperFunction,ComponentPad*%
%ADD20O,2.200000X3.500000*%
%TD*%
%TA.AperFunction,ComponentPad*%
%ADD21R,1.500000X2.500000*%
%TD*%
%TA.AperFunction,ComponentPad*%
%ADD22O,1.500000X2.500000*%
%TD*%
%TA.AperFunction,ComponentPad*%
%ADD23C,5.000000*%
%TD*%
%TA.AperFunction,ComponentPad*%
%ADD24RoundRect,0.250000X0.620000X0.845000X-0.620000X0.845000X-0.620000X-0.845000X0.620000X-0.845000X0*%
%TD*%
%TA.AperFunction,ComponentPad*%
%ADD25O,1.740000X2.190000*%
%TD*%
%TA.AperFunction,ComponentPad*%
%ADD26C,2.000000*%
%TD*%
%TA.AperFunction,ComponentPad*%
%ADD27R,1.600000X2.400000*%
%TD*%
%TA.AperFunction,ComponentPad*%
%ADD28O,1.600000X2.400000*%
%TD*%
%TA.AperFunction,ComponentPad*%
%ADD29R,3.000000X3.000000*%
%TD*%
%TA.AperFunction,ComponentPad*%
%ADD30C,3.000000*%
%TD*%
%TA.AperFunction,ComponentPad*%
%ADD31O,3.500000X2.200000*%
%TD*%
%TA.AperFunction,ComponentPad*%
%ADD32R,2.500000X1.500000*%
%TD*%
%TA.AperFunction,ComponentPad*%
%ADD33O,2.500000X1.500000*%
%TD*%
%TA.AperFunction,ComponentPad*%
%ADD34R,2.200000X2.200000*%
%TD*%
%TA.AperFunction,ComponentPad*%
%ADD35O,2.200000X2.200000*%
%TD*%
%TA.AperFunction,ComponentPad*%
%ADD36C,2.200000*%
%TD*%
%TA.AperFunction,SMDPad,CuDef*%
%ADD37C,1.500000*%
%TD*%
%TA.AperFunction,ComponentPad*%
%ADD38R,1.800000X1.800000*%
%TD*%
%TA.AperFunction,ComponentPad*%
%ADD39C,1.800000*%
%TD*%
%TA.AperFunction,ComponentPad*%
%ADD40C,2.400000*%
%TD*%
%TA.AperFunction,ComponentPad*%
%ADD41HorizOval,2.400000X0.000000X0.000000X0.000000X0.000000X0*%
%TD*%
%TA.AperFunction,ComponentPad*%
%ADD42R,1.700000X2.000000*%
%TD*%
%TA.AperFunction,ComponentPad*%
%ADD43O,1.700000X2.000000*%
%TD*%
%TA.AperFunction,ComponentPad*%
%ADD44C,1.440000*%
%TD*%
%TA.AperFunction,ComponentPad*%
%ADD45R,1.905000X2.000000*%
%TD*%
%TA.AperFunction,ComponentPad*%
%ADD46O,1.905000X2.000000*%
%TD*%
%TA.AperFunction,ComponentPad*%
%ADD47O,2.400000X2.400000*%
%TD*%
%TA.AperFunction,ComponentPad*%
%ADD48R,3.200000X3.200000*%
%TD*%
%TA.AperFunction,ComponentPad*%
%ADD49C,3.200000*%
%TD*%
%TA.AperFunction,ViaPad*%
%ADD50C,2.000000*%
%TD*%
%TA.AperFunction,ViaPad*%
%ADD51C,1.500000*%
%TD*%
%TA.AperFunction,Conductor*%
%ADD52C,0.500000*%
%TD*%
%TA.AperFunction,Conductor*%
%ADD53C,1.500000*%
%TD*%
%TA.AperFunction,Conductor*%
%ADD54C,1.000000*%
%TD*%
%TA.AperFunction,Conductor*%
%ADD55C,0.650000*%
%TD*%
G04 APERTURE END LIST*
D10*
%TO.P,C5,1*%
%TO.N,VCC*%
X205753621Y-72299999D03*
D11*
%TO.P,C5,2*%
%TO.N,GND*%
X208253621Y-72299999D03*
%TD*%
%TO.P,R16,1*%
%TO.N,GNDPWR*%
X200205000Y-98970000D03*
D12*
%TO.P,R16,2*%
%TO.N,/Generador PWM/-IN*%
X200205000Y-106590000D03*
%TD*%
D13*
%TO.P,F1,1*%
%TO.N,/AC SUPPLY PROTECTION AND RECTIFIER/Line*%
X89680000Y-119290000D03*
X89680000Y-124290000D03*
D14*
%TO.P,F1,2*%
%TO.N,/AC SUPPLY PROTECTION AND RECTIFIER/Line_p_fuse*%
X104680000Y-119290000D03*
X104680000Y-124290000D03*
%TD*%
D15*
%TO.P,H3,1,1*%
%TO.N,GND*%
X207500000Y-32500000D03*
%TD*%
D16*
%TO.P,Q1,1,G*%
%TO.N,/Gh*%
X137820000Y-45200000D03*
D17*
%TO.P,Q1,2,D*%
%TO.N,+310V*%
X137820000Y-47740000D03*
%TO.P,Q1,3,S*%
%TO.N,/Sh*%
X137820000Y-50280000D03*
%TD*%
D11*
%TO.P,R2,1*%
%TO.N,/Tpm_c*%
X158930000Y-40550000D03*
D12*
%TO.P,R2,2*%
%TO.N,+155V*%
X158930000Y-53250000D03*
%TD*%
D11*
%TO.P,R10,1*%
%TO.N,Net-(D8-K)*%
X155755000Y-69760000D03*
D12*
%TO.P,R10,2*%
%TO.N,/Gh*%
X155755000Y-57060000D03*
%TD*%
D11*
%TO.P,C18,1*%
%TO.N,Net-(U3-COMP)*%
X179845000Y-118020000D03*
%TO.P,C18,2*%
%TO.N,GNDPWR*%
X174845000Y-118020000D03*
%TD*%
D18*
%TO.P,C10,1*%
%TO.N,+155V*%
X117500000Y-65172117D03*
D19*
%TO.P,C10,2*%
%TO.N,GNDPWR*%
X117500000Y-75172117D03*
%TD*%
D20*
%TO.P,SW2,*%
%TO.N,*%
X175245000Y-135800000D03*
X183445000Y-135800000D03*
D21*
%TO.P,SW2,1,A*%
%TO.N,/Temperature Prot/OUT*%
X177345000Y-135800000D03*
D22*
%TO.P,SW2,2,B*%
%TO.N,/Generador PWM/SHUTDOWN*%
X179345000Y-135800000D03*
%TO.P,SW2,3,C*%
%TO.N,unconnected-(SW2-C-Pad3)*%
X181345000Y-135800000D03*
%TD*%
D23*
%TO.P,HS1,1*%
%TO.N,unconnected-(HS1-Pad1)*%
X137320000Y-89120000D03*
%TO.P,HS1,2*%
%TO.N,unconnected-(HS1-Pad2)*%
X143320000Y-89120000D03*
%TO.P,HS1,3*%
%TO.N,unconnected-(HS1-Pad3)*%
X140570000Y-35370000D03*
%TD*%
D24*
%TO.P,TH2,1*%
%TO.N,Net-(U4D-+)*%
X129974000Y-92346000D03*
D25*
%TO.P,TH2,2*%
%TO.N,GNDPWR*%
X127434000Y-92346000D03*
%TD*%
D11*
%TO.P,R14,1*%
%TO.N,/Generador PWM/VREF*%
X197030000Y-98970000D03*
D12*
%TO.P,R14,2*%
%TO.N,/Generador PWM/+IN*%
X197030000Y-106590000D03*
%TD*%
D26*
%TO.P,L1,1,1*%
%TO.N,/T0*%
X195864000Y-53504000D03*
%TO.P,L1,2,2*%
%TO.N,VCC*%
X208864000Y-53504000D03*
%TD*%
D11*
%TO.P,R17,1*%
%TO.N,GNDPWR*%
X172265000Y-121195000D03*
D12*
%TO.P,R17,2*%
%TO.N,/Generador PWM/SHUTDOWN*%
X179885000Y-121195000D03*
%TD*%
D27*
%TO.P,U4,1*%
%TO.N,Net-(D10-K)*%
X159565000Y-128180000D03*
D28*
%TO.P,U4,2*%
%TO.N,N/C*%
X157025000Y-128180000D03*
%TO.P,U4,3,V+*%
%TO.N,+12V*%
X154485000Y-128180000D03*
%TO.P,U4,4*%
%TO.N,N/C*%
X151945000Y-128180000D03*
%TO.P,U4,5*%
X149405000Y-128180000D03*
%TO.P,U4,6,-*%
%TO.N,Net-(U4B--)*%
X146865000Y-128180000D03*
%TO.P,U4,7,+*%
%TO.N,/Sl*%
X144325000Y-128180000D03*
%TO.P,U4,8,-*%
%TO.N,Net-(U4D--)*%
X144325000Y-135800000D03*
%TO.P,U4,9,+*%
%TO.N,Net-(U4D-+)*%
X146865000Y-135800000D03*
%TO.P,U4,10*%
%TO.N,N/C*%
X149405000Y-135800000D03*
%TO.P,U4,11*%
X151945000Y-135800000D03*
%TO.P,U4,12,V-*%
%TO.N,GNDPWR*%
X154485000Y-135800000D03*
%TO.P,U4,13*%
%TO.N,N/C*%
X157025000Y-135800000D03*
%TO.P,U4,14*%
%TO.N,Net-(D12-K)*%
X159565000Y-135800000D03*
%TD*%
D11*
%TO.P,C16,1*%
%TO.N,+12V*%
X162700000Y-90080000D03*
%TO.P,C16,2*%
%TO.N,/Sl*%
X164700000Y-90080000D03*
%TD*%
D18*
%TO.P,C9,1*%
%TO.N,+310V*%
X117500000Y-37232117D03*
D19*
%TO.P,C9,2*%
%TO.N,+155V*%
X117500000Y-47232117D03*
%TD*%
D11*
%TO.P,R8,1*%
%TO.N,+155V*%
X99240000Y-63410000D03*
D12*
%TO.P,R8,2*%
%TO.N,GNDPWR*%
X99240000Y-76110000D03*
%TD*%
D26*
%TO.P,C7,1*%
%TO.N,GND*%
X113000000Y-130750000D03*
%TO.P,C7,2*%
%TO.N,GNDPWR*%
X113000000Y-123250000D03*
%TD*%
D29*
%TO.P,J3,1,Pin_1*%
%TO.N,GND*%
X203888000Y-85508000D03*
D30*
%TO.P,J3,2,Pin_2*%
%TO.N,VCC*%
X203888000Y-80428000D03*
%TD*%
D29*
%TO.P,J2,1,Pin_1*%
%TO.N,GND*%
X89570000Y-103620000D03*
D30*
%TO.P,J2,2,Pin_2*%
%TO.N,/AC SUPPLY PROTECTION AND RECTIFIER/Neutral*%
X89570000Y-108700000D03*
%TO.P,J2,3,Pin_3*%
%TO.N,/AC SUPPLY PROTECTION AND RECTIFIER/Line*%
X89570000Y-113780000D03*
%TD*%
D11*
%TO.P,R22,1*%
%TO.N,Net-(D12-A)*%
X163375000Y-135800000D03*
D12*
%TO.P,R22,2*%
%TO.N,+12V*%
X163375000Y-133260000D03*
%TD*%
D16*
%TO.P,Q2,1,G*%
%TO.N,/Gl*%
X137820000Y-70080000D03*
D17*
%TO.P,Q2,2,D*%
%TO.N,/Sh*%
X137820000Y-72620000D03*
%TO.P,Q2,3,S*%
%TO.N,/Sl*%
X137820000Y-75160000D03*
%TD*%
D31*
%TO.P,SW4,*%
%TO.N,*%
X176075000Y-79535000D03*
X176075000Y-87735000D03*
D32*
%TO.P,SW4,1,A*%
%TO.N,VCC*%
X176075000Y-81635000D03*
D33*
%TO.P,SW4,2,B*%
%TO.N,Net-(D3-K)*%
X176075000Y-83635000D03*
%TO.P,SW4,3,C*%
%TO.N,unconnected-(SW4-C-Pad3)*%
X176075000Y-85635000D03*
%TD*%
D11*
%TO.P,C23,1*%
%TO.N,+12V*%
X198260000Y-121500000D03*
%TO.P,C23,2*%
%TO.N,GNDPWR*%
X193260000Y-121500000D03*
%TD*%
D34*
%TO.P,D13,1,K*%
%TO.N,Net-(D12-K)*%
X171630000Y-136435000D03*
D35*
%TO.P,D13,2,A*%
%TO.N,/Temperature Prot/OUT*%
X171630000Y-133895000D03*
%TD*%
D34*
%TO.P,D11,1,K*%
%TO.N,Net-(D10-K)*%
X171630000Y-126910000D03*
D35*
%TO.P,D11,2,A*%
%TO.N,/Current_prot/OUT*%
X171630000Y-129450000D03*
%TD*%
D36*
%TO.P,C2,1*%
%TO.N,/Sh*%
X165280000Y-64560000D03*
%TO.P,C2,2*%
%TO.N,/Tpm*%
X165280000Y-49560000D03*
%TD*%
D11*
%TO.P,R13,1*%
%TO.N,/Sl*%
X146230000Y-80555000D03*
D12*
%TO.P,R13,2*%
%TO.N,/Gl*%
X146230000Y-72935000D03*
%TD*%
D37*
%TO.P,FID2,*%
%TO.N,*%
X95000000Y-137500000D03*
%TD*%
D26*
%TO.P,T1,*%
%TO.N,*%
X173520000Y-49560000D03*
X186520000Y-49560000D03*
X173520000Y-44360000D03*
X173520000Y-39160000D03*
X186520000Y-39160000D03*
%TO.P,T1,1,AA*%
%TO.N,+155V*%
X173520000Y-54760000D03*
%TO.P,T1,5,AB*%
%TO.N,/Tpm*%
X173520000Y-33960000D03*
%TO.P,T1,6,SA*%
%TO.N,/T2*%
X186520000Y-54760000D03*
%TO.P,T1,8,SC*%
%TO.N,GND*%
X186520000Y-44360000D03*
%TO.P,T1,10,SB*%
%TO.N,/T1*%
X186520000Y-33960000D03*
%TD*%
D11*
%TO.P,R18,1*%
%TO.N,Net-(R18-Pad1)*%
X125275000Y-130495000D03*
D12*
%TO.P,R18,2*%
%TO.N,+12V*%
X125275000Y-127955000D03*
%TD*%
D11*
%TO.P,R20,1*%
%TO.N,Net-(U4D-+)*%
X128704000Y-122592000D03*
D12*
%TO.P,R20,2*%
%TO.N,+12V*%
X138864000Y-122592000D03*
%TD*%
D11*
%TO.P,C22,1*%
%TO.N,+12V*%
X177345000Y-111940000D03*
%TO.P,C22,2*%
%TO.N,GNDPWR*%
X177345000Y-113940000D03*
%TD*%
%TO.P,R7,1*%
%TO.N,+310V*%
X99240000Y-40550000D03*
D12*
%TO.P,R7,2*%
%TO.N,+155V*%
X99240000Y-53250000D03*
%TD*%
D36*
%TO.P,C8,1*%
%TO.N,Net-(C8-Pad1)*%
X91620000Y-59720000D03*
%TO.P,C8,2*%
%TO.N,GNDPWR*%
X91620000Y-74720000D03*
%TD*%
D34*
%TO.P,D7,1,K*%
%TO.N,Net-(D7-K)*%
X152580000Y-98970000D03*
D35*
%TO.P,D7,2,A*%
%TO.N,+12V*%
X162740000Y-98970000D03*
%TD*%
D27*
%TO.P,U3,1,INV*%
%TO.N,/Generador PWM/-IN*%
X200850000Y-110410000D03*
D28*
%TO.P,U3,2,NI*%
%TO.N,/Generador PWM/+IN*%
X198310000Y-110410000D03*
%TO.P,U3,3,SYNC*%
%TO.N,unconnected-(U3-SYNC-Pad3)*%
X195770000Y-110410000D03*
%TO.P,U3,4,OSC*%
%TO.N,unconnected-(U3-OSC-Pad4)*%
X193230000Y-110410000D03*
%TO.P,U3,5,CT*%
%TO.N,Net-(U3-CT)*%
X190690000Y-110410000D03*
%TO.P,U3,6,RT*%
%TO.N,Net-(U3-RT)*%
X188150000Y-110410000D03*
%TO.P,U3,7,DISCH*%
%TO.N,Net-(U3-DISCH)*%
X185610000Y-110410000D03*
%TO.P,U3,8,SS*%
%TO.N,Net-(U3-SS)*%
X183070000Y-110410000D03*
%TO.P,U3,9,COMP*%
%TO.N,Net-(U3-COMP)*%
X183070000Y-118030000D03*
%TO.P,U3,10,SD*%
%TO.N,/Generador PWM/SHUTDOWN*%
X185610000Y-118030000D03*
%TO.P,U3,11,OUTA*%
%TO.N,/PWM_N*%
X188150000Y-118030000D03*
%TO.P,U3,12,GND*%
%TO.N,GNDPWR*%
X190690000Y-118030000D03*
%TO.P,U3,13,VC*%
%TO.N,+12V*%
X193230000Y-118030000D03*
%TO.P,U3,14,OUTB*%
%TO.N,/PWM_P*%
X195770000Y-118030000D03*
%TO.P,U3,15,VIN*%
%TO.N,+12V*%
X198310000Y-118030000D03*
%TO.P,U3,16,REF*%
%TO.N,/Generador PWM/VREF*%
X200850000Y-118030000D03*
%TD*%
D10*
%TO.P,U1,1*%
%TO.N,Net-(D3-A)*%
X197030000Y-88175000D03*
D12*
%TO.P,U1,2*%
%TO.N,Net-(D2-A)*%
X194490000Y-88175000D03*
%TO.P,U1,3*%
%TO.N,/Generador PWM/-IN*%
X194490000Y-95795000D03*
%TO.P,U1,4*%
%TO.N,/Generador PWM/VREF*%
X197030000Y-95795000D03*
%TD*%
D38*
%TO.P,D10,1,K*%
%TO.N,Net-(D10-K)*%
X167185000Y-126910000D03*
D39*
%TO.P,D10,2,A*%
%TO.N,Net-(D10-A)*%
X167185000Y-129450000D03*
%TD*%
D11*
%TO.P,R21,1*%
%TO.N,Net-(R21-Pad1)*%
X134800000Y-130495000D03*
D12*
%TO.P,R21,2*%
%TO.N,+12V*%
X134800000Y-127955000D03*
%TD*%
D38*
%TO.P,D2,1,K*%
%TO.N,Net-(D2-K)*%
X186865000Y-87540000D03*
D39*
%TO.P,D2,2,A*%
%TO.N,Net-(D2-A)*%
X189405000Y-87540000D03*
%TD*%
D40*
%TO.P,R1,1*%
%TO.N,/Sl*%
X132260000Y-81190000D03*
D41*
%TO.P,R1,2*%
%TO.N,GNDPWR*%
X114662364Y-91350000D03*
%TD*%
D11*
%TO.P,C15,1*%
%TO.N,Net-(D7-K)*%
X155080000Y-90080000D03*
%TO.P,C15,2*%
%TO.N,/Sh*%
X157080000Y-90080000D03*
%TD*%
%TO.P,C3,1*%
%TO.N,/Tpm_c*%
X162820000Y-33960000D03*
%TO.P,C3,2*%
%TO.N,/Tpm*%
X167820000Y-33960000D03*
%TD*%
D37*
%TO.P,FID1,*%
%TO.N,*%
X95000000Y-32500000D03*
%TD*%
D11*
%TO.P,C14,1*%
%TO.N,+12V*%
X161470000Y-95160000D03*
%TO.P,C14,2*%
%TO.N,/Sl*%
X166470000Y-95160000D03*
%TD*%
D38*
%TO.P,D6,1,K*%
%TO.N,GNDPWR*%
X119555000Y-125640000D03*
D39*
%TO.P,D6,2,A*%
%TO.N,Net-(D6-A)*%
X122095000Y-125640000D03*
%TD*%
D34*
%TO.P,D9,1,K*%
%TO.N,Net-(D9-K)*%
X162740000Y-78650000D03*
D35*
%TO.P,D9,2,A*%
%TO.N,/Gl*%
X150040000Y-78650000D03*
%TD*%
D15*
%TO.P,H6,1,1*%
%TO.N,unconnected-(H6-Pad1)*%
X87500000Y-32500000D03*
%TD*%
D26*
%TO.P,TH1,1*%
%TO.N,/AC SUPPLY PROTECTION AND RECTIFIER/Line_p_fuse*%
X104800000Y-112840000D03*
%TO.P,TH1,2*%
%TO.N,/AC SUPPLY PROTECTION AND RECTIFIER/Line_p_ntc*%
X104800000Y-105340000D03*
%TD*%
D11*
%TO.P,R9,1*%
%TO.N,Net-(D6-A)*%
X128675000Y-125640000D03*
D12*
%TO.P,R9,2*%
%TO.N,+12V*%
X131215000Y-125640000D03*
%TD*%
D42*
%TO.P,PS1,1,AC/L*%
%TO.N,/AC SUPPLY PROTECTION AND RECTIFIER/Line_p_ntc*%
X112502500Y-104847349D03*
D43*
%TO.P,PS1,2,AC/N*%
%TO.N,/AC SUPPLY PROTECTION AND RECTIFIER/Neutral*%
X112502500Y-109847349D03*
%TO.P,PS1,3,-Vout*%
%TO.N,GNDPWR*%
X141582500Y-99847349D03*
%TO.P,PS1,4,+Vout*%
%TO.N,+12V*%
X141582500Y-114847349D03*
%TD*%
D20*
%TO.P,SW3,*%
%TO.N,*%
X175245000Y-128180000D03*
X183445000Y-128180000D03*
D21*
%TO.P,SW3,1,A*%
%TO.N,/Current_prot/OUT*%
X177345000Y-128180000D03*
D22*
%TO.P,SW3,2,B*%
%TO.N,/Generador PWM/SHUTDOWN*%
X179345000Y-128180000D03*
%TO.P,SW3,3,C*%
%TO.N,unconnected-(SW3-C-Pad3)*%
X181345000Y-128180000D03*
%TD*%
D15*
%TO.P,H4,1,1*%
%TO.N,GND*%
X87500000Y-137500000D03*
%TD*%
D11*
%TO.P,C17,1*%
%TO.N,/Generador PWM/VREF*%
X200840000Y-122545000D03*
%TO.P,C17,2*%
%TO.N,GNDPWR*%
X200840000Y-127545000D03*
%TD*%
%TO.P,C19,1*%
%TO.N,/Generador PWM/SHUTDOWN*%
X185600000Y-121576000D03*
%TO.P,C19,2*%
%TO.N,GNDPWR*%
X190600000Y-121576000D03*
%TD*%
D34*
%TO.P,D8,1,K*%
%TO.N,Net-(D8-K)*%
X151945000Y-69760000D03*
D35*
%TO.P,D8,2,A*%
%TO.N,/Gh*%
X151945000Y-57060000D03*
%TD*%
D11*
%TO.P,RDT1,1*%
%TO.N,Net-(U3-DISCH)*%
X185610000Y-106600000D03*
D12*
%TO.P,RDT1,2*%
%TO.N,Net-(U3-CT)*%
X185610000Y-98980000D03*
%TD*%
D11*
%TO.P,R12,1*%
%TO.N,/Sh*%
X146230000Y-52820000D03*
D12*
%TO.P,R12,2*%
%TO.N,/Gh*%
X146230000Y-45200000D03*
%TD*%
D11*
%TO.P,R4,1*%
%TO.N,Net-(D2-K)*%
X184105000Y-87540000D03*
D12*
%TO.P,R4,2*%
%TO.N,GND*%
X181565000Y-87540000D03*
%TD*%
D11*
%TO.P,C20,1*%
%TO.N,Net-(U3-CT)*%
X190690000Y-104020000D03*
%TO.P,C20,2*%
%TO.N,GNDPWR*%
X190690000Y-99020000D03*
%TD*%
D39*
%TO.P,RV1,1*%
%TO.N,/AC SUPPLY PROTECTION AND RECTIFIER/Neutral*%
X99150000Y-105340000D03*
%TO.P,RV1,2*%
%TO.N,/AC SUPPLY PROTECTION AND RECTIFIER/Line_p_fuse*%
X97750000Y-112840000D03*
%TD*%
D44*
%TO.P,RVfq1,1,1*%
%TO.N,Net-(RVfq1-Pad1)*%
X177355000Y-98970000D03*
%TO.P,RVfq1,2,2*%
%TO.N,GNDPWR*%
X174815000Y-98970000D03*
%TO.P,RVfq1,3,3*%
X172275000Y-98970000D03*
%TD*%
D38*
%TO.P,D4,1,K*%
%TO.N,Net-(D4-K)*%
X198549000Y-35724000D03*
D39*
%TO.P,D4,2,A*%
%TO.N,VCC*%
X201089000Y-35724000D03*
%TD*%
D11*
%TO.P,R5,1*%
%TO.N,GND*%
X191696000Y-43344000D03*
D12*
%TO.P,R5,2*%
%TO.N,Net-(D4-K)*%
X191696000Y-35724000D03*
%TD*%
D11*
%TO.P,R11,1*%
%TO.N,Net-(D9-K)*%
X162740000Y-74840000D03*
D12*
%TO.P,R11,2*%
%TO.N,/Gl*%
X150040000Y-74840000D03*
%TD*%
D11*
%TO.P,C13,1*%
%TO.N,Net-(D7-K)*%
X153850000Y-95160000D03*
%TO.P,C13,2*%
%TO.N,/Sh*%
X158850000Y-95160000D03*
%TD*%
%TO.P,R19,1*%
%TO.N,Net-(D10-A)*%
X163375000Y-128180000D03*
D12*
%TO.P,R19,2*%
%TO.N,+12V*%
X163375000Y-130720000D03*
%TD*%
D11*
%TO.P,Rfq1,1*%
%TO.N,Net-(U3-RT)*%
X181800000Y-106600000D03*
D12*
%TO.P,Rfq1,2*%
%TO.N,Net-(RVfq1-Pad1)*%
X181800000Y-98980000D03*
%TD*%
D27*
%TO.P,U2,1,LO*%
%TO.N,Net-(D9-K)*%
X167820000Y-102780000D03*
D28*
%TO.P,U2,2,COM*%
%TO.N,/Sl*%
X165280000Y-102780000D03*
%TO.P,U2,3,VCC*%
%TO.N,+12V*%
X162740000Y-102780000D03*
%TO.P,U2,4,NC*%
%TO.N,unconnected-(U2-NC-Pad4)*%
X160200000Y-102780000D03*
%TO.P,U2,5,VS*%
%TO.N,/Sh*%
X157660000Y-102780000D03*
%TO.P,U2,6,VB*%
%TO.N,Net-(D7-K)*%
X155120000Y-102780000D03*
%TO.P,U2,7,HO*%
%TO.N,Net-(D8-K)*%
X152580000Y-102780000D03*
%TO.P,U2,8,NC*%
%TO.N,unconnected-(U2-NC-Pad8)*%
X152580000Y-110400000D03*
%TO.P,U2,9,VDD*%
%TO.N,+12V*%
X155120000Y-110400000D03*
%TO.P,U2,10,HIN*%
%TO.N,/PWM_P*%
X157660000Y-110400000D03*
%TO.P,U2,11,SD*%
%TO.N,GNDPWR*%
X160200000Y-110400000D03*
%TO.P,U2,12,LIN*%
%TO.N,/PWM_N*%
X162740000Y-110400000D03*
%TO.P,U2,13,VSS*%
%TO.N,GNDPWR*%
X165280000Y-110400000D03*
%TO.P,U2,14,NC*%
%TO.N,unconnected-(U2-NC-Pad14)*%
X167820000Y-110400000D03*
%TD*%
D45*
%TO.P,D1,1,A1*%
%TO.N,/T2*%
X189156000Y-60710000D03*
D46*
%TO.P,D1,2,K*%
%TO.N,/T0*%
X186616000Y-60710000D03*
%TO.P,D1,3,A2*%
%TO.N,/T1*%
X184076000Y-60710000D03*
%TD*%
D11*
%TO.P,R15,1*%
%TO.N,GNDPWR*%
X203380000Y-106590000D03*
D12*
%TO.P,R15,2*%
%TO.N,/Generador PWM/VREF*%
X203380000Y-98970000D03*
%TD*%
D34*
%TO.P,D3,1,K*%
%TO.N,Net-(D3-K)*%
X179250000Y-91350000D03*
D35*
%TO.P,D3,2,A*%
%TO.N,Net-(D3-A)*%
X189410000Y-91350000D03*
%TD*%
D11*
%TO.P,C11,1*%
%TO.N,+12V*%
X155160000Y-113575000D03*
%TO.P,C11,2*%
%TO.N,GNDPWR*%
X160160000Y-113575000D03*
%TD*%
D40*
%TO.P,R6,1*%
%TO.N,+310V*%
X91620000Y-44360000D03*
D47*
%TO.P,R6,2*%
%TO.N,Net-(C8-Pad1)*%
X91620000Y-51980000D03*
%TD*%
D38*
%TO.P,D12,1,K*%
%TO.N,Net-(D12-K)*%
X167185000Y-136435000D03*
D39*
%TO.P,D12,2,A*%
%TO.N,Net-(D12-A)*%
X167185000Y-133895000D03*
%TD*%
D10*
%TO.P,C12,1*%
%TO.N,+12V*%
X151692651Y-121322000D03*
D11*
%TO.P,C12,2*%
%TO.N,GNDPWR*%
X148192651Y-121322000D03*
%TD*%
D44*
%TO.P,RV3,1,1*%
%TO.N,Net-(R21-Pad1)*%
X130355000Y-130950000D03*
%TO.P,RV3,2,2*%
%TO.N,Net-(U4D--)*%
X130355000Y-133490000D03*
%TO.P,RV3,3,3*%
%TO.N,GNDPWR*%
X130355000Y-136030000D03*
%TD*%
D11*
%TO.P,C21,1*%
%TO.N,Net-(U3-SS)*%
X177345000Y-106590000D03*
%TO.P,C21,2*%
%TO.N,GNDPWR*%
X177345000Y-104590000D03*
%TD*%
D44*
%TO.P,RV2,1,1*%
%TO.N,Net-(R18-Pad1)*%
X120830000Y-130920000D03*
%TO.P,RV2,2,2*%
%TO.N,Net-(U4B--)*%
X120830000Y-133460000D03*
%TO.P,RV2,3,3*%
%TO.N,GNDPWR*%
X120830000Y-136000000D03*
%TD*%
D10*
%TO.P,C6,1*%
%TO.N,VCC*%
X201006380Y-72300000D03*
D11*
%TO.P,C6,2*%
%TO.N,GND*%
X198506380Y-72300000D03*
%TD*%
D15*
%TO.P,H5,1,1*%
%TO.N,GND*%
X207500000Y-137500000D03*
%TD*%
D37*
%TO.P,FID3,*%
%TO.N,*%
X200000000Y-137500000D03*
%TD*%
D48*
%TO.P,D5,1,+*%
%TO.N,+310V*%
X89050000Y-92270000D03*
D49*
%TO.P,D5,2*%
%TO.N,/AC SUPPLY PROTECTION AND RECTIFIER/Neutral*%
X94130000Y-92270000D03*
%TO.P,D5,3*%
%TO.N,/AC SUPPLY PROTECTION AND RECTIFIER/Line_p_ntc*%
X99210000Y-92270000D03*
%TO.P,D5,4,-*%
%TO.N,GNDPWR*%
X104290000Y-92270000D03*
%TD*%
D50*
%TO.N,/Sh*%
X148135000Y-57060000D03*
X133530000Y-57060000D03*
X148135000Y-68490000D03*
X133530000Y-64560000D03*
D51*
%TO.N,GNDPWR*%
X140642000Y-131990000D03*
X140642000Y-135546000D03*
D50*
X173535000Y-102780000D03*
X173535000Y-110400000D03*
D51*
%TO.N,+12V*%
X155120000Y-122846000D03*
X186870000Y-112940000D03*
X155120000Y-116242000D03*
X194490000Y-115480000D03*
%TO.N,/Generador PWM/SHUTDOWN*%
X186616000Y-126148000D03*
X183060000Y-121195000D03*
%TO.N,/Sl*%
X132260000Y-119925000D03*
X132260000Y-99478000D03*
D50*
X162740000Y-82460000D03*
D51*
X144325000Y-125386000D03*
X138864000Y-119925000D03*
X132260000Y-114972000D03*
X137022500Y-119925000D03*
D50*
X150040000Y-82460000D03*
D51*
%TO.N,VCC*%
X195125000Y-66712000D03*
X202872000Y-66712000D03*
%TO.N,/Generador PWM/-IN*%
X194490000Y-98970000D03*
X194490000Y-106590000D03*
%TO.N,/PWM_P*%
X157660000Y-116115000D03*
X157660000Y-124370000D03*
X195760000Y-124370000D03*
X188775000Y-124370000D03*
%TO.N,/PWM_N*%
X162740000Y-123578000D03*
X162740000Y-116115000D03*
%TO.N,Net-(U4D-+)*%
X137975000Y-137070000D03*
X128958000Y-114972000D03*
X137848000Y-126251000D03*
X128958000Y-99478000D03*
%TD*%
D52*
%TO.N,VCC*%
X202872000Y-66712000D02*
X195125000Y-66712000D01*
D53*
%TO.N,/Sh*%
X133530000Y-64560000D02*
X133530000Y-57060000D01*
D54*
X148135000Y-57060000D02*
X148135000Y-68490000D01*
D53*
%TO.N,GNDPWR*%
X173535000Y-110400000D02*
X173535000Y-102780000D01*
D52*
X140642000Y-131990000D02*
X140642000Y-135546000D01*
D53*
%TO.N,+12V*%
X155120000Y-122592000D02*
X155120000Y-122846000D01*
D55*
X186870000Y-112940000D02*
X194490000Y-115480000D01*
D53*
X155120000Y-116242000D02*
X155120000Y-122592000D01*
D52*
%TO.N,/Generador PWM/SHUTDOWN*%
X186616000Y-126148000D02*
X183060000Y-121195000D01*
%TO.N,/Sl*%
X144325000Y-125386000D02*
X138864000Y-119925000D01*
X132260000Y-99478000D02*
X132260000Y-114972000D01*
D54*
X150040000Y-82460000D02*
X162740000Y-82460000D01*
D52*
X132260000Y-119925000D02*
X137022500Y-119925000D01*
%TO.N,/Generador PWM/-IN*%
X194490000Y-106590000D02*
X194490000Y-98970000D01*
%TO.N,/PWM_P*%
X157660000Y-124370000D02*
X157660000Y-116115000D01*
X188775000Y-124370000D02*
X189410000Y-124370000D01*
X189410000Y-124370000D02*
X195760000Y-124370000D01*
%TO.N,/PWM_N*%
X162740000Y-116115000D02*
X162740000Y-123578000D01*
%TO.N,Net-(U4D-+)*%
X137848000Y-136943000D02*
X137848000Y-126251000D01*
X128958000Y-99478000D02*
X128958000Y-114972000D01*
X137975000Y-137070000D02*
X137848000Y-136943000D01*
%TD*%
M02*
