M48
; DRILL file {KiCad 8.0.0} date 2024-06-30T22:06:06-0300
; FORMAT={-:-/ absolute / metric / decimal}
; #@! TF.CreationDate,2024-06-30T22:06:06-03:00
; #@! TF.GenerationSoftware,Kicad,Pcbnew,8.0.0
; #@! TF.FileFunction,Plated,1,2,PTH
FMAT,2
METRIC
; #@! TA.AperFunction,Plated,PTH,ViaDrill
T1C0.750
; #@! TA.AperFunction,Plated,PTH,ComponentDrill
T2C0.800
; #@! TA.AperFunction,Plated,PTH,ComponentDrill
T3C0.900
; #@! TA.AperFunction,Plated,PTH,ViaDrill
T4C1.000
; #@! TA.AperFunction,Plated,PTH,ComponentDrill
T5C1.000
; #@! TA.AperFunction,Plated,PTH,ComponentDrill
T6C1.100
; #@! TA.AperFunction,Plated,PTH,ComponentDrill
T7C1.190
; #@! TA.AperFunction,Plated,PTH,ComponentDrill
T8C1.200
; #@! TA.AperFunction,Plated,PTH,ComponentDrill
T9C1.300
; #@! TA.AperFunction,Plated,PTH,ComponentDrill
T10C1.500
; #@! TA.AperFunction,Plated,PTH,ComponentDrill
T11C1.520
; #@! TA.AperFunction,Plated,PTH,ComponentDrill
T12C1.600
; #@! TA.AperFunction,Plated,PTH,ComponentDrill
T13C2.000
; #@! TA.AperFunction,Plated,PTH,ComponentDrill
T14C3.200
%
G90
G05
T1
X128.958Y-99.478
X128.958Y-114.972
X132.26Y-99.478
X132.26Y-114.972
X132.26Y-119.925
X137.023Y-119.925
X137.848Y-126.251
X137.975Y-137.07
X138.864Y-119.925
X140.642Y-131.99
X140.642Y-135.546
X144.325Y-125.386
X155.12Y-116.242
X155.12Y-122.846
X157.66Y-116.115
X157.66Y-124.37
X162.74Y-116.115
X162.74Y-123.578
X183.06Y-121.195
X186.616Y-126.148
X186.87Y-112.94
X188.775Y-124.37
X194.49Y-98.97
X194.49Y-106.59
X194.49Y-115.48
X195.125Y-66.712
X195.76Y-124.37
X202.872Y-66.712
T2
X97.75Y-112.84
X99.15Y-105.34
X99.24Y-40.55
X99.24Y-53.25
X99.24Y-63.41
X99.24Y-76.11
X120.83Y-130.92
X120.83Y-133.46
X120.83Y-136.0
X125.275Y-127.955
X125.275Y-130.495
X128.675Y-125.64
X128.704Y-122.592
X130.355Y-130.95
X130.355Y-133.49
X130.355Y-136.03
X131.215Y-125.64
X134.8Y-127.955
X134.8Y-130.495
X138.864Y-122.592
X144.325Y-128.18
X144.325Y-135.8
X146.23Y-45.2
X146.23Y-52.82
X146.23Y-72.935
X146.23Y-80.555
X146.865Y-128.18
X146.865Y-135.8
X148.193Y-121.322
X149.405Y-128.18
X149.405Y-135.8
X150.04Y-74.84
X151.693Y-121.322
X151.945Y-128.18
X151.945Y-135.8
X152.58Y-102.78
X152.58Y-110.4
X153.85Y-95.16
X154.485Y-128.18
X154.485Y-135.8
X155.08Y-90.08
X155.12Y-102.78
X155.12Y-110.4
X155.16Y-113.575
X155.755Y-57.06
X155.755Y-69.76
X157.025Y-128.18
X157.025Y-135.8
X157.08Y-90.08
X157.66Y-102.78
X157.66Y-110.4
X158.85Y-95.16
X158.93Y-40.55
X158.93Y-53.25
X159.565Y-128.18
X159.565Y-135.8
X160.16Y-113.575
X160.2Y-102.78
X160.2Y-110.4
X161.47Y-95.16
X162.7Y-90.08
X162.74Y-74.84
X162.74Y-102.78
X162.74Y-110.4
X162.82Y-33.96
X163.375Y-128.18
X163.375Y-130.72
X163.375Y-133.26
X163.375Y-135.8
X164.7Y-90.08
X165.28Y-102.78
X165.28Y-110.4
X166.47Y-95.16
X167.82Y-33.96
X167.82Y-102.78
X167.82Y-110.4
X172.265Y-121.195
X172.275Y-98.97
X174.815Y-98.97
X174.845Y-118.02
X176.075Y-81.635
X176.075Y-83.635
X176.075Y-85.635
X177.345Y-104.59
X177.345Y-106.59
X177.345Y-111.94
X177.345Y-113.94
X177.345Y-128.18
X177.345Y-135.8
X177.355Y-98.97
X179.345Y-128.18
X179.345Y-135.8
X179.845Y-118.02
X179.885Y-121.195
X181.345Y-128.18
X181.345Y-135.8
X181.565Y-87.54
X181.8Y-98.98
X181.8Y-106.6
X183.07Y-110.41
X183.07Y-118.03
X184.105Y-87.54
X185.6Y-121.576
X185.61Y-98.98
X185.61Y-106.6
X185.61Y-110.41
X185.61Y-118.03
X188.15Y-110.41
X188.15Y-118.03
X190.6Y-121.576
X190.69Y-99.02
X190.69Y-104.02
X190.69Y-110.41
X190.69Y-118.03
X191.696Y-35.724
X191.696Y-43.344
X193.23Y-110.41
X193.23Y-118.03
X193.26Y-121.5
X194.49Y-88.175
X194.49Y-95.795
X195.77Y-110.41
X195.77Y-118.03
X197.03Y-88.175
X197.03Y-95.795
X197.03Y-98.97
X197.03Y-106.59
X198.26Y-121.5
X198.31Y-110.41
X198.31Y-118.03
X198.506Y-72.3
X200.205Y-98.97
X200.205Y-106.59
X200.84Y-122.545
X200.84Y-127.545
X200.85Y-110.41
X200.85Y-118.03
X201.006Y-72.3
X203.38Y-98.97
X203.38Y-106.59
X205.754Y-72.3
X208.254Y-72.3
T3
X119.555Y-125.64
X122.095Y-125.64
X167.185Y-126.91
X167.185Y-129.45
X167.185Y-133.895
X167.185Y-136.435
X186.865Y-87.54
X189.405Y-87.54
X198.549Y-35.724
X201.089Y-35.724
T4
X133.53Y-57.06
X133.53Y-64.56
X148.135Y-57.06
X148.135Y-68.49
X150.04Y-82.46
X162.74Y-82.46
X173.535Y-102.78
X173.535Y-110.4
T5
X104.8Y-105.34
X104.8Y-112.84
X112.502Y-104.847
X112.502Y-109.847
X113.0Y-123.25
X113.0Y-130.75
X141.582Y-99.847
X141.582Y-114.847
X173.52Y-33.96
X173.52Y-39.16
X173.52Y-44.36
X173.52Y-49.56
X173.52Y-54.76
X186.52Y-33.96
X186.52Y-39.16
X186.52Y-44.36
X186.52Y-49.56
X186.52Y-54.76
X195.864Y-53.504
X208.864Y-53.504
T6
X91.62Y-59.72
X91.62Y-74.72
X137.82Y-45.2
X137.82Y-47.74
X137.82Y-50.28
X137.82Y-70.08
X137.82Y-72.62
X137.82Y-75.16
X150.04Y-78.65
X151.945Y-57.06
X151.945Y-69.76
X152.58Y-98.97
X162.74Y-78.65
X162.74Y-98.97
X165.28Y-49.56
X165.28Y-64.56
X171.63Y-126.91
X171.63Y-129.45
X171.63Y-133.895
X171.63Y-136.435
X179.25Y-91.35
X189.41Y-91.35
T7
X127.434Y-92.346
X129.974Y-92.346
T8
X91.62Y-44.36
X91.62Y-51.98
X114.662Y-91.35
X132.26Y-81.19
X184.076Y-60.71
X186.616Y-60.71
X189.156Y-60.71
T9
X89.68Y-119.29
X89.68Y-124.29
X104.68Y-119.29
X104.68Y-124.29
T10
X175.245Y-128.18
X175.245Y-135.8
X176.075Y-79.535
X176.075Y-87.735
X183.445Y-128.18
X183.445Y-135.8
T11
X89.57Y-103.62
X89.57Y-108.7
X89.57Y-113.78
X203.888Y-80.428
X203.888Y-85.508
T12
X89.05Y-92.27
X94.13Y-92.27
X99.21Y-92.27
X104.29Y-92.27
T13
X117.5Y-37.232
X117.5Y-47.232
X117.5Y-65.172
X117.5Y-75.172
X137.32Y-89.12
X140.57Y-35.37
X143.32Y-89.12
T14
X87.5Y-32.5
X87.5Y-137.5
X207.5Y-32.5
X207.5Y-137.5
M30
